<svg width="1138" height="357" viewBox="0 0 1138 357" fill="none" xmlns="http://www.w3.org/2000/svg">
<path d="M18 169.66V173H0.755859L10.3711 161.486C11.5664 160.045 12.4395 158.779 12.9902 157.689C13.541 156.6 13.8164 155.609 13.8164 154.719C13.8164 153.441 13.4355 152.439 12.6738 151.713C11.9238 150.975 10.8926 150.605 9.58008 150.605C8.4082 150.605 7.44141 150.975 6.67969 151.713C5.91797 152.439 5.49023 153.4 5.39648 154.596H1.37109C1.37109 152.287 2.14453 150.447 3.69141 149.076C5.23828 147.693 7.31836 147.002 9.93164 147.002C12.416 147.002 14.373 147.641 15.8027 148.918C17.2441 150.195 17.9648 151.936 17.9648 154.139C17.9648 155.709 17.5488 157.297 16.7168 158.902C15.8965 160.496 14.1504 162.816 11.4785 165.863L8.20898 169.66H18ZM24.8906 171.049C24.8906 170.404 25.1133 169.854 25.5586 169.396C26.0039 168.939 26.5488 168.711 27.1934 168.711C27.8379 168.711 28.3828 168.939 28.8281 169.396C29.2734 169.854 29.4961 170.404 29.4961 171.049C29.4961 171.682 29.2734 172.221 28.8281 172.666C28.3828 173.1 27.8379 173.316 27.1934 173.316C26.5488 173.316 26.0039 173.1 25.5586 172.666C25.1133 172.221 24.8906 171.682 24.8906 171.049ZM50.625 158.023H51.6973C54.0176 158.023 55.5645 157.771 56.3379 157.268C57.1113 156.764 57.498 155.873 57.498 154.596C57.498 153.225 57.082 152.258 56.25 151.695C55.4297 151.133 53.9121 150.852 51.6973 150.852H50.625V158.023ZM50.3613 161.451V173H46.4414V147.266H52.7695C54.6445 147.266 56.0215 147.371 56.9004 147.582C57.791 147.781 58.5645 148.115 59.2207 148.584C60.0293 149.182 60.6621 149.99 61.1191 151.01C61.5762 152.018 61.8047 153.131 61.8047 154.35C61.8047 155.568 61.5762 156.693 61.1191 157.725C60.6621 158.756 60.0293 159.564 59.2207 160.15C58.5645 160.619 57.791 160.953 56.9004 161.152C56.0215 161.352 54.6445 161.451 52.7695 161.451H51.9434H50.3613ZM64.9512 149.129C64.9512 148.484 65.1855 147.928 65.6543 147.459C66.1348 146.99 66.7031 146.756 67.3594 146.756C68.0391 146.756 68.6016 146.984 69.0469 147.441C69.5039 147.887 69.7324 148.449 69.7324 149.129C69.7324 149.809 69.5039 150.383 69.0469 150.852C68.5898 151.309 68.0273 151.537 67.3594 151.537C66.7031 151.537 66.1348 151.303 65.6543 150.834C65.1855 150.354 64.9512 149.785 64.9512 149.129ZM65.4609 173V156.336H69.2754V173H65.4609ZM74.7422 173V156.336H78.3281V159.061C79.0898 157.912 79.9863 157.074 81.0176 156.547C82.0488 156.02 83.3027 155.756 84.7793 155.756C86.0215 155.756 87.0762 155.955 87.9434 156.354C88.8223 156.74 89.5078 157.32 90 158.094C90.293 158.551 90.5039 159.084 90.6328 159.693C90.7617 160.303 90.8262 161.369 90.8262 162.893V173H86.9766V164.439C86.9766 162.248 86.707 160.795 86.168 160.08C85.6406 159.354 84.6973 158.99 83.3379 158.99C82.4473 158.99 81.6504 159.154 80.9473 159.482C80.2559 159.811 79.7109 160.273 79.3125 160.871C79.0312 161.27 78.832 161.785 78.7148 162.418C78.6094 163.039 78.5566 164.035 78.5566 165.406V173H74.7422ZM107.877 164.615C107.877 162.893 107.473 161.551 106.664 160.59C105.867 159.629 104.748 159.148 103.307 159.148C101.865 159.148 100.729 159.646 99.8965 160.643C99.0762 161.627 98.666 162.998 98.666 164.756C98.666 166.525 99.0645 167.891 99.8613 168.852C100.658 169.812 101.783 170.293 103.236 170.293C104.607 170.293 105.721 169.771 106.576 168.729C107.443 167.686 107.877 166.314 107.877 164.615ZM111.586 171.963C111.586 175.221 110.936 177.512 109.635 178.836C108.334 180.172 106.143 180.84 103.061 180.84C100.764 180.84 98.9297 180.354 97.5586 179.381C96.1875 178.42 95.4902 177.137 95.4668 175.531L99.5625 175.514C99.6211 176.229 99.9551 176.773 100.564 177.148C101.174 177.523 102.029 177.711 103.131 177.711C104.76 177.711 105.932 177.354 106.646 176.639C107.361 175.924 107.725 174.729 107.736 173.053L107.771 170.838C107.092 171.799 106.295 172.514 105.381 172.982C104.479 173.451 103.441 173.686 102.27 173.686C99.9141 173.686 98.0566 172.883 96.6973 171.277C95.3496 169.66 94.6758 167.451 94.6758 164.65C94.6758 161.99 95.3672 159.846 96.75 158.217C98.1328 156.576 99.9375 155.756 102.164 155.756C103.523 155.756 104.684 156.043 105.645 156.617C106.617 157.18 107.326 157.994 107.771 159.061V156.336H111.586V171.963ZM118.143 146.686H122.15V167.094H118.143V146.686ZM117.826 171.383C117.826 170.75 118.049 170.211 118.494 169.766C118.951 169.309 119.496 169.08 120.129 169.08C120.773 169.08 121.318 169.303 121.764 169.748C122.209 170.193 122.432 170.738 122.432 171.383C122.432 172.016 122.209 172.555 121.764 173C121.318 173.457 120.773 173.686 120.129 173.686C119.484 173.686 118.939 173.457 118.494 173C118.049 172.555 117.826 172.016 117.826 171.383ZM24.9785 226.186C24.9785 224.885 24.7383 223.648 24.2578 222.477C23.7891 221.305 23.1094 220.262 22.2188 219.348C21.3516 218.445 20.3438 217.754 19.1953 217.273C18.0586 216.781 16.8574 216.535 15.5918 216.535C14.3262 216.535 13.1191 216.775 11.9707 217.256C10.834 217.736 9.82031 218.434 8.92969 219.348C8.03906 220.25 7.35938 221.287 6.89062 222.459C6.42188 223.631 6.1875 224.873 6.1875 226.186C6.1875 227.486 6.42188 228.717 6.89062 229.877C7.35938 231.037 8.03906 232.074 8.92969 232.988C9.82031 233.902 10.834 234.6 11.9707 235.08C13.1074 235.561 14.3145 235.801 15.5918 235.801C16.8457 235.801 18.0352 235.561 19.1602 235.08C20.2969 234.6 21.3164 233.902 22.2188 232.988C23.1094 232.074 23.7891 231.037 24.2578 229.877C24.7383 228.705 24.9785 227.475 24.9785 226.186ZM29.3379 226.186C29.3379 228.014 28.9922 229.742 28.3008 231.371C27.6211 233 26.625 234.453 25.3125 235.73C23.9883 237.008 22.4941 237.986 20.8301 238.666C19.166 239.346 17.4199 239.686 15.5918 239.686C13.7402 239.686 11.9707 239.346 10.2832 238.666C8.60742 237.975 7.125 236.996 5.83594 235.73C4.52344 234.453 3.52734 233.006 2.84766 231.389C2.16797 229.771 1.82812 228.037 1.82812 226.186C1.82812 224.346 2.16797 222.611 2.84766 220.982C3.52734 219.354 4.52344 217.895 5.83594 216.605C7.14844 215.328 8.63672 214.355 10.3008 213.688C11.9648 213.02 13.7285 212.686 15.5918 212.686C17.4434 212.686 19.1953 213.02 20.8477 213.688C22.5117 214.355 24 215.328 25.3125 216.605C26.625 217.906 27.6211 219.377 28.3008 221.018C28.9922 222.646 29.3379 224.369 29.3379 226.186ZM37.5117 222.336V231.723C37.5117 233.34 37.8457 234.5 38.5137 235.203C39.1816 235.906 40.2656 236.258 41.7656 236.258C43.2656 236.258 44.3496 235.906 45.0176 235.203C45.6855 234.5 46.0195 233.34 46.0195 231.723V222.336H49.834V230.58C49.834 233.768 49.1953 236.082 47.918 237.523C46.6406 238.965 44.6016 239.686 41.8008 239.686C38.9531 239.686 36.8906 238.971 35.6133 237.541C34.3359 236.111 33.6973 233.791 33.6973 230.58V222.336H37.5117ZM58.7988 224.99C59.209 223.889 59.748 223.074 60.416 222.547C61.0957 222.02 61.9336 221.756 62.9297 221.756C63.4688 221.756 63.9961 221.82 64.5117 221.949C65.0391 222.078 65.5547 222.266 66.0586 222.512L64.6875 225.746C64.3594 225.512 64.002 225.342 63.6152 225.236C63.2402 225.119 62.8184 225.061 62.3496 225.061C61.084 225.061 60.1758 225.57 59.625 226.59C59.0742 227.598 58.7988 229.297 58.7988 231.688V239H54.9844V222.301H58.7988V224.99ZM82.793 230.615C82.793 232.338 83.2207 233.715 84.0762 234.746C84.9434 235.777 86.0801 236.293 87.4863 236.293C88.9277 236.293 90.041 235.812 90.8262 234.852C91.623 233.891 92.0215 232.525 92.0215 230.756C92.0215 228.998 91.6055 227.627 90.7734 226.643C89.9531 225.646 88.8223 225.148 87.3809 225.148C85.9395 225.148 84.8145 225.629 84.0059 226.59C83.1973 227.551 82.793 228.893 82.793 230.615ZM79.1016 246.84V222.336H82.916V225.061C83.3613 224.006 84.0703 223.191 85.043 222.617C86.0273 222.043 87.1992 221.756 88.5586 221.756C90.7734 221.756 92.5664 222.576 93.9375 224.217C95.3203 225.846 96.0117 227.99 96.0117 230.65C96.0117 233.451 95.332 235.66 93.9727 237.277C92.625 238.883 90.7734 239.686 88.418 239.686C87.2461 239.686 86.2031 239.451 85.2891 238.982C84.3867 238.514 83.5957 237.799 82.916 236.838V246.84H79.1016ZM99.7207 215.129C99.7207 214.484 99.9551 213.928 100.424 213.459C100.904 212.99 101.473 212.756 102.129 212.756C102.809 212.756 103.371 212.984 103.816 213.441C104.273 213.887 104.502 214.449 104.502 215.129C104.502 215.809 104.273 216.383 103.816 216.852C103.359 217.309 102.797 217.537 102.129 217.537C101.473 217.537 100.904 217.303 100.424 216.834C99.9551 216.354 99.7207 215.785 99.7207 215.129ZM100.23 239V222.336H104.045V239H100.23ZM121.957 227.082C121.371 226.438 120.686 225.945 119.9 225.605C119.127 225.266 118.289 225.096 117.387 225.096C115.828 225.096 114.58 225.6 113.643 226.607C112.705 227.615 112.236 228.951 112.236 230.615C112.236 232.35 112.705 233.715 113.643 234.711C114.592 235.695 115.898 236.188 117.562 236.188C118.488 236.188 119.314 236.018 120.041 235.678C120.768 235.326 121.406 234.799 121.957 234.096V238.49C121.254 238.889 120.498 239.188 119.689 239.387C118.893 239.586 118.043 239.686 117.141 239.686C114.527 239.686 112.395 238.854 110.742 237.189C109.102 235.525 108.281 233.369 108.281 230.721C108.281 228.037 109.131 225.875 110.83 224.234C112.541 222.582 114.773 221.756 117.527 221.756C118.395 221.756 119.191 221.844 119.918 222.02C120.645 222.184 121.324 222.441 121.957 222.793V227.082ZM125.859 239V211.754H129.674V229.244L136.652 222.336H141.363L133.805 229.684L142.084 239H137.162L129.674 230.404V239H125.859ZM148.148 222.336V231.723C148.148 233.34 148.482 234.5 149.15 235.203C149.818 235.906 150.902 236.258 152.402 236.258C153.902 236.258 154.986 235.906 155.654 235.203C156.322 234.5 156.656 233.34 156.656 231.723V222.336H160.471V230.58C160.471 233.768 159.832 236.082 158.555 237.523C157.277 238.965 155.238 239.686 152.438 239.686C149.59 239.686 147.527 238.971 146.25 237.541C144.973 236.111 144.334 233.791 144.334 230.58V222.336H148.148ZM169.312 230.615C169.312 232.338 169.74 233.715 170.596 234.746C171.463 235.777 172.6 236.293 174.006 236.293C175.447 236.293 176.561 235.812 177.346 234.852C178.143 233.891 178.541 232.525 178.541 230.756C178.541 228.998 178.125 227.627 177.293 226.643C176.473 225.646 175.342 225.148 173.9 225.148C172.459 225.148 171.334 225.629 170.525 226.59C169.717 227.551 169.312 228.893 169.312 230.615ZM165.621 246.84V222.336H169.436V225.061C169.881 224.006 170.59 223.191 171.562 222.617C172.547 222.043 173.719 221.756 175.078 221.756C177.293 221.756 179.086 222.576 180.457 224.217C181.84 225.846 182.531 227.99 182.531 230.65C182.531 233.451 181.852 235.66 180.492 237.277C179.145 238.883 177.293 239.686 174.938 239.686C173.766 239.686 172.723 239.451 171.809 238.982C170.906 238.514 170.115 237.799 169.436 236.838V246.84H165.621ZM213.117 239H209.303V236.838C208.623 237.799 207.826 238.514 206.912 238.982C206.01 239.451 204.973 239.686 203.801 239.686C201.445 239.686 199.588 238.883 198.229 237.277C196.881 235.66 196.207 233.451 196.207 230.65C196.207 227.99 196.898 225.846 198.281 224.217C199.664 222.576 201.469 221.756 203.695 221.756C205.055 221.756 206.215 222.043 207.176 222.617C208.148 223.18 208.857 223.994 209.303 225.061V222.336H213.117V239ZM209.408 230.615C209.408 228.893 209.004 227.551 208.195 226.59C207.398 225.629 206.279 225.148 204.838 225.148C203.396 225.148 202.26 225.646 201.428 226.643C200.607 227.627 200.197 228.998 200.197 230.756C200.197 232.525 200.596 233.891 201.393 234.852C202.189 235.812 203.314 236.293 204.768 236.293C206.139 236.293 207.252 235.771 208.107 234.729C208.975 233.686 209.408 232.314 209.408 230.615ZM230.361 230.615C230.361 228.893 229.957 227.551 229.148 226.59C228.352 225.629 227.232 225.148 225.791 225.148C224.35 225.148 223.213 225.646 222.381 226.643C221.561 227.627 221.15 228.998 221.15 230.756C221.15 232.525 221.549 233.891 222.346 234.852C223.143 235.812 224.268 236.293 225.721 236.293C227.092 236.293 228.205 235.771 229.061 234.729C229.928 233.686 230.361 232.314 230.361 230.615ZM234.07 237.963C234.07 241.221 233.42 243.512 232.119 244.836C230.818 246.172 228.627 246.84 225.545 246.84C223.248 246.84 221.414 246.354 220.043 245.381C218.672 244.42 217.975 243.137 217.951 241.531L222.047 241.514C222.105 242.229 222.439 242.773 223.049 243.148C223.658 243.523 224.514 243.711 225.615 243.711C227.244 243.711 228.416 243.354 229.131 242.639C229.846 241.924 230.209 240.729 230.221 239.053L230.256 236.838C229.576 237.799 228.779 238.514 227.865 238.982C226.963 239.451 225.926 239.686 224.754 239.686C222.398 239.686 220.541 238.883 219.182 237.277C217.834 235.66 217.16 233.451 217.16 230.65C217.16 227.99 217.852 225.846 219.234 224.217C220.617 222.576 222.422 221.756 224.648 221.756C226.008 221.756 227.168 222.043 228.129 222.617C229.102 223.18 229.811 223.994 230.256 225.061V222.336H234.07V237.963ZM255.393 231.23H242.068C242.162 232.789 242.625 234.008 243.457 234.887C244.289 235.754 245.396 236.188 246.779 236.188C248.01 236.188 249.035 235.93 249.855 235.414C250.676 234.898 251.391 234.066 252 232.918L255.217 234.711C254.279 236.387 253.119 237.635 251.736 238.455C250.354 239.275 248.73 239.686 246.867 239.686C244.195 239.686 242.068 238.871 240.486 237.242C238.904 235.613 238.113 233.439 238.113 230.721C238.113 228.107 238.928 225.963 240.557 224.287C242.197 222.6 244.301 221.756 246.867 221.756C249.551 221.756 251.643 222.523 253.143 224.059C254.643 225.594 255.393 227.744 255.393 230.51V231.23ZM251.438 228.664C251.285 227.469 250.828 226.561 250.066 225.939C249.305 225.307 248.262 224.99 246.938 224.99C245.684 224.99 244.676 225.295 243.914 225.904C243.152 226.514 242.619 227.434 242.314 228.664H251.438ZM259.383 239V222.336H262.969V225.061C263.73 223.912 264.627 223.074 265.658 222.547C266.689 222.02 267.943 221.756 269.42 221.756C270.662 221.756 271.717 221.955 272.584 222.354C273.463 222.74 274.148 223.32 274.641 224.094C274.934 224.551 275.145 225.084 275.273 225.693C275.402 226.303 275.467 227.369 275.467 228.893V239H271.617V230.439C271.617 228.248 271.348 226.795 270.809 226.08C270.281 225.354 269.338 224.99 267.979 224.99C267.088 224.99 266.291 225.154 265.588 225.482C264.896 225.811 264.352 226.273 263.953 226.871C263.672 227.27 263.473 227.785 263.355 228.418C263.25 229.039 263.197 230.035 263.197 231.406V239H259.383ZM281.443 239V225.676H278.525V222.336H281.443V216.025H285.258V222.336H288.176V225.676H285.258V239H281.443ZM289.564 235.977L292.729 234.254C292.963 235.086 293.396 235.719 294.029 236.152C294.662 236.586 295.477 236.803 296.473 236.803C297.328 236.803 297.996 236.609 298.477 236.223C298.969 235.824 299.215 235.285 299.215 234.605C299.215 233.703 298.348 232.93 296.613 232.285C296.027 232.074 295.576 231.898 295.26 231.758C293.479 231.02 292.23 230.27 291.516 229.508C290.812 228.746 290.461 227.82 290.461 226.73C290.461 225.242 291.041 224.035 292.201 223.109C293.373 222.184 294.92 221.721 296.842 221.721C298.131 221.721 299.232 221.961 300.146 222.441C301.072 222.91 301.746 223.584 302.168 224.463L299.461 226.326C299.262 225.799 298.91 225.383 298.406 225.078C297.914 224.762 297.34 224.604 296.684 224.604C295.957 224.604 295.371 224.779 294.926 225.131C294.492 225.471 294.275 225.928 294.275 226.502C294.275 227.369 295.26 228.16 297.229 228.875C297.85 229.098 298.33 229.279 298.67 229.42C300.205 230.029 301.301 230.721 301.957 231.494C302.625 232.256 302.959 233.211 302.959 234.359C302.959 236.023 302.355 237.33 301.148 238.279C299.941 239.217 298.277 239.686 296.156 239.686C294.527 239.686 293.174 239.381 292.096 238.771C291.018 238.162 290.174 237.23 289.564 235.977ZM330.117 227.082C329.531 226.438 328.846 225.945 328.061 225.605C327.287 225.266 326.449 225.096 325.547 225.096C323.988 225.096 322.74 225.6 321.803 226.607C320.865 227.615 320.396 228.951 320.396 230.615C320.396 232.35 320.865 233.715 321.803 234.711C322.752 235.695 324.059 236.188 325.723 236.188C326.648 236.188 327.475 236.018 328.201 235.678C328.928 235.326 329.566 234.799 330.117 234.096V238.49C329.414 238.889 328.658 239.188 327.85 239.387C327.053 239.586 326.203 239.686 325.301 239.686C322.688 239.686 320.555 238.854 318.902 237.189C317.262 235.525 316.441 233.369 316.441 230.721C316.441 228.037 317.291 225.875 318.99 224.234C320.701 222.582 322.934 221.756 325.688 221.756C326.555 221.756 327.352 221.844 328.078 222.02C328.805 222.184 329.484 222.441 330.117 222.793V227.082ZM334.195 239V211.754H338.01V239H334.195ZM356.572 230.721C356.572 229.174 356.074 227.867 355.078 226.801C354.082 225.723 352.863 225.184 351.422 225.184C349.992 225.184 348.773 225.723 347.766 226.801C346.77 227.867 346.271 229.174 346.271 230.721C346.271 232.268 346.77 233.58 347.766 234.658C348.773 235.725 349.992 236.258 351.422 236.258C352.852 236.258 354.064 235.725 355.061 234.658C356.068 233.58 356.572 232.268 356.572 230.721ZM342.246 230.686C342.246 229.467 342.475 228.318 342.932 227.24C343.4 226.15 344.068 225.184 344.936 224.34C345.791 223.508 346.775 222.869 347.889 222.424C349.002 221.979 350.168 221.756 351.387 221.756C352.641 221.756 353.818 221.979 354.92 222.424C356.033 222.869 357.029 223.525 357.908 224.393C358.787 225.248 359.455 226.215 359.912 227.293C360.369 228.371 360.598 229.502 360.598 230.686C360.598 231.916 360.369 233.07 359.912 234.148C359.467 235.227 358.811 236.182 357.943 237.014C357.029 237.893 356.016 238.555 354.902 239C353.789 239.457 352.617 239.686 351.387 239.686C350.18 239.686 349.02 239.457 347.906 239C346.793 238.555 345.803 237.904 344.936 237.049C344.057 236.182 343.389 235.209 342.932 234.131C342.475 233.053 342.246 231.904 342.246 230.686ZM362.725 235.977L365.889 234.254C366.123 235.086 366.557 235.719 367.189 236.152C367.822 236.586 368.637 236.803 369.633 236.803C370.488 236.803 371.156 236.609 371.637 236.223C372.129 235.824 372.375 235.285 372.375 234.605C372.375 233.703 371.508 232.93 369.773 232.285C369.188 232.074 368.736 231.898 368.42 231.758C366.639 231.02 365.391 230.27 364.676 229.508C363.973 228.746 363.621 227.82 363.621 226.73C363.621 225.242 364.201 224.035 365.361 223.109C366.533 222.184 368.08 221.721 370.002 221.721C371.291 221.721 372.393 221.961 373.307 222.441C374.232 222.91 374.906 223.584 375.328 224.463L372.621 226.326C372.422 225.799 372.07 225.383 371.566 225.078C371.074 224.762 370.5 224.604 369.844 224.604C369.117 224.604 368.531 224.779 368.086 225.131C367.652 225.471 367.436 225.928 367.436 226.502C367.436 227.369 368.42 228.16 370.389 228.875C371.01 229.098 371.49 229.279 371.83 229.42C373.365 230.029 374.461 230.721 375.117 231.494C375.785 232.256 376.119 233.211 376.119 234.359C376.119 236.023 375.516 237.33 374.309 238.279C373.102 239.217 371.438 239.686 369.316 239.686C367.688 239.686 366.334 239.381 365.256 238.771C364.178 238.162 363.334 237.23 362.725 235.977ZM396.018 231.23H382.693C382.787 232.789 383.25 234.008 384.082 234.887C384.914 235.754 386.021 236.188 387.404 236.188C388.635 236.188 389.66 235.93 390.48 235.414C391.301 234.898 392.016 234.066 392.625 232.918L395.842 234.711C394.904 236.387 393.744 237.635 392.361 238.455C390.979 239.275 389.355 239.686 387.492 239.686C384.82 239.686 382.693 238.871 381.111 237.242C379.529 235.613 378.738 233.439 378.738 230.721C378.738 228.107 379.553 225.963 381.182 224.287C382.822 222.6 384.926 221.756 387.492 221.756C390.176 221.756 392.268 222.523 393.768 224.059C395.268 225.594 396.018 227.744 396.018 230.51V231.23ZM392.062 228.664C391.91 227.469 391.453 226.561 390.691 225.939C389.93 225.307 388.887 224.99 387.562 224.99C386.309 224.99 385.301 225.295 384.539 225.904C383.777 226.514 383.244 227.434 382.939 228.664H392.062ZM398.092 235.977L401.256 234.254C401.49 235.086 401.924 235.719 402.557 236.152C403.189 236.586 404.004 236.803 405 236.803C405.855 236.803 406.523 236.609 407.004 236.223C407.496 235.824 407.742 235.285 407.742 234.605C407.742 233.703 406.875 232.93 405.141 232.285C404.555 232.074 404.104 231.898 403.787 231.758C402.006 231.02 400.758 230.27 400.043 229.508C399.34 228.746 398.988 227.82 398.988 226.73C398.988 225.242 399.568 224.035 400.729 223.109C401.9 222.184 403.447 221.721 405.369 221.721C406.658 221.721 407.76 221.961 408.674 222.441C409.6 222.91 410.273 223.584 410.695 224.463L407.988 226.326C407.789 225.799 407.438 225.383 406.934 225.078C406.441 224.762 405.867 224.604 405.211 224.604C404.484 224.604 403.898 224.779 403.453 225.131C403.02 225.471 402.803 225.928 402.803 226.502C402.803 227.369 403.787 228.16 405.756 228.875C406.377 229.098 406.857 229.279 407.197 229.42C408.732 230.029 409.828 230.721 410.484 231.494C411.152 232.256 411.486 233.211 411.486 234.359C411.486 236.023 410.883 237.33 409.676 238.279C408.469 239.217 406.805 239.686 404.684 239.686C403.055 239.686 401.701 239.381 400.623 238.771C399.545 238.162 398.701 237.23 398.092 235.977ZM416.232 239V225.676H413.314V222.336H416.232V216.025H420.047V222.336H422.965V225.676H420.047V239H416.232ZM438.029 239V225.676H435.111V222.336H438.029V216.025H441.844V222.336H444.762V225.676H441.844V239H438.029ZM461.162 230.721C461.162 229.174 460.664 227.867 459.668 226.801C458.672 225.723 457.453 225.184 456.012 225.184C454.582 225.184 453.363 225.723 452.355 226.801C451.359 227.867 450.861 229.174 450.861 230.721C450.861 232.268 451.359 233.58 452.355 234.658C453.363 235.725 454.582 236.258 456.012 236.258C457.441 236.258 458.654 235.725 459.65 234.658C460.658 233.58 461.162 232.268 461.162 230.721ZM446.836 230.686C446.836 229.467 447.064 228.318 447.521 227.24C447.99 226.15 448.658 225.184 449.525 224.34C450.381 223.508 451.365 222.869 452.479 222.424C453.592 221.979 454.758 221.756 455.977 221.756C457.23 221.756 458.408 221.979 459.51 222.424C460.623 222.869 461.619 223.525 462.498 224.393C463.377 225.248 464.045 226.215 464.502 227.293C464.959 228.371 465.188 229.502 465.188 230.686C465.188 231.916 464.959 233.07 464.502 234.148C464.057 235.227 463.4 236.182 462.533 237.014C461.619 237.893 460.605 238.555 459.492 239C458.379 239.457 457.207 239.686 455.977 239.686C454.77 239.686 453.609 239.457 452.496 239C451.383 238.555 450.393 237.904 449.525 237.049C448.646 236.182 447.979 235.209 447.521 234.131C447.064 233.053 446.836 231.904 446.836 230.686ZM482.959 246.84H479.039L483.609 237.559L477.492 222.336H481.711L484.77 230.967C484.945 231.494 485.098 232.033 485.227 232.584C485.367 233.123 485.479 233.674 485.561 234.236C485.713 233.65 486.076 232.719 486.65 231.441L486.738 231.23L490.852 222.336H494.982L482.959 246.84ZM510.17 230.721C510.17 229.174 509.672 227.867 508.676 226.801C507.68 225.723 506.461 225.184 505.02 225.184C503.59 225.184 502.371 225.723 501.363 226.801C500.367 227.867 499.869 229.174 499.869 230.721C499.869 232.268 500.367 233.58 501.363 234.658C502.371 235.725 503.59 236.258 505.02 236.258C506.449 236.258 507.662 235.725 508.658 234.658C509.666 233.58 510.17 232.268 510.17 230.721ZM495.844 230.686C495.844 229.467 496.072 228.318 496.529 227.24C496.998 226.15 497.666 225.184 498.533 224.34C499.389 223.508 500.373 222.869 501.486 222.424C502.6 221.979 503.766 221.756 504.984 221.756C506.238 221.756 507.416 221.979 508.518 222.424C509.631 222.869 510.627 223.525 511.506 224.393C512.385 225.248 513.053 226.215 513.51 227.293C513.967 228.371 514.195 229.502 514.195 230.686C514.195 231.916 513.967 233.07 513.51 234.148C513.064 235.227 512.408 236.182 511.541 237.014C510.627 237.893 509.613 238.555 508.5 239C507.387 239.457 506.215 239.686 504.984 239.686C503.777 239.686 502.617 239.457 501.504 239C500.391 238.555 499.4 237.904 498.533 237.049C497.654 236.182 496.986 235.209 496.529 234.131C496.072 233.053 495.844 231.904 495.844 230.686ZM521.93 222.336V231.723C521.93 233.34 522.264 234.5 522.932 235.203C523.6 235.906 524.684 236.258 526.184 236.258C527.684 236.258 528.768 235.906 529.436 235.203C530.104 234.5 530.438 233.34 530.438 231.723V222.336H534.252V230.58C534.252 233.768 533.613 236.082 532.336 237.523C531.059 238.965 529.02 239.686 526.219 239.686C523.371 239.686 521.309 238.971 520.031 237.541C518.754 236.111 518.115 233.791 518.115 230.58V222.336H521.93ZM14.6074 296.615C14.6074 294.893 14.2031 293.551 13.3945 292.59C12.5977 291.629 11.4785 291.148 10.0371 291.148C8.5957 291.148 7.45898 291.646 6.62695 292.643C5.80664 293.627 5.39648 294.998 5.39648 296.756C5.39648 298.525 5.79492 299.891 6.5918 300.852C7.38867 301.812 8.51367 302.293 9.9668 302.293C11.3379 302.293 12.4512 301.771 13.3066 300.729C14.1738 299.686 14.6074 298.314 14.6074 296.615ZM18.3164 303.963C18.3164 307.221 17.666 309.512 16.3652 310.836C15.0645 312.172 12.873 312.84 9.79102 312.84C7.49414 312.84 5.66016 312.354 4.28906 311.381C2.91797 310.42 2.2207 309.137 2.19727 307.531L6.29297 307.514C6.35156 308.229 6.68555 308.773 7.29492 309.148C7.9043 309.523 8.75977 309.711 9.86133 309.711C11.4902 309.711 12.6621 309.354 13.377 308.639C14.0918 307.924 14.4551 306.729 14.4668 305.053L14.502 302.838C13.8223 303.799 13.0254 304.514 12.1113 304.982C11.209 305.451 10.1719 305.686 9 305.686C6.64453 305.686 4.78711 304.883 3.42773 303.277C2.08008 301.66 1.40625 299.451 1.40625 296.65C1.40625 293.99 2.09766 291.846 3.48047 290.217C4.86328 288.576 6.66797 287.756 8.89453 287.756C10.2539 287.756 11.4141 288.043 12.375 288.617C13.3477 289.18 14.0566 289.994 14.502 291.061V288.336H18.3164V303.963ZM39.6387 297.23H26.3145C26.4082 298.789 26.8711 300.008 27.7031 300.887C28.5352 301.754 29.6426 302.188 31.0254 302.188C32.2559 302.188 33.2812 301.93 34.1016 301.414C34.9219 300.898 35.6367 300.066 36.2461 298.918L39.4629 300.711C38.5254 302.387 37.3652 303.635 35.9824 304.455C34.5996 305.275 32.9766 305.686 31.1133 305.686C28.4414 305.686 26.3145 304.871 24.7324 303.242C23.1504 301.613 22.3594 299.439 22.3594 296.721C22.3594 294.107 23.1738 291.963 24.8027 290.287C26.4434 288.6 28.5469 287.756 31.1133 287.756C33.7969 287.756 35.8887 288.523 37.3887 290.059C38.8887 291.594 39.6387 293.744 39.6387 296.51V297.23ZM35.6836 294.664C35.5312 293.469 35.0742 292.561 34.3125 291.939C33.5508 291.307 32.5078 290.99 31.1836 290.99C29.9297 290.99 28.9219 291.295 28.1602 291.904C27.3984 292.514 26.8652 293.434 26.5605 294.664H35.6836ZM44.5254 305V291.676H41.6074V288.336H44.5254V282.025H48.3398V288.336H51.2578V291.676H48.3398V305H44.5254ZM52.6465 301.977L55.8105 300.254C56.0449 301.086 56.4785 301.719 57.1113 302.152C57.7441 302.586 58.5586 302.803 59.5547 302.803C60.4102 302.803 61.0781 302.609 61.5586 302.223C62.0508 301.824 62.2969 301.285 62.2969 300.605C62.2969 299.703 61.4297 298.93 59.6953 298.285C59.1094 298.074 58.6582 297.898 58.3418 297.758C56.5605 297.02 55.3125 296.27 54.5977 295.508C53.8945 294.746 53.543 293.82 53.543 292.73C53.543 291.242 54.123 290.035 55.2832 289.109C56.4551 288.184 58.002 287.721 59.9238 287.721C61.2129 287.721 62.3145 287.961 63.2285 288.441C64.1543 288.91 64.8281 289.584 65.25 290.463L62.543 292.326C62.3438 291.799 61.9922 291.383 61.4883 291.078C60.9961 290.762 60.4219 290.604 59.7656 290.604C59.0391 290.604 58.4531 290.779 58.0078 291.131C57.5742 291.471 57.3574 291.928 57.3574 292.502C57.3574 293.369 58.3418 294.16 60.3105 294.875C60.9316 295.098 61.4121 295.279 61.752 295.42C63.2871 296.029 64.3828 296.721 65.0391 297.494C65.707 298.256 66.041 299.211 66.041 300.359C66.041 302.023 65.4375 303.33 64.2305 304.279C63.0234 305.217 61.3594 305.686 59.2383 305.686C57.6094 305.686 56.2559 305.381 55.1777 304.771C54.0996 304.162 53.2559 303.23 52.6465 301.977ZM93.1992 293.082C92.6133 292.438 91.9277 291.945 91.1426 291.605C90.3691 291.266 89.5312 291.096 88.6289 291.096C87.0703 291.096 85.8223 291.6 84.8848 292.607C83.9473 293.615 83.4785 294.951 83.4785 296.615C83.4785 298.35 83.9473 299.715 84.8848 300.711C85.834 301.695 87.1406 302.188 88.8047 302.188C89.7305 302.188 90.5566 302.018 91.2832 301.678C92.0098 301.326 92.6484 300.799 93.1992 300.096V304.49C92.4961 304.889 91.7402 305.188 90.9316 305.387C90.1348 305.586 89.2852 305.686 88.3828 305.686C85.7695 305.686 83.6367 304.854 81.9844 303.189C80.3438 301.525 79.5234 299.369 79.5234 296.721C79.5234 294.037 80.373 291.875 82.0723 290.234C83.7832 288.582 86.0156 287.756 88.7695 287.756C89.6367 287.756 90.4336 287.844 91.1602 288.02C91.8867 288.184 92.5664 288.441 93.1992 288.793V293.082ZM110.197 296.721C110.197 295.174 109.699 293.867 108.703 292.801C107.707 291.723 106.488 291.184 105.047 291.184C103.617 291.184 102.398 291.723 101.391 292.801C100.395 293.867 99.8965 295.174 99.8965 296.721C99.8965 298.268 100.395 299.58 101.391 300.658C102.398 301.725 103.617 302.258 105.047 302.258C106.477 302.258 107.689 301.725 108.686 300.658C109.693 299.58 110.197 298.268 110.197 296.721ZM95.8711 296.686C95.8711 295.467 96.0996 294.318 96.5566 293.24C97.0254 292.15 97.6934 291.184 98.5605 290.34C99.416 289.508 100.4 288.869 101.514 288.424C102.627 287.979 103.793 287.756 105.012 287.756C106.266 287.756 107.443 287.979 108.545 288.424C109.658 288.869 110.654 289.525 111.533 290.393C112.412 291.248 113.08 292.215 113.537 293.293C113.994 294.371 114.223 295.502 114.223 296.686C114.223 297.916 113.994 299.07 113.537 300.148C113.092 301.227 112.436 302.182 111.568 303.014C110.654 303.893 109.641 304.555 108.527 305C107.414 305.457 106.242 305.686 105.012 305.686C103.805 305.686 102.645 305.457 101.531 305C100.418 304.555 99.4277 303.904 98.5605 303.049C97.6816 302.182 97.0137 301.209 96.5566 300.131C96.0996 299.053 95.8711 297.904 95.8711 296.686ZM118.266 305V288.336H121.852V291.061C122.613 289.912 123.51 289.074 124.541 288.547C125.572 288.02 126.826 287.756 128.303 287.756C129.545 287.756 130.6 287.955 131.467 288.354C132.346 288.74 133.031 289.32 133.523 290.094C133.816 290.551 134.027 291.084 134.156 291.693C134.285 292.303 134.35 293.369 134.35 294.893V305H130.5V296.439C130.5 294.248 130.23 292.795 129.691 292.08C129.164 291.354 128.221 290.99 126.861 290.99C125.971 290.99 125.174 291.154 124.471 291.482C123.779 291.811 123.234 292.273 122.836 292.871C122.555 293.27 122.355 293.785 122.238 294.418C122.133 295.039 122.08 296.035 122.08 297.406V305H118.266ZM139.43 305V288.336H143.016V291.061C143.777 289.912 144.674 289.074 145.705 288.547C146.736 288.02 147.99 287.756 149.467 287.756C150.709 287.756 151.764 287.955 152.631 288.354C153.51 288.74 154.195 289.32 154.688 290.094C154.98 290.551 155.191 291.084 155.32 291.693C155.449 292.303 155.514 293.369 155.514 294.893V305H151.664V296.439C151.664 294.248 151.395 292.795 150.855 292.08C150.328 291.354 149.385 290.99 148.025 290.99C147.135 290.99 146.338 291.154 145.635 291.482C144.943 291.811 144.398 292.273 144 292.871C143.719 293.27 143.52 293.785 143.402 294.418C143.297 295.039 143.244 296.035 143.244 297.406V305H139.43ZM176.643 297.23H163.318C163.412 298.789 163.875 300.008 164.707 300.887C165.539 301.754 166.646 302.188 168.029 302.188C169.26 302.188 170.285 301.93 171.105 301.414C171.926 300.898 172.641 300.066 173.25 298.918L176.467 300.711C175.529 302.387 174.369 303.635 172.986 304.455C171.604 305.275 169.98 305.686 168.117 305.686C165.445 305.686 163.318 304.871 161.736 303.242C160.154 301.613 159.363 299.439 159.363 296.721C159.363 294.107 160.178 291.963 161.807 290.287C163.447 288.6 165.551 287.756 168.117 287.756C170.801 287.756 172.893 288.523 174.393 290.059C175.893 291.594 176.643 293.744 176.643 296.51V297.23ZM172.688 294.664C172.535 293.469 172.078 292.561 171.316 291.939C170.555 291.307 169.512 290.99 168.188 290.99C166.934 290.99 165.926 291.295 165.164 291.904C164.402 292.514 163.869 293.434 163.564 294.664H172.688ZM193.078 293.082C192.492 292.438 191.807 291.945 191.021 291.605C190.248 291.266 189.41 291.096 188.508 291.096C186.949 291.096 185.701 291.6 184.764 292.607C183.826 293.615 183.357 294.951 183.357 296.615C183.357 298.35 183.826 299.715 184.764 300.711C185.713 301.695 187.02 302.188 188.684 302.188C189.609 302.188 190.436 302.018 191.162 301.678C191.889 301.326 192.527 300.799 193.078 300.096V304.49C192.375 304.889 191.619 305.188 190.811 305.387C190.014 305.586 189.164 305.686 188.262 305.686C185.648 305.686 183.516 304.854 181.863 303.189C180.223 301.525 179.402 299.369 179.402 296.721C179.402 294.037 180.252 291.875 181.951 290.234C183.662 288.582 185.895 287.756 188.648 287.756C189.516 287.756 190.312 287.844 191.039 288.02C191.766 288.184 192.445 288.441 193.078 288.793V293.082ZM197.877 305V291.676H194.959V288.336H197.877V282.025H201.691V288.336H204.609V291.676H201.691V305H197.877ZM223.963 297.23H210.639C210.732 298.789 211.195 300.008 212.027 300.887C212.859 301.754 213.967 302.188 215.35 302.188C216.58 302.188 217.605 301.93 218.426 301.414C219.246 300.898 219.961 300.066 220.57 298.918L223.787 300.711C222.85 302.387 221.689 303.635 220.307 304.455C218.924 305.275 217.301 305.686 215.438 305.686C212.766 305.686 210.639 304.871 209.057 303.242C207.475 301.613 206.684 299.439 206.684 296.721C206.684 294.107 207.498 291.963 209.127 290.287C210.768 288.6 212.871 287.756 215.438 287.756C218.121 287.756 220.213 288.523 221.713 290.059C223.213 291.594 223.963 293.744 223.963 296.51V297.23ZM220.008 294.664C219.855 293.469 219.398 292.561 218.637 291.939C217.875 291.307 216.832 290.99 215.508 290.99C214.254 290.99 213.246 291.295 212.484 291.904C211.723 292.514 211.189 293.434 210.885 294.664H220.008ZM239.924 296.615C239.924 294.893 239.52 293.551 238.711 292.59C237.914 291.629 236.795 291.148 235.354 291.148C233.912 291.148 232.775 291.646 231.943 292.643C231.123 293.627 230.713 294.998 230.713 296.756C230.713 298.525 231.111 299.891 231.908 300.852C232.705 301.812 233.83 302.293 235.283 302.293C236.666 302.293 237.785 301.777 238.641 300.746C239.496 299.703 239.924 298.326 239.924 296.615ZM239.818 277.754H243.633V305H239.818V302.838C239.139 303.799 238.342 304.514 237.428 304.982C236.525 305.451 235.488 305.686 234.316 305.686C231.961 305.686 230.104 304.883 228.744 303.277C227.396 301.66 226.723 299.451 226.723 296.65C226.723 293.99 227.414 291.846 228.797 290.217C230.18 288.576 231.984 287.756 234.211 287.756C235.57 287.756 236.73 288.043 237.691 288.617C238.664 289.18 239.373 289.994 239.818 291.061V277.754ZM259.436 281.129C259.436 280.484 259.67 279.928 260.139 279.459C260.619 278.99 261.188 278.756 261.844 278.756C262.523 278.756 263.086 278.984 263.531 279.441C263.988 279.887 264.217 280.449 264.217 281.129C264.217 281.809 263.988 282.383 263.531 282.852C263.074 283.309 262.512 283.537 261.844 283.537C261.188 283.537 260.619 283.303 260.139 282.834C259.67 282.354 259.436 281.785 259.436 281.129ZM259.945 305V288.336H263.76V305H259.945ZM273.041 305H269.227V288.336H272.812V291.061C273.574 289.9 274.436 289.057 275.396 288.529C276.369 287.99 277.512 287.721 278.824 287.721C280.125 287.721 281.203 287.996 282.059 288.547C282.914 289.086 283.564 289.912 284.01 291.025C284.889 289.877 285.82 289.039 286.805 288.512C287.801 287.984 288.932 287.721 290.197 287.721C291.299 287.721 292.26 287.926 293.08 288.336C293.9 288.734 294.539 289.32 294.996 290.094C295.207 290.457 295.359 290.891 295.453 291.395C295.559 291.898 295.611 292.619 295.611 293.557V294.893V305H291.797V296.439C291.797 294.201 291.557 292.73 291.076 292.027C290.607 291.312 289.764 290.955 288.545 290.955C287.045 290.955 285.973 291.436 285.328 292.396C284.695 293.346 284.379 295.016 284.379 297.406V305H280.529V296.439C280.529 294.377 280.277 292.947 279.773 292.15C279.281 291.354 278.426 290.955 277.207 290.955C276.457 290.955 275.771 291.125 275.15 291.465C274.529 291.805 274.037 292.273 273.674 292.871C273.439 293.258 273.275 293.732 273.182 294.295C273.088 294.857 273.041 295.895 273.041 297.406V305ZM304.541 305H300.727V288.336H304.312V291.061C305.074 289.9 305.936 289.057 306.896 288.529C307.869 287.99 309.012 287.721 310.324 287.721C311.625 287.721 312.703 287.996 313.559 288.547C314.414 289.086 315.064 289.912 315.51 291.025C316.389 289.877 317.32 289.039 318.305 288.512C319.301 287.984 320.432 287.721 321.697 287.721C322.799 287.721 323.76 287.926 324.58 288.336C325.4 288.734 326.039 289.32 326.496 290.094C326.707 290.457 326.859 290.891 326.953 291.395C327.059 291.898 327.111 292.619 327.111 293.557V294.893V305H323.297V296.439C323.297 294.201 323.057 292.73 322.576 292.027C322.107 291.312 321.264 290.955 320.045 290.955C318.545 290.955 317.473 291.436 316.828 292.396C316.195 293.346 315.879 295.016 315.879 297.406V305H312.029V296.439C312.029 294.377 311.777 292.947 311.273 292.15C310.781 291.354 309.926 290.955 308.707 290.955C307.957 290.955 307.271 291.125 306.65 291.465C306.029 291.805 305.537 292.273 305.174 292.871C304.939 293.258 304.775 293.732 304.682 294.295C304.588 294.857 304.541 295.895 304.541 297.406V305ZM348.275 297.23H334.951C335.045 298.789 335.508 300.008 336.34 300.887C337.172 301.754 338.279 302.188 339.662 302.188C340.893 302.188 341.918 301.93 342.738 301.414C343.559 300.898 344.273 300.066 344.883 298.918L348.1 300.711C347.162 302.387 346.002 303.635 344.619 304.455C343.236 305.275 341.613 305.686 339.75 305.686C337.078 305.686 334.951 304.871 333.369 303.242C331.787 301.613 330.996 299.439 330.996 296.721C330.996 294.107 331.811 291.963 333.439 290.287C335.08 288.6 337.184 287.756 339.75 287.756C342.434 287.756 344.525 288.523 346.025 290.059C347.525 291.594 348.275 293.744 348.275 296.51V297.23ZM344.32 294.664C344.168 293.469 343.711 292.561 342.949 291.939C342.188 291.307 341.145 290.99 339.82 290.99C338.566 290.99 337.559 291.295 336.797 291.904C336.035 292.514 335.502 293.434 335.197 294.664H344.32ZM364.236 296.615C364.236 294.893 363.832 293.551 363.023 292.59C362.227 291.629 361.107 291.148 359.666 291.148C358.225 291.148 357.088 291.646 356.256 292.643C355.436 293.627 355.025 294.998 355.025 296.756C355.025 298.525 355.424 299.891 356.221 300.852C357.018 301.812 358.143 302.293 359.596 302.293C360.979 302.293 362.098 301.777 362.953 300.746C363.809 299.703 364.236 298.326 364.236 296.615ZM364.131 277.754H367.945V305H364.131V302.838C363.451 303.799 362.654 304.514 361.74 304.982C360.838 305.451 359.801 305.686 358.629 305.686C356.273 305.686 354.416 304.883 353.057 303.277C351.709 301.66 351.035 299.451 351.035 296.65C351.035 293.99 351.727 291.846 353.109 290.217C354.492 288.576 356.297 287.756 358.523 287.756C359.883 287.756 361.043 288.043 362.004 288.617C362.977 289.18 363.686 289.994 364.131 291.061V277.754ZM372.885 281.129C372.885 280.484 373.119 279.928 373.588 279.459C374.068 278.99 374.637 278.756 375.293 278.756C375.973 278.756 376.535 278.984 376.98 279.441C377.438 279.887 377.666 280.449 377.666 281.129C377.666 281.809 377.438 282.383 376.98 282.852C376.523 283.309 375.961 283.537 375.293 283.537C374.637 283.537 374.068 283.303 373.588 282.834C373.119 282.354 372.885 281.785 372.885 281.129ZM373.395 305V288.336H377.209V305H373.395ZM398.355 305H394.541V302.838C393.861 303.799 393.064 304.514 392.15 304.982C391.248 305.451 390.211 305.686 389.039 305.686C386.684 305.686 384.826 304.883 383.467 303.277C382.119 301.66 381.445 299.451 381.445 296.65C381.445 293.99 382.137 291.846 383.52 290.217C384.902 288.576 386.707 287.756 388.934 287.756C390.293 287.756 391.453 288.043 392.414 288.617C393.387 289.18 394.096 289.994 394.541 291.061V288.336H398.355V305ZM394.646 296.615C394.646 294.893 394.242 293.551 393.434 292.59C392.637 291.629 391.518 291.148 390.076 291.148C388.635 291.148 387.498 291.646 386.666 292.643C385.846 293.627 385.436 294.998 385.436 296.756C385.436 298.525 385.834 299.891 386.631 300.852C387.428 301.812 388.553 302.293 390.006 302.293C391.377 302.293 392.49 301.771 393.346 300.729C394.213 299.686 394.646 298.314 394.646 296.615ZM404.525 305V291.676H401.607V288.336H404.525V282.025H408.34V288.336H411.258V291.676H408.34V305H404.525ZM430.611 297.23H417.287C417.381 298.789 417.844 300.008 418.676 300.887C419.508 301.754 420.615 302.188 421.998 302.188C423.229 302.188 424.254 301.93 425.074 301.414C425.895 300.898 426.609 300.066 427.219 298.918L430.436 300.711C429.498 302.387 428.338 303.635 426.955 304.455C425.572 305.275 423.949 305.686 422.086 305.686C419.414 305.686 417.287 304.871 415.705 303.242C414.123 301.613 413.332 299.439 413.332 296.721C413.332 294.107 414.146 291.963 415.775 290.287C417.416 288.6 419.52 287.756 422.086 287.756C424.77 287.756 426.861 288.523 428.361 290.059C429.861 291.594 430.611 293.744 430.611 296.51V297.23ZM426.656 294.664C426.504 293.469 426.047 292.561 425.285 291.939C424.523 291.307 423.48 290.99 422.156 290.99C420.902 290.99 419.895 291.295 419.133 291.904C418.371 292.514 417.838 293.434 417.533 294.664H426.656ZM434.777 305V277.754H438.592V305H434.777ZM446.924 312.84H443.004L447.574 303.559L441.457 288.336H445.676L448.734 296.967C448.91 297.494 449.062 298.033 449.191 298.584C449.332 299.123 449.443 299.674 449.525 300.236C449.678 299.65 450.041 298.719 450.615 297.441L450.703 297.23L454.816 288.336H458.947L446.924 312.84ZM458.402 303.049C458.402 302.404 458.625 301.854 459.07 301.396C459.516 300.939 460.061 300.711 460.705 300.711C461.35 300.711 461.895 300.939 462.34 301.396C462.785 301.854 463.008 302.404 463.008 303.049C463.008 303.682 462.785 304.221 462.34 304.666C461.895 305.1 461.35 305.316 460.705 305.316C460.061 305.316 459.516 305.1 459.07 304.666C458.625 304.221 458.402 303.682 458.402 303.049Z" fill="#10150C"/>
<mask id="mask0" mask-type="alpha" maskUnits="userSpaceOnUse" x="688" y="8" width="442" height="341">
<rect opacity="0.5" x="688" y="8" width="442" height="341" fill="white"/>
</mask>
<g mask="url(#mask0)">
<circle opacity="0.3" cx="993.5" cy="139.5" r="233.5" fill="#E8C547"/>
<circle opacity="0.5" cx="865.5" cy="182.5" r="233.5" fill="#E8C547"/>
<circle opacity="0.7" cx="760.5" cy="261.5" r="190.5" fill="#E8C547"/>
</g>
<mask id="mask1" mask-type="alpha" maskUnits="userSpaceOnUse" x="688" y="8" width="442" height="341">
<rect x="688" y="8" width="442" height="341" fill="#C4C4C4"/>
</mask>
<g mask="url(#mask1)">
<path opacity="0.1" d="M891.178 296C765.711 296 664 267.015 664 231.261C664 195.507 765.711 166.522 891.178 166.522C1016.65 166.522 1118.36 195.507 1118.36 231.261C1118.36 267.015 1016.65 296 891.178 296Z" fill="black"/>
<path d="M760.131 237.046L782.705 235.381H1079.49V192.023H760.131V237.046Z" fill="#F5F5F5"/>
<path d="M1082.56 81.117H1102.06V69.6695C1102.06 67.549 1101.21 65.5154 1099.71 64.016C1098.21 62.5165 1096.17 61.6742 1094.04 61.6742H1090.58C1088.45 61.6742 1086.41 62.5165 1084.91 64.016C1083.41 65.5154 1082.56 67.549 1082.56 69.6695V81.117Z" fill="#EDEDF4"/>
<path d="M748.15 171.178V237.328L769.917 237.046C769.917 236.575 769.884 236.105 769.884 235.663C769.884 224.312 774.405 213.426 782.452 205.4C790.5 197.373 801.415 192.864 812.796 192.864C824.177 192.864 835.092 197.373 843.139 205.4C851.187 213.426 855.708 224.312 855.708 235.663C855.708 235.757 855.708 235.851 855.708 235.94L877.433 235.658H990.032C990.033 234.087 990.121 232.517 990.296 230.955C990.376 230.203 990.475 229.464 990.602 228.73C990.906 226.844 991.337 224.98 991.894 223.153C992.121 222.4 992.366 221.662 992.64 220.928C993.343 219.018 994.181 217.16 995.148 215.369C995.554 214.612 995.988 213.873 996.44 213.144C997.657 211.184 999.031 209.325 1000.55 207.585C1001.22 206.817 1001.91 206.075 1002.63 205.361C1010.67 197.349 1021.58 192.849 1032.95 192.849C1044.32 192.849 1055.22 197.349 1063.27 205.361C1063.99 206.079 1064.68 206.82 1065.34 207.585C1066.86 209.325 1068.23 211.184 1069.45 213.144C1069.92 213.873 1070.34 214.612 1070.74 215.369C1071.71 217.16 1072.55 219.018 1073.25 220.928C1073.52 221.662 1073.77 222.4 1074 223.153C1074.55 224.974 1074.99 226.832 1075.29 228.712C1075.42 229.445 1075.52 230.184 1075.6 230.936C1075.77 232.498 1075.86 234.068 1075.86 235.639H1118.77V89.4656H816.13L786.105 154.759L748.791 170.901L748.15 171.178Z" fill="#2B50AA"/>
<path d="M1112.09 75.5676H827.928C824.802 75.5676 821.803 76.8064 819.592 79.0114C817.381 81.2164 816.139 84.207 816.139 87.3253V89.4652H1118.78V82.2319C1118.78 81.3563 1118.6 80.4894 1118.27 79.6805C1117.93 78.8717 1117.44 78.1368 1116.82 77.5179C1116.2 76.899 1115.46 76.4082 1114.65 76.0736C1113.84 75.7389 1112.97 75.567 1112.09 75.5676Z" fill="#F5F5F5"/>
<path d="M884.138 75.5676H953.25V72.9714C953.25 71.268 952.914 69.5813 952.26 68.0075C951.606 66.4337 950.648 65.0038 949.441 63.7992C948.233 62.5947 946.799 61.6393 945.221 60.9874C943.643 60.3355 941.952 60 940.244 60H900.303L884.138 75.5676Z" fill="#EDEDF4"/>
<path opacity="0.1" d="M1091.08 213.977H1119.72C1122.58 213.977 1124.91 216.293 1124.91 219.15V235.484C1124.91 238.341 1122.58 240.658 1119.72 240.658H1091.08C1088.22 240.658 1085.9 238.341 1085.9 235.484V219.15C1085.9 216.293 1088.22 213.977 1091.08 213.977Z" fill="black"/>
<path opacity="0.1" d="M877.73 235.38H910.056V89.1874H846.522V190.352L877.73 235.38Z" fill="black"/>
<path d="M1091.64 215.092H1120.28C1123.14 215.092 1125.46 217.408 1125.46 220.265V236.599C1125.46 239.456 1123.14 241.772 1120.28 241.772H1091.64C1088.78 241.772 1086.45 239.456 1086.45 236.599V220.265C1086.45 217.408 1088.78 215.092 1091.64 215.092Z" fill="#F5F5F5"/>
<path opacity="0.1" d="M745.198 212.867H753.333C756.935 212.867 759.854 215.779 759.854 219.371V237.492C759.854 241.085 756.935 243.997 753.333 243.997H745.198C741.597 243.997 738.677 241.085 738.677 237.492V219.371C738.677 215.779 741.597 212.867 745.198 212.867Z" fill="black"/>
<path d="M744.085 213.422H752.22C755.821 213.422 758.741 216.334 758.741 219.926V238.047C758.741 241.64 755.821 244.552 752.22 244.552H744.085C740.483 244.552 737.564 241.64 737.564 238.047V219.926C737.564 216.334 740.483 213.422 744.085 213.422Z" fill="#F5F5F5"/>
<path d="M951.025 104.473H1078.65V173.397H951.025V104.473Z" fill="#1A2246"/>
<path d="M950.742 110.31H1018.18V169.786H950.742V110.31Z" fill="#F5F5F5"/>
<path d="M1018.18 157.835L969.694 121.983L963.002 123.653L1018.18 163.394V157.835Z" fill="white"/>
<path d="M1018.18 143.382L991.984 115.313L979.724 118.093L1018.18 154.223V143.382Z" fill="white"/>
<path d="M861.588 100.028H893.314C897.481 100.028 900.859 103.397 900.859 107.553V156.984C900.859 161.14 897.481 164.509 893.314 164.509H861.588C857.421 164.509 854.043 161.14 854.043 156.984V107.553C854.043 103.397 857.421 100.028 861.588 100.028Z" fill="#F5F5F5"/>
<path d="M856.831 170.063H862.961V183.406H856.831V170.063Z" fill="#1A2246"/>
<path d="M835.097 109.195V155.239C835.097 155.927 834.822 156.588 834.334 157.075C833.846 157.561 833.184 157.835 832.494 157.835H804.082C803.619 157.835 803.165 157.711 802.766 157.478C802.367 157.244 802.037 156.908 801.811 156.505C801.586 156.102 801.472 155.647 801.481 155.185C801.491 154.723 801.624 154.273 801.866 153.88L830.277 107.836C830.574 107.355 831.021 106.983 831.549 106.778C832.076 106.573 832.657 106.545 833.202 106.699C833.747 106.853 834.227 107.18 834.569 107.63C834.911 108.081 835.096 108.63 835.097 109.195Z" fill="#F5F5F5"/>
<path d="M885.812 100.028L900.859 113.367V120.318L879.403 100.028H885.812Z" fill="white"/>
<path d="M900.859 128.37V136.436L865.191 100.028H872.16L900.859 128.37Z" fill="white"/>
<path d="M825.665 115.313L835.097 128.37V133.378L822.577 120.318L825.665 115.313Z" fill="white"/>
<path d="M818.286 128.37L835.097 142.691V146.721L814.518 133.378L818.286 128.37Z" fill="white"/>
<path d="M1032.95 265.674C1016.33 265.674 1002.85 252.236 1002.85 235.658C1002.85 219.081 1016.33 205.643 1032.95 205.643C1049.57 205.643 1063.04 219.081 1063.04 235.658C1063.04 252.236 1049.57 265.674 1032.95 265.674Z" fill="#1A2246"/>
<path d="M1032.95 252.336C1023.71 252.336 1016.23 244.869 1016.23 235.658C1016.23 226.447 1023.71 218.981 1032.95 218.981C1042.18 218.981 1049.67 226.447 1049.67 235.658C1049.67 244.869 1042.18 252.336 1032.95 252.336Z" fill="white"/>
<path d="M1033.23 239.829C1030.76 239.829 1028.77 237.838 1028.77 235.381C1028.77 232.923 1030.76 230.932 1033.23 230.932C1035.69 230.932 1037.69 232.923 1037.69 235.381C1037.69 237.838 1035.69 239.829 1033.23 239.829Z" fill="#1A2246"/>
<path d="M812.801 265.674C796.18 265.674 782.706 252.236 782.706 235.658C782.706 219.081 796.18 205.643 812.801 205.643C829.422 205.643 842.896 219.081 842.896 235.658C842.896 252.236 829.422 265.674 812.801 265.674Z" fill="#1A2246"/>
<path d="M812.801 252.336C803.566 252.336 796.079 244.869 796.079 235.658C796.079 226.447 803.566 218.981 812.801 218.981C822.036 218.981 829.522 226.447 829.522 235.658C829.522 244.869 822.036 252.336 812.801 252.336Z" fill="white"/>
<path d="M812.522 239.829C810.059 239.829 808.061 237.838 808.061 235.381C808.061 232.923 810.059 230.932 812.522 230.932C814.986 230.932 816.983 232.923 816.983 235.381C816.983 237.838 814.986 239.829 812.522 239.829Z" fill="#1A2246"/>
<path opacity="0.1" d="M752.054 192.022H847.635L846.522 190.353V189.798H752.054" fill="white"/>
<path opacity="0.1" d="M752.055 182.574H846.522V180.349H752.055" fill="white"/>
<path opacity="0.1" d="M752.055 173.12H846.522V170.9H752.696" fill="white"/>
<path d="M1078.93 126.432C1078.93 126.432 1073.35 138.105 1058.58 126.432H1078.93Z" fill="#2B50AA"/>
<path d="M1058.86 126.432C1058.86 126.432 1053.29 138.105 1038.52 126.432H1058.86Z" fill="#2B50AA"/>
<path d="M1038.8 126.432C1038.8 126.432 1033.23 138.105 1018.46 126.432H1038.8Z" fill="#2B50AA"/>
<path d="M1018.74 126.432C1018.74 126.432 1013.16 138.105 998.392 126.432H1018.74Z" fill="#2B50AA"/>
<path d="M998.671 126.432C998.671 126.432 993.097 138.105 978.328 126.432H998.671Z" fill="#2B50AA"/>
<path d="M978.605 126.432C978.605 126.432 973.032 138.105 958.262 126.432H978.605Z" fill="#2B50AA"/>
<path d="M958.541 126.432C958.541 126.432 952.967 138.105 938.198 126.432H958.541Z" fill="#2B50AA"/>
<path d="M938.481 126.432C938.481 126.432 932.908 134.771 929.008 126.987L938.481 126.432Z" fill="#2B50AA"/>
<path opacity="0.1" d="M1078.93 126.432C1078.93 126.432 1073.35 138.105 1058.58 126.432H1078.93Z" fill="black"/>
<path opacity="0.1" d="M1058.86 126.432C1058.86 126.432 1053.29 138.105 1038.52 126.432H1058.86Z" fill="black"/>
<path opacity="0.1" d="M1038.8 126.432C1038.8 126.432 1033.23 138.105 1018.46 126.432H1038.8Z" fill="black"/>
<path opacity="0.1" d="M1018.74 126.432C1018.74 126.432 1013.16 138.105 998.392 126.432H1018.74Z" fill="black"/>
<path opacity="0.1" d="M998.671 126.432C998.671 126.432 993.097 138.105 978.328 126.432H998.671Z" fill="black"/>
<path opacity="0.1" d="M978.605 126.432C978.605 126.432 973.032 138.105 958.262 126.432H978.605Z" fill="black"/>
<path opacity="0.1" d="M958.541 126.432C958.541 126.432 952.967 138.105 938.198 126.432H958.541Z" fill="black"/>
<path opacity="0.1" d="M938.481 126.432C938.481 126.432 932.908 134.771 929.008 126.987L938.481 126.432Z" fill="black"/>
<path d="M929.286 126.709H1098.71L1086.45 100.028H942.103L929.286 126.709Z" fill="#2B50AA"/>
<path opacity="0.1" d="M929.286 126.709H1098.71L1086.45 100.028H942.103L929.286 126.709Z" fill="black"/>
<path d="M1098.99 126.432C1098.99 126.432 1093.42 138.105 1078.65 126.432H1098.99Z" fill="#2B50AA"/>
<path opacity="0.1" d="M1098.99 126.432C1098.99 126.432 1093.42 138.105 1078.65 126.432H1098.99Z" fill="black"/>
<path d="M945.446 173.402H1082.55V183.406H945.446V173.402Z" fill="#EDEDF4"/>
<path d="M935.972 163.394H1092.58V176.737H935.972V163.394Z" fill="#EDEDF4"/>
<path opacity="0.1" d="M945.446 176.737H1082.55V178.407H945.446V176.737Z" fill="black"/>
<path d="M1020.13 127.817C1020.33 127.636 1020.57 127.511 1020.83 127.457C1021.1 127.403 1021.37 127.42 1021.63 127.508C1021.88 127.596 1022.11 127.75 1022.28 127.956C1022.46 128.161 1022.57 128.41 1022.62 128.676L1023.17 131.855C1023.17 131.855 1025.64 144.572 1023.52 152.65C1021.4 160.728 1019.9 171.369 1014.17 172.502C1009.28 173.472 990.647 171.936 985.373 171.473C984.994 171.439 984.641 171.262 984.387 170.978C984.132 170.694 983.996 170.324 984.004 169.943L984.103 165.303C984.111 164.937 984.251 164.587 984.499 164.318C984.746 164.049 985.083 163.879 985.446 163.84L1006.77 161.565C1007.11 161.53 1007.42 161.385 1007.66 161.152C1007.9 160.919 1008.06 160.613 1008.1 160.281C1008.61 156.652 1010.25 145.402 1011.88 139.487C1013.2 134.707 1017.52 130.194 1020.13 127.817Z" fill="#E8C547"/>
<path d="M987.136 164.01C987.136 164.01 971.122 160.767 973.149 167.659C975.176 174.552 988.555 170.092 988.555 170.092L987.136 164.01Z" fill="#FFB8B8"/>
<path d="M1006.27 263.445V273.176L1011.74 274.392L1015.39 272.568L1014.98 264.864L1006.27 263.445Z" fill="#FFB8B8"/>
<path d="M1017.21 184.382C1017.21 184.382 1009.92 199.181 1010.12 210.737C1010.24 217.712 1009.9 224.687 1009.11 231.618L1005.46 266.284L1017.21 266.892L1022.69 229.59L1033.23 200.803L1037.28 235.064L1038.3 269.528H1048.43C1048.43 269.528 1053.09 236.888 1050.46 229.59C1050.46 229.59 1056.54 188.639 1051.67 186.612C1046.81 184.585 1017.21 184.382 1017.21 184.382Z" fill="#2F2E41"/>
<path d="M1009.92 270.541C1009.92 270.541 1007.89 263.04 1005.05 266.892C1002.21 270.744 994.107 277.231 994.107 277.231C994.107 277.231 981.944 283.718 993.093 285.34C1004.24 286.962 1005.46 283.313 1005.46 283.313C1005.46 283.313 1007.28 282.299 1008.9 282.907C1010.53 283.516 1017.62 283.313 1018.03 280.88C1018.43 278.448 1015.8 265.068 1014.99 267.5C1014.17 269.933 1009.92 270.541 1009.92 270.541Z" fill="#2F2E41"/>
<path d="M1047.22 270.338C1047.22 270.338 1047.22 268.108 1043.37 267.906C1039.51 267.703 1038.91 270.338 1038.91 270.338C1038.91 270.338 1037.89 271.352 1037.69 274.393C1037.49 277.434 1037.69 285.34 1037.69 285.34C1037.69 285.34 1035.86 291.422 1044.18 290.205C1052.49 288.989 1049.45 282.705 1049.45 282.705L1047.22 270.338Z" fill="#2F2E41"/>
<path d="M1032.42 108.765L1031.41 120.118L1029.58 124.375L1034.45 131.267L1046.41 120.118C1046.41 120.118 1044.18 114.036 1045.6 110.589L1032.42 108.765Z" fill="#FFB8B8"/>
<path d="M1059.58 128.227L1059.49 129.226L1055.93 167.15C1055.93 167.15 1055.79 168.914 1055.53 171.266C1055.09 175.243 1054.32 180.902 1053.3 182.558C1051.68 185.193 1052.89 187.423 1052.89 187.423C1043.57 192.897 1016 184.991 1016 184.991L1022.28 159.852C1022.28 159.852 1016.61 133.7 1017.21 131.268C1017.82 128.835 1030.59 120.118 1030.59 120.118L1030.97 121.131C1036.41 128.429 1041.94 122.145 1043.57 120.726L1046.81 117.888L1059.58 128.227Z" fill="#E8C547"/>
<path d="M1039.31 114.239C1045.02 114.239 1049.65 109.61 1049.65 103.899C1049.65 98.1894 1045.02 93.5604 1039.31 93.5604C1033.6 93.5604 1028.97 98.1894 1028.97 103.899C1028.97 109.61 1033.6 114.239 1039.31 114.239Z" fill="#FFB8B8"/>
<path d="M1027.96 166.542C1027.96 166.542 1011.95 163.299 1013.97 170.191C1016 177.084 1029.38 172.624 1029.38 172.624L1027.96 166.542Z" fill="#FFB8B8"/>
<path d="M1053.3 127.213L1059.58 128.227C1059.58 128.227 1064.04 140.39 1063.23 148.702C1062.42 157.014 1062.62 167.759 1057.15 169.786C1051.68 171.813 1027.15 173.435 1027.15 173.435L1026.13 166.137L1049.24 159.852C1049.24 159.852 1046.4 144.04 1049.65 137.552C1052.89 131.065 1053.3 127.213 1053.3 127.213Z" fill="#E8C547"/>
<path d="M1030.5 93.3985L1028.51 92.6029C1028.51 92.6029 1032.66 88.0285 1038.44 88.4263L1036.82 86.6362C1036.82 86.6362 1040.79 85.0452 1044.41 89.2218C1046.3 91.4174 1048.5 93.9982 1049.87 96.9054H1052L1051.11 98.8611L1054.22 100.817L1051.03 100.466C1051.22 101.537 1051.25 102.63 1051.12 103.709C1050.98 104.789 1050.43 105.774 1049.58 106.455C1049.58 106.455 1047.11 101.354 1047.11 100.558V102.547C1047.11 102.547 1045.13 100.757 1045.13 99.564L1044.04 100.956H1036.82L1037.9 99.1662L1033.75 99.7629L1035.37 97.5751L1028.94 106.609C1028.94 106.609 1025.26 96.3818 1030.5 93.3985Z" fill="#2F2E41"/>
<path fill-rule="evenodd" clip-rule="evenodd" d="M879.968 195.942C880.621 195.254 881.352 194.648 882.139 194.125H898.311C898.422 194.72 898.518 195.326 898.598 195.942H879.968ZM878.724 192.652C878.646 192.748 878.588 192.862 878.555 192.986C878.405 193.182 878.189 193.304 877.95 193.304C877.496 193.304 877.129 192.866 877.129 192.325C877.129 191.784 877.496 191.345 877.95 191.345C878.403 191.345 878.771 191.784 878.771 192.325C878.771 192.439 878.754 192.549 878.724 192.652ZM878.567 197.735H879.533L879.442 213.863C879.433 213.954 879.424 214.043 879.416 214.131C875.789 206.968 876.189 201.49 878.567 197.735ZM898.778 197.735C898.984 200.626 898.781 203.676 897.909 206.722C895.029 216.767 885.33 216.301 881.194 215.608C881.378 211.412 882.039 208.236 882.92 205.833C885.451 198.923 889.793 198.408 889.793 198.408C885.143 198.932 882.597 202.216 881.173 205.884L881.247 197.735H898.778ZM897.929 192.332C896.233 185.251 892.794 180.104 892.794 180.104C892.794 180.104 894.12 183.976 890.877 188.083H893.174C893.646 188.083 894.029 188.484 894.029 188.979V192.332H897.929ZM889.157 189.876C888.786 190.2 888.38 190.523 887.937 190.842C887.232 191.35 886.433 191.849 885.529 192.332H887.937H892.318V189.876H889.157ZM880.53 192.045C880.853 192.045 881.116 191.732 881.116 191.345C881.116 190.959 880.853 190.646 880.53 190.646C880.206 190.646 879.943 190.959 879.943 191.345C879.943 191.732 880.206 192.045 880.53 192.045ZM881.468 184.699C881.468 185.665 880.812 186.448 880.002 186.448C879.193 186.448 878.537 185.665 878.537 184.699C878.537 183.733 879.193 182.95 880.002 182.95C880.812 182.95 881.468 183.733 881.468 184.699ZM884.517 189.247C884.776 189.247 884.986 188.996 884.986 188.687C884.986 188.378 884.776 188.127 884.517 188.127C884.258 188.127 884.048 188.378 884.048 188.687C884.048 188.996 884.258 189.247 884.517 189.247ZM889.793 185.538C889.793 186.427 889.189 187.148 888.444 187.148C887.7 187.148 887.096 186.427 887.096 185.538C887.096 184.65 887.7 183.929 888.444 183.929C889.189 183.929 889.793 184.65 889.793 185.538Z" fill="#F5FFF0"/>
</g>
</svg>
