<svg width="1063" height="978" viewBox="0 0 1063 978" fill="none" xmlns="http://www.w3.org/2000/svg">
<path opacity="0.2" fill-rule="evenodd" clip-rule="evenodd" d="M734.875 735.292C725.664 705.915 712.976 677.654 697.43 650.844L220.345 401.799C208.353 416.805 196.619 432.334 185.249 448.381L734.875 735.292ZM819.776 662.108C820.645 666.004 820.698 670.094 819.851 674.105C821.417 681.896 825.982 688.651 833.048 692.34C846.421 699.321 863.686 692.673 871.611 677.491C879.536 662.309 875.12 644.343 861.747 637.363C848.374 630.382 831.109 637.03 823.184 652.212C821.505 655.429 820.379 658.771 819.776 662.108ZM749.928 807.18L721.442 792.311L487.853 1246.32C486.788 1249 485.733 1251.64 484.69 1254.23C696.628 1109.06 765.086 949.186 749.928 807.18ZM153.662 495.922C105.241 573.896 66.5483 662.6 47.6747 761.512C-14.5269 1087.76 278.434 1224.06 410.59 1268.3C466.649 1147.71 493.657 1048.4 502.876 967.408C529.431 734.515 408.896 653.197 408.896 653.197C538.38 739.511 565.399 870.878 553.67 995.749L670.866 765.909L153.662 495.922ZM257.874 357.36C411.624 184.781 588.487 93.2952 588.487 93.2952C588.487 93.2952 492.64 181.533 528.151 346.724L460.413 311.364C446.479 304.09 429.301 309.458 422.048 323.353L372.941 417.426L257.874 357.36ZM552.632 423.534C558.844 438.365 566.087 453.668 574.473 469.437C587.832 494.558 604.092 520.863 623.709 548.33L552.652 511.237L423.404 443.768L459.378 374.854L552.632 423.534ZM775.387 617.268C765.836 612.281 762.681 599.449 768.342 588.606C774.002 577.762 786.334 573.014 795.886 578C805.437 582.986 808.592 595.818 802.931 606.662C797.271 617.505 784.939 622.254 775.387 617.268ZM855.317 396.666C841.166 423.775 849.052 455.856 872.931 468.321C896.81 480.786 927.639 468.915 941.79 441.806C955.941 414.697 948.056 382.616 924.177 370.151C900.298 357.686 869.468 369.557 855.317 396.666ZM698.762 477.338C691.12 473.349 688.597 463.083 693.125 454.408C697.653 445.733 707.519 441.934 715.161 445.923C722.802 449.912 725.326 460.178 720.797 468.853C716.269 477.528 706.403 481.327 698.762 477.338ZM597.434 292.021C584.415 316.962 591.67 346.477 613.639 357.944C635.608 369.412 663.971 358.491 676.99 333.551C690.009 308.61 682.754 279.096 660.786 267.628C638.817 256.16 610.454 267.081 597.434 292.021Z" fill="#245B09" fill-opacity="0.2"/>
</svg>
