<svg width="1164" height="1012" viewBox="0 0 1164 1012" fill="none" xmlns="http://www.w3.org/2000/svg">
<path opacity="0.2" fill-rule="evenodd" clip-rule="evenodd" d="M741.637 335.91C712.082 344.533 683.572 356.654 656.458 371.662L397.938 843.68C412.702 855.969 427.994 868.01 443.81 879.698L741.637 335.91ZM670.162 249.565C674.075 248.774 678.165 248.802 682.158 249.729C689.979 248.319 696.824 243.89 700.653 236.899C707.899 223.668 701.597 206.274 686.577 198.047C671.556 189.821 653.506 193.877 646.259 207.108C639.013 220.339 645.315 237.733 660.336 245.96C663.519 247.703 666.838 248.895 670.162 249.565ZM813.811 322.296L798.376 350.479L1247.63 593.085C1250.29 594.203 1252.91 595.31 1255.48 596.405C1114.57 381.611 956.091 309.975 813.811 322.296ZM490.712 912.229C567.703 962.197 655.617 1002.65 754.132 1023.5C1079.07 1092.2 1221.19 802.018 1268.07 670.771C1148.62 612.316 1049.87 583.33 969.074 572.497C736.758 541.298 653.05 660.185 653.05 660.185C741.932 532.45 873.812 508.059 998.424 522.279L770.97 400.518L490.712 912.229ZM354.257 805.271C184.782 648.107 96.8452 469.452 96.8452 469.452C96.8452 469.452 183.152 567.042 349.019 534.836L312.314 601.854C304.763 615.641 309.787 632.922 323.534 640.451L416.608 691.427L354.257 805.271ZM426.303 511.893C441.254 505.978 456.699 499.042 472.632 490.973C498.015 478.118 524.639 462.386 552.492 443.322L513.989 513.623L443.953 641.499L375.771 604.157L426.303 511.893ZM624.444 293.05C619.269 302.5 606.376 305.398 595.647 299.522C584.919 293.646 580.418 281.222 585.594 271.772C590.769 262.321 603.662 259.424 614.39 265.3C625.119 271.175 629.62 283.6 624.444 293.05ZM405.482 208.732C432.303 223.421 464.535 216.177 477.474 192.552C490.414 168.927 479.16 137.867 452.339 123.177C425.519 108.488 393.287 115.731 380.347 139.357C367.408 162.982 378.661 194.042 405.482 208.732ZM483.013 366.867C478.872 374.427 468.558 376.745 459.975 372.044C451.392 367.344 447.791 357.404 451.932 349.844C456.072 342.283 466.387 339.965 474.97 344.666C483.552 349.367 487.154 359.306 483.013 366.867ZM295.711 464.474C320.386 477.989 350.04 471.324 361.944 449.589C373.848 427.853 363.495 399.278 338.82 385.763C314.144 372.249 284.491 378.913 272.586 400.649C260.682 422.384 271.035 450.96 295.711 464.474Z" fill="#245B09" fill-opacity="0.2"/>
</svg>
