<svg width="977" height="102" viewBox="0 0 977 102" fill="none" xmlns="http://www.w3.org/2000/svg">
<path d="M141.174 46.7179C141.174 46.7179 124.338 53.5998 113.03 24.1055C106.887 8.07902 76.7642 -0.664571 64.7742 17.3206C75.646 18.5378 93.952 20.3834 107.131 39.3455C107.131 39.3455 100.129 19.1658 64.7742 17.3206C58.7792 27.8116 61.4464 52.5176 83.2908 59.9911C112.152 69.8599 141.174 46.7179 141.174 46.7179Z" fill="#245B09"/>
<path d="M157.012 47.3886C144.749 47.3886 135.582 50.5692 132.61 52.2377L123.851 46.1372C123.173 44.208 122.286 40.6937 124.163 42.0702C126.04 43.4467 129.325 43.7908 130.733 43.7908H342.668C343.45 43.843 345.014 43.5406 345.014 41.9138L350.489 47.3886H157.012Z" fill="#245B09"/>
<path d="M421.94 46.3482C421.94 46.3482 405.104 53.2166 393.795 23.7799C387.652 7.78469 357.53 -0.941832 345.54 17.0083C356.412 18.2231 374.718 20.0651 387.897 38.9901C387.897 38.9901 380.895 18.8498 345.54 17.0083C339.545 27.4788 342.212 52.1365 364.056 59.5955C392.918 69.445 421.94 46.3482 421.94 46.3482Z" fill="url(#paint0_linear)"/>
<path d="M437.778 47.3887C425.514 47.3887 416.348 50.5693 413.376 52.2378L404.616 46.1373C403.938 44.208 403.052 40.6937 404.929 42.0703C406.806 43.4468 410.091 43.7909 411.499 43.7909H623.434C624.216 43.8431 625.78 43.5407 625.78 41.9139L631.255 47.3887H623.434H437.778Z" fill="url(#paint1_linear)"/>
<path d="M702.705 37.4535C702.705 37.4535 685.869 43.9958 674.561 15.9569C668.418 0.721154 638.295 -7.59101 626.305 9.50677C637.177 10.6639 655.483 12.4184 668.662 30.4449C668.662 30.4449 661.66 11.2609 626.305 9.50677C620.31 19.4801 622.977 42.967 644.822 50.0718C673.683 59.4536 702.705 37.4535 702.705 37.4535Z" fill="#F1FAEA"/>
<path d="M718.543 47.3886C706.28 47.3886 697.113 50.5692 694.141 52.2377L685.382 46.1372C684.704 44.208 683.817 40.6936 685.694 42.0702C687.572 43.4467 690.856 43.7908 692.264 43.7908H718.543H918.187C918.969 43.843 920.534 43.5406 920.534 41.9138L926.008 47.3886H918.187H718.543Z" fill="#F1FAEA"/>
<path d="M897.792 37.4614C897.792 37.4614 914.628 44.0037 925.936 15.9648C932.08 0.729088 962.202 -7.58307 974.192 9.5147C963.32 10.6718 945.014 12.4263 931.835 30.4528C931.835 30.4528 938.837 11.2688 974.192 9.5147C980.187 19.488 977.52 42.975 955.675 50.0797C926.814 59.4615 897.792 37.4614 897.792 37.4614Z" fill="#F1FAEA"/>
<path d="M881.954 47.397C894.217 47.397 903.384 50.5776 906.356 52.2461L915.115 46.1456C915.793 44.2164 916.68 40.7021 914.803 42.0786C912.926 43.4551 909.641 43.7992 908.233 43.7992H881.954H696.298C695.516 43.8514 693.952 43.549 693.952 41.9222L688.477 47.397H696.298H881.954Z" fill="#F1FAEA"/>
<path d="M88.5631 43.3177V28.5287H85.0123L86.0904 26.3256H91.106V43.3177H88.5631Z" fill="#F1FAEA"/>
<path d="M373.99 41.0912V43.3177H362.494L368.904 35.642C369.701 34.681 370.283 33.8373 370.65 33.1107C371.017 32.3842 371.201 31.724 371.201 31.1302C371.201 30.2787 370.947 29.6107 370.439 29.1263C369.939 28.6342 369.252 28.3881 368.377 28.3881C367.595 28.3881 366.951 28.6342 366.443 29.1263C365.935 29.6107 365.65 30.2513 365.587 31.0482H362.904C362.904 29.5092 363.42 28.2826 364.451 27.3685C365.482 26.4467 366.869 25.9857 368.611 25.9857C370.267 25.9857 371.572 26.4115 372.525 27.2631C373.486 28.1146 373.966 29.2748 373.966 30.7435C373.966 31.7904 373.689 32.849 373.134 33.9193C372.587 34.9818 371.423 36.5287 369.642 38.5599L367.462 41.0912H373.99Z" fill="#F1FAEA"/>
<path d="M641.858 38.7357H644.53V38.8763C644.53 39.6654 644.799 40.2943 645.338 40.7631C645.878 41.2318 646.608 41.4662 647.53 41.4662C648.569 41.4662 649.37 41.2084 649.932 40.6927C650.503 40.1693 650.788 39.4193 650.788 38.4427C650.788 37.4193 650.495 36.6498 649.909 36.1342C649.331 35.6107 648.463 35.349 647.307 35.349C647.253 35.349 647.167 35.3529 647.049 35.3607C646.932 35.3685 646.842 35.3724 646.78 35.3724V33.1224C646.835 33.1224 646.917 33.1263 647.026 33.1342C647.143 33.142 647.229 33.1459 647.284 33.1459C648.299 33.1459 649.065 32.9349 649.581 32.5131C650.096 32.0834 650.354 31.4545 650.354 30.6263C650.354 29.892 650.12 29.3099 649.651 28.8802C649.19 28.4427 648.569 28.224 647.788 28.224C646.952 28.224 646.295 28.4271 645.819 28.8334C645.35 29.2318 645.104 29.7943 645.081 30.5209H642.561C642.639 29.0599 643.135 27.9388 644.049 27.1576C644.963 26.3763 646.233 25.9857 647.858 25.9857C649.428 25.9857 650.67 26.3959 651.585 27.2162C652.506 28.0365 652.967 29.1459 652.967 30.5443C652.967 31.599 652.706 32.4662 652.182 33.1459C651.667 33.8177 650.948 34.224 650.026 34.3646C651.112 34.5599 651.936 35.0365 652.499 35.7943C653.069 36.5521 653.354 37.556 653.354 38.806C653.354 40.3295 652.819 41.5404 651.749 42.4388C650.686 43.3295 649.245 43.7748 647.424 43.7748C645.776 43.7748 644.448 43.3217 643.44 42.4154C642.432 41.5013 641.905 40.2748 641.858 38.7357Z" fill="black" fill-opacity="0.25"/>
<path d="M946.122 31.7279L941.751 37.892H946.051V33.4271C946.051 33.1927 946.055 32.931 946.063 32.642C946.079 32.3529 946.098 32.0482 946.122 31.7279ZM946.051 43.3177V39.8373H937.825L947.809 25.9857H948.594V37.892H950.68V39.8373H948.594V43.3177H946.051Z" fill="black" fill-opacity="0.25"/>
<path d="M17.2207 88.2256V94H15.7266V81.1328H18.4248C19.3682 81.1328 20.0625 81.1826 20.5078 81.2822C20.9531 81.3818 21.3398 81.5459 21.668 81.7744C22.0781 82.0674 22.3975 82.4688 22.626 82.9785C22.8604 83.4883 22.9775 84.0537 22.9775 84.6748C22.9775 85.2959 22.8604 85.8613 22.626 86.3711C22.3975 86.8809 22.0781 87.2822 21.668 87.5752C21.3398 87.8096 20.9531 87.9766 20.5078 88.0762C20.0684 88.1758 19.374 88.2256 18.4248 88.2256H17.9941H17.2207ZM17.2207 86.8369H17.9941C19.3066 86.8369 20.1885 86.6846 20.6396 86.3799C21.0967 86.0693 21.3252 85.5303 21.3252 84.7627C21.3252 83.9424 21.0908 83.3652 20.6221 83.0312C20.1592 82.6973 19.2832 82.5303 17.9941 82.5303H17.2207V86.8369ZM24.4277 94V85.958H25.6494V87.6279C26.0186 86.9307 26.4111 86.4326 26.8271 86.1338C27.2432 85.835 27.75 85.6855 28.3477 85.6855C28.5117 85.6855 28.6699 85.7002 28.8223 85.7295C28.9746 85.7529 29.127 85.791 29.2793 85.8438L28.8223 87.083C28.6641 87.0303 28.5146 86.9922 28.374 86.9688C28.2334 86.9395 28.0986 86.9248 27.9697 86.9248C27.2432 86.9248 26.6982 87.1885 26.335 87.7158C25.9717 88.2373 25.79 89.0254 25.79 90.0801V94H24.4277ZM31.5469 90.001C31.5469 90.8506 31.8311 91.5713 32.3994 92.1631C32.9678 92.749 33.6562 93.042 34.4648 93.042C35.2676 93.042 35.9502 92.749 36.5127 92.1631C37.0752 91.5713 37.3564 90.8506 37.3564 90.001C37.3564 89.1514 37.0752 88.4336 36.5127 87.8477C35.9502 87.2559 35.2676 86.96 34.4648 86.96C33.6504 86.96 32.959 87.2559 32.3906 87.8477C31.8281 88.4336 31.5469 89.1514 31.5469 90.001ZM30.0879 90.001C30.0879 89.4092 30.1963 88.8525 30.4131 88.3311C30.6299 87.8037 30.9463 87.335 31.3623 86.9248C31.7783 86.5146 32.25 86.2041 32.7773 85.9932C33.3047 85.7764 33.8672 85.668 34.4648 85.668C35.0508 85.668 35.6045 85.7764 36.126 85.9932C36.6533 86.21 37.1309 86.5264 37.5586 86.9424C37.9746 87.3467 38.291 87.8125 38.5078 88.3398C38.7246 88.8613 38.833 89.415 38.833 90.001C38.833 90.5869 38.7246 91.1406 38.5078 91.6621C38.291 92.1777 37.9746 92.6377 37.5586 93.042C37.1309 93.4639 36.6504 93.7861 36.1172 94.0088C35.5898 94.2314 35.0391 94.3428 34.4648 94.3428C33.873 94.3428 33.3105 94.2314 32.7773 94.0088C32.25 93.792 31.7783 93.4785 31.3623 93.0684C30.9463 92.6465 30.6299 92.1777 30.4131 91.6621C30.1963 91.1465 30.0879 90.5928 30.0879 90.001ZM47.1387 90.0186C47.1387 89.1221 46.8896 88.4014 46.3916 87.8564C45.8936 87.3057 45.2373 87.0303 44.4229 87.0303C43.6084 87.0303 42.9727 87.2793 42.5156 87.7773C42.0586 88.2754 41.8301 88.9639 41.8301 89.8428C41.8301 90.833 42.0615 91.6094 42.5244 92.1719C42.9873 92.7285 43.626 93.0068 44.4404 93.0068C45.2842 93.0068 45.9434 92.7432 46.418 92.2158C46.8984 91.6885 47.1387 90.9561 47.1387 90.0186ZM48.4746 80.377V94H47.1387V92.541C46.8223 93.1211 46.4121 93.5664 45.9082 93.877C45.4043 94.1875 44.8418 94.3428 44.2207 94.3428C43.0664 94.3428 42.1348 93.9473 41.4258 93.1562C40.7227 92.3594 40.3711 91.3076 40.3711 90.001C40.3711 88.6826 40.7168 87.6309 41.4082 86.8457C42.0996 86.0605 43.0195 85.668 44.168 85.668C44.8359 85.668 45.416 85.8203 45.9082 86.125C46.4004 86.4238 46.7988 86.8721 47.1035 87.4697V80.377H48.4746ZM52.5791 85.958V89.9131C52.5791 91.0674 52.749 91.876 53.0889 92.3389C53.4346 92.7959 54.0146 93.0244 54.8291 93.0244C55.6436 93.0244 56.2178 92.7988 56.5518 92.3477C56.8916 91.8906 57.0615 91.0791 57.0615 89.9131V85.958H58.4678V90.6514C58.4678 91.8643 58.1572 92.7842 57.5361 93.4111C56.915 94.0322 56.001 94.3428 54.7939 94.3428C53.5986 94.3428 52.6904 94.0293 52.0693 93.4023C51.4482 92.7754 51.1377 91.8584 51.1377 90.6514V85.958H52.5791ZM67.3008 92.0928V93.6924C66.9375 93.9092 66.5273 94.0703 66.0703 94.1758C65.6191 94.2871 65.1299 94.3428 64.6025 94.3428C63.3604 94.3428 62.3584 93.9502 61.5967 93.165C60.8408 92.374 60.4629 91.3369 60.4629 90.0537C60.4629 88.7646 60.8555 87.7129 61.6406 86.8984C62.4258 86.0781 63.4307 85.668 64.6553 85.668C65.1006 85.668 65.5342 85.7148 65.9561 85.8086C66.3838 85.9023 66.7852 86.04 67.1602 86.2217V87.6982C66.8086 87.4697 66.4453 87.2969 66.0703 87.1797C65.6953 87.0566 65.3145 86.9951 64.9277 86.9951C64.0254 86.9951 63.3018 87.2793 62.7568 87.8477C62.2119 88.4102 61.9395 89.1602 61.9395 90.0977C61.9395 90.9238 62.2119 91.6152 62.7568 92.1719C63.3076 92.7285 63.9961 93.0068 64.8223 93.0068C65.2383 93.0068 65.6455 92.9336 66.0439 92.7871C66.4424 92.6406 66.8613 92.4092 67.3008 92.0928ZM69.4277 87.0918H67.9512V85.958H69.4277V82.7148H70.834V85.958H72.3105V87.0918H70.834V94H69.4277V87.0918ZM89.7656 84.209C89.1504 83.541 88.4941 83.0488 87.7969 82.7324C87.0996 82.4102 86.3291 82.249 85.4854 82.249C84.8057 82.249 84.1406 82.3867 83.4902 82.6621C82.8457 82.9375 82.2861 83.3213 81.8115 83.8135C81.3193 84.3232 80.9502 84.8945 80.7041 85.5273C80.458 86.1543 80.335 86.8486 80.335 87.6104C80.335 88.208 80.4082 88.7588 80.5547 89.2627C80.7012 89.7666 80.9209 90.2295 81.2139 90.6514C81.7295 91.3838 82.3623 91.9492 83.1123 92.3477C83.8682 92.7402 84.6826 92.9365 85.5557 92.9365C86.376 92.9365 87.1377 92.7666 87.8408 92.4268C88.5439 92.0869 89.1855 91.5801 89.7656 90.9062V92.9365C89.127 93.3994 88.4385 93.751 87.7002 93.9912C86.9678 94.2256 86.209 94.3428 85.4238 94.3428C84.7441 94.3428 84.082 94.2402 83.4375 94.0352C82.793 93.8359 82.1895 93.543 81.627 93.1562C80.6895 92.5059 79.9717 91.7061 79.4736 90.7568C78.9814 89.8076 78.7354 88.7646 78.7354 87.6279C78.7354 86.6377 78.8994 85.7383 79.2275 84.9297C79.5615 84.1152 80.0684 83.377 80.748 82.7148C81.4043 82.082 82.1309 81.6104 82.9277 81.2998C83.7246 80.9834 84.5947 80.8252 85.5381 80.8252C86.2822 80.8252 87.0029 80.9395 87.7002 81.168C88.3975 81.3906 89.0859 81.7393 89.7656 82.2139V84.209ZM98.3965 90.0537C98.3965 89.1455 98.1475 88.416 97.6494 87.8652C97.1572 87.3086 96.5127 87.0303 95.7158 87.0303C94.8896 87.0303 94.2451 87.2852 93.7822 87.7949C93.3193 88.3047 93.0879 89.0166 93.0879 89.9307C93.0879 90.9033 93.3193 91.6533 93.7822 92.1807C94.251 92.708 94.9131 92.9717 95.7686 92.9717C96.5889 92.9717 97.2305 92.7168 97.6934 92.207C98.1621 91.6914 98.3965 90.9736 98.3965 90.0537ZM99.7324 85.958V94H98.3965V92.541C98.0742 93.127 97.6611 93.5752 97.1572 93.8857C96.6592 94.1904 96.0996 94.3428 95.4785 94.3428C94.3242 94.3428 93.3926 93.9473 92.6836 93.1562C91.9805 92.3594 91.6289 91.3076 91.6289 90.001C91.6289 88.6768 91.9717 87.625 92.6572 86.8457C93.3428 86.0605 94.2598 85.668 95.4082 85.668C96.082 85.668 96.665 85.8203 97.1572 86.125C97.6553 86.4238 98.0566 86.8721 98.3613 87.4697V85.958H99.7324ZM102.703 87.0918H101.227V85.958H102.703V82.7148H104.109V85.958H105.586V87.0918H104.109V94H102.703V87.0918ZM112.854 89.0693C112.808 88.3604 112.57 87.8154 112.143 87.4346C111.721 87.0479 111.141 86.8545 110.402 86.8545C109.734 86.8545 109.178 87.0566 108.732 87.4609C108.287 87.8594 108.029 88.3955 107.959 89.0693H112.854ZM114.331 90.1855H107.959V90.3086C107.959 91.1699 108.205 91.8672 108.697 92.4004C109.189 92.9277 109.831 93.1914 110.622 93.1914C111.161 93.1914 111.647 93.0479 112.081 92.7607C112.515 92.4678 112.898 92.0283 113.232 91.4424L114.278 92.1455C113.874 92.8721 113.358 93.4199 112.731 93.7891C112.104 94.1582 111.378 94.3428 110.552 94.3428C109.327 94.3428 108.337 93.9385 107.581 93.1299C106.825 92.3213 106.447 91.2607 106.447 89.9482C106.447 88.6885 106.822 87.6572 107.572 86.8545C108.322 86.0518 109.286 85.6504 110.464 85.6504C111.653 85.6504 112.594 86.0312 113.285 86.793C113.982 87.5547 114.331 88.5947 114.331 89.9131V90.1855ZM122.566 90.001C122.566 89.0986 122.32 88.3721 121.828 87.8213C121.336 87.2705 120.688 86.9951 119.886 86.9951C119.06 86.9951 118.415 87.25 117.952 87.7598C117.489 88.2695 117.258 88.9814 117.258 89.8955C117.258 90.8682 117.489 91.6182 117.952 92.1455C118.421 92.6729 119.083 92.9365 119.938 92.9365C120.759 92.9365 121.4 92.6787 121.863 92.1631C122.332 91.6416 122.566 90.9209 122.566 90.001ZM123.902 85.958V93.8594C123.902 94.7324 123.844 95.3535 123.727 95.7227C123.609 96.0918 123.416 96.4229 123.146 96.7158C122.771 97.1201 122.312 97.4219 121.767 97.6211C121.228 97.8203 120.606 97.9199 119.903 97.9199C118.685 97.9199 117.732 97.6416 117.047 97.085C116.367 96.5283 116.013 95.7402 115.983 94.7207H117.53V94.8262C117.53 95.4297 117.738 95.8955 118.154 96.2236C118.57 96.5518 119.159 96.7158 119.921 96.7158C120.472 96.7158 120.94 96.625 121.327 96.4434C121.72 96.2676 122.019 96.0039 122.224 95.6523C122.347 95.4531 122.435 95.2217 122.487 94.958C122.54 94.6943 122.566 94.3164 122.566 93.8242V93.1914V92.4707C122.256 93.0449 121.849 93.4873 121.345 93.7979C120.841 94.1025 120.275 94.2549 119.648 94.2549C118.494 94.2549 117.562 93.8623 116.854 93.0771C116.15 92.292 115.799 91.249 115.799 89.9482C115.799 88.6357 116.142 87.5957 116.827 86.8281C117.513 86.0547 118.43 85.668 119.578 85.668C120.246 85.668 120.832 85.8203 121.336 86.125C121.84 86.4238 122.238 86.8662 122.531 87.4521V85.958H123.902ZM127.506 90.001C127.506 90.8506 127.79 91.5713 128.358 92.1631C128.927 92.749 129.615 93.042 130.424 93.042C131.227 93.042 131.909 92.749 132.472 92.1631C133.034 91.5713 133.315 90.8506 133.315 90.001C133.315 89.1514 133.034 88.4336 132.472 87.8477C131.909 87.2559 131.227 86.96 130.424 86.96C129.609 86.96 128.918 87.2559 128.35 87.8477C127.787 88.4336 127.506 89.1514 127.506 90.001ZM126.047 90.001C126.047 89.4092 126.155 88.8525 126.372 88.3311C126.589 87.8037 126.905 87.335 127.321 86.9248C127.737 86.5146 128.209 86.2041 128.736 85.9932C129.264 85.7764 129.826 85.668 130.424 85.668C131.01 85.668 131.563 85.7764 132.085 85.9932C132.612 86.21 133.09 86.5264 133.518 86.9424C133.934 87.3467 134.25 87.8125 134.467 88.3398C134.684 88.8613 134.792 89.415 134.792 90.001C134.792 90.5869 134.684 91.1406 134.467 91.6621C134.25 92.1777 133.934 92.6377 133.518 93.042C133.09 93.4639 132.609 93.7861 132.076 94.0088C131.549 94.2314 130.998 94.3428 130.424 94.3428C129.832 94.3428 129.27 94.2314 128.736 94.0088C128.209 93.792 127.737 93.4785 127.321 93.0684C126.905 92.6465 126.589 92.1777 126.372 91.6621C126.155 91.1465 126.047 90.5928 126.047 90.001ZM136.963 94V85.958H138.185V87.6279C138.554 86.9307 138.946 86.4326 139.362 86.1338C139.778 85.835 140.285 85.6855 140.883 85.6855C141.047 85.6855 141.205 85.7002 141.357 85.7295C141.51 85.7529 141.662 85.791 141.814 85.8438L141.357 87.083C141.199 87.0303 141.05 86.9922 140.909 86.9688C140.769 86.9395 140.634 86.9248 140.505 86.9248C139.778 86.9248 139.233 87.1885 138.87 87.7158C138.507 88.2373 138.325 89.0254 138.325 90.0801V94H136.963ZM143.019 82.082C143.019 81.8066 143.115 81.5723 143.309 81.3789C143.508 81.1797 143.748 81.0801 144.029 81.0801C144.305 81.0801 144.539 81.1797 144.732 81.3789C144.932 81.5781 145.031 81.8184 145.031 82.0996C145.031 82.375 144.935 82.6094 144.741 82.8027C144.548 82.9961 144.311 83.0928 144.029 83.0928C143.748 83.0928 143.508 82.9961 143.309 82.8027C143.115 82.6094 143.019 82.3691 143.019 82.082ZM143.344 94V85.958H144.732V94H143.344ZM153.337 89.0693C153.29 88.3604 153.053 87.8154 152.625 87.4346C152.203 87.0479 151.623 86.8545 150.885 86.8545C150.217 86.8545 149.66 87.0566 149.215 87.4609C148.77 87.8594 148.512 88.3955 148.441 89.0693H153.337ZM154.813 90.1855H148.441V90.3086C148.441 91.1699 148.688 91.8672 149.18 92.4004C149.672 92.9277 150.313 93.1914 151.104 93.1914C151.644 93.1914 152.13 93.0479 152.563 92.7607C152.997 92.4678 153.381 92.0283 153.715 91.4424L154.761 92.1455C154.356 92.8721 153.841 93.4199 153.214 93.7891C152.587 94.1582 151.86 94.3428 151.034 94.3428C149.81 94.3428 148.819 93.9385 148.063 93.1299C147.308 92.3213 146.93 91.2607 146.93 89.9482C146.93 88.6885 147.305 87.6572 148.055 86.8545C148.805 86.0518 149.769 85.6504 150.946 85.6504C152.136 85.6504 153.076 86.0312 153.768 86.793C154.465 87.5547 154.813 88.5947 154.813 89.9131V90.1855ZM156.044 92.6465L157.222 91.8555C157.444 92.2832 157.726 92.6055 158.065 92.8223C158.405 93.0332 158.807 93.1387 159.27 93.1387C159.721 93.1387 160.084 93.0273 160.359 92.8047C160.641 92.582 160.781 92.2891 160.781 91.9258C160.781 91.6445 160.685 91.4102 160.491 91.2227C160.304 91.0352 159.979 90.8623 159.516 90.7041L159.287 90.625C157.33 89.9512 156.352 89.1074 156.352 88.0938C156.352 87.3789 156.615 86.7959 157.143 86.3447C157.67 85.8936 158.355 85.668 159.199 85.668C159.896 85.668 160.494 85.8086 160.992 86.0898C161.49 86.3652 161.848 86.7578 162.064 87.2676L160.948 87.9531C160.784 87.584 160.541 87.2998 160.219 87.1006C159.902 86.9014 159.533 86.8018 159.111 86.8018C158.707 86.8018 158.376 86.916 158.118 87.1445C157.866 87.3672 157.74 87.6543 157.74 88.0059C157.74 88.498 158.273 88.9111 159.34 89.2451C159.539 89.3096 159.697 89.3594 159.814 89.3945C160.688 89.6758 161.294 89.998 161.634 90.3613C161.979 90.7188 162.152 91.1934 162.152 91.7852C162.152 92.5469 161.88 93.165 161.335 93.6396C160.796 94.1084 160.09 94.3428 159.217 94.3428C158.467 94.3428 157.828 94.2021 157.301 93.9209C156.779 93.6396 156.36 93.2148 156.044 92.6465Z" fill="#10150C"/>
<path d="M368.988 84.209C368.373 83.541 367.717 83.0488 367.02 82.7324C366.322 82.4102 365.552 82.249 364.708 82.249C364.028 82.249 363.363 82.3867 362.713 82.6621C362.068 82.9375 361.509 83.3213 361.034 83.8135C360.542 84.3232 360.173 84.8945 359.927 85.5273C359.681 86.1543 359.558 86.8486 359.558 87.6104C359.558 88.208 359.631 88.7588 359.777 89.2627C359.924 89.7666 360.144 90.2295 360.437 90.6514C360.952 91.3838 361.585 91.9492 362.335 92.3477C363.091 92.7402 363.905 92.9365 364.778 92.9365C365.599 92.9365 366.36 92.7666 367.063 92.4268C367.767 92.0869 368.408 91.5801 368.988 90.9062V92.9365C368.35 93.3994 367.661 93.751 366.923 93.9912C366.19 94.2256 365.432 94.3428 364.646 94.3428C363.967 94.3428 363.305 94.2402 362.66 94.0352C362.016 93.8359 361.412 93.543 360.85 93.1562C359.912 92.5059 359.194 91.7061 358.696 90.7568C358.204 89.8076 357.958 88.7646 357.958 87.6279C357.958 86.6377 358.122 85.7383 358.45 84.9297C358.784 84.1152 359.291 83.377 359.971 82.7148C360.627 82.082 361.354 81.6104 362.15 81.2998C362.947 80.9834 363.817 80.8252 364.761 80.8252C365.505 80.8252 366.226 80.9395 366.923 81.168C367.62 81.3906 368.309 81.7393 368.988 82.2139V84.209ZM377.619 90.0537C377.619 89.1455 377.37 88.416 376.872 87.8652C376.38 87.3086 375.735 87.0303 374.938 87.0303C374.112 87.0303 373.468 87.2852 373.005 87.7949C372.542 88.3047 372.311 89.0166 372.311 89.9307C372.311 90.9033 372.542 91.6533 373.005 92.1807C373.474 92.708 374.136 92.9717 374.991 92.9717C375.812 92.9717 376.453 92.7168 376.916 92.207C377.385 91.6914 377.619 90.9736 377.619 90.0537ZM378.955 85.958V94H377.619V92.541C377.297 93.127 376.884 93.5752 376.38 93.8857C375.882 94.1904 375.322 94.3428 374.701 94.3428C373.547 94.3428 372.615 93.9473 371.906 93.1562C371.203 92.3594 370.852 91.3076 370.852 90.001C370.852 88.6768 371.194 87.625 371.88 86.8457C372.565 86.0605 373.482 85.668 374.631 85.668C375.305 85.668 375.888 85.8203 376.38 86.125C376.878 86.4238 377.279 86.8721 377.584 87.4697V85.958H378.955ZM381.732 94V85.958H382.954V87.6279C383.323 86.9307 383.716 86.4326 384.132 86.1338C384.548 85.835 385.055 85.6855 385.652 85.6855C385.816 85.6855 385.975 85.7002 386.127 85.7295C386.279 85.7529 386.432 85.791 386.584 85.8438L386.127 87.083C385.969 87.0303 385.819 86.9922 385.679 86.9688C385.538 86.9395 385.403 86.9248 385.274 86.9248C384.548 86.9248 384.003 87.1885 383.64 87.7158C383.276 88.2373 383.095 89.0254 383.095 90.0801V94H381.732ZM388.254 87.0918H386.777V85.958H388.254V82.7148H389.66V85.958H391.137V87.0918H389.66V94H388.254V87.0918Z" fill="#10150C"/>
<path d="M617.041 88.2256V94H615.547V81.1328H618.245C619.188 81.1328 619.883 81.1826 620.328 81.2822C620.773 81.3818 621.16 81.5459 621.488 81.7744C621.898 82.0674 622.218 82.4688 622.446 82.9785C622.681 83.4883 622.798 84.0537 622.798 84.6748C622.798 85.2959 622.681 85.8613 622.446 86.3711C622.218 86.8809 621.898 87.2822 621.488 87.5752C621.16 87.8096 620.773 87.9766 620.328 88.0762C619.889 88.1758 619.194 88.2256 618.245 88.2256H617.814H617.041ZM617.041 86.8369H617.814C619.127 86.8369 620.009 86.6846 620.46 86.3799C620.917 86.0693 621.146 85.5303 621.146 84.7627C621.146 83.9424 620.911 83.3652 620.442 83.0312C619.979 82.6973 619.104 82.5303 617.814 82.5303H617.041V86.8369ZM629.715 90.0537C629.715 89.1455 629.466 88.416 628.968 87.8652C628.476 87.3086 627.831 87.0303 627.034 87.0303C626.208 87.0303 625.563 87.2852 625.101 87.7949C624.638 88.3047 624.406 89.0166 624.406 89.9307C624.406 90.9033 624.638 91.6533 625.101 92.1807C625.569 92.708 626.231 92.9717 627.087 92.9717C627.907 92.9717 628.549 92.7168 629.012 92.207C629.48 91.6914 629.715 90.9736 629.715 90.0537ZM631.051 85.958V94H629.715V92.541C629.393 93.127 628.979 93.5752 628.476 93.8857C627.978 94.1904 627.418 94.3428 626.797 94.3428C625.643 94.3428 624.711 93.9473 624.002 93.1562C623.299 92.3594 622.947 91.3076 622.947 90.001C622.947 88.6768 623.29 87.625 623.976 86.8457C624.661 86.0605 625.578 85.668 626.727 85.668C627.4 85.668 627.983 85.8203 628.476 86.125C628.974 86.4238 629.375 86.8721 629.68 87.4697V85.958H631.051ZM633.485 97.9199L635.665 93.209L632.51 85.958H634.101L636.438 91.7324L638.917 85.958H640.429L635.032 97.9199H633.485ZM652.936 94V89.2627C652.936 88.4482 652.771 87.8447 652.443 87.4521C652.115 87.0537 651.611 86.8545 650.932 86.8545C650.562 86.8545 650.22 86.9307 649.903 87.083C649.593 87.2295 649.329 87.4404 649.112 87.7158C648.954 87.9268 648.84 88.1729 648.77 88.4541C648.699 88.7354 648.664 89.1982 648.664 89.8428V94H647.337V89.2627C647.337 88.4482 647.173 87.8447 646.845 87.4521C646.517 87.0537 646.013 86.8545 645.333 86.8545C644.964 86.8545 644.618 86.9307 644.296 87.083C643.979 87.2295 643.713 87.4404 643.496 87.7158C643.344 87.9209 643.232 88.1582 643.162 88.4277C643.098 88.6973 643.065 89.1689 643.065 89.8428V94H641.738V85.958H643.083V87.1973C643.417 86.6816 643.815 86.2979 644.278 86.0459C644.741 85.7939 645.274 85.668 645.878 85.668C646.528 85.668 647.082 85.8086 647.539 86.0898C647.996 86.3652 648.342 86.7695 648.576 87.3027C648.922 86.752 649.329 86.3418 649.798 86.0723C650.272 85.8027 650.82 85.668 651.441 85.668C652.338 85.668 653.038 85.9199 653.542 86.4238C654.046 86.9277 654.298 87.6279 654.298 88.5244V94H652.936ZM662.718 89.0693C662.671 88.3604 662.434 87.8154 662.006 87.4346C661.584 87.0479 661.004 86.8545 660.266 86.8545C659.598 86.8545 659.041 87.0566 658.596 87.4609C658.15 87.8594 657.893 88.3955 657.822 89.0693H662.718ZM664.194 90.1855H657.822V90.3086C657.822 91.1699 658.068 91.8672 658.561 92.4004C659.053 92.9277 659.694 93.1914 660.485 93.1914C661.024 93.1914 661.511 93.0479 661.944 92.7607C662.378 92.4678 662.762 92.0283 663.096 91.4424L664.142 92.1455C663.737 92.8721 663.222 93.4199 662.595 93.7891C661.968 94.1582 661.241 94.3428 660.415 94.3428C659.19 94.3428 658.2 93.9385 657.444 93.1299C656.688 92.3213 656.311 91.2607 656.311 89.9482C656.311 88.6885 656.686 87.6572 657.436 86.8545C658.186 86.0518 659.149 85.6504 660.327 85.6504C661.517 85.6504 662.457 86.0312 663.148 86.793C663.846 87.5547 664.194 88.5947 664.194 89.9131V90.1855ZM666.277 94V85.958H667.622V87.1973C667.968 86.6816 668.384 86.2979 668.87 86.0459C669.356 85.7939 669.919 85.668 670.558 85.668C671.507 85.668 672.248 85.9199 672.781 86.4238C673.314 86.9277 673.581 87.6279 673.581 88.5244V94H672.175V89.2627C672.175 88.4482 672.002 87.8447 671.656 87.4521C671.316 87.0537 670.789 86.8545 670.074 86.8545C669.664 86.8545 669.289 86.9307 668.949 87.083C668.615 87.2295 668.337 87.4404 668.114 87.7158C667.944 87.9268 667.821 88.167 667.745 88.4365C667.675 88.7061 667.64 89.1748 667.64 89.8428V94H666.277ZM676.525 87.0918H675.049V85.958H676.525V82.7148H677.932V85.958H679.408V87.0918H677.932V94H676.525V87.0918Z" fill="#10150C"/>
<path d="M921.231 86.8545C922.069 87.2119 922.699 87.6865 923.121 88.2783C923.549 88.8701 923.763 89.5703 923.763 90.3789C923.763 91.5625 923.385 92.5176 922.629 93.2441C921.879 93.9648 920.883 94.3252 919.641 94.3252C918.627 94.3252 917.777 94.0674 917.092 93.5518C916.406 93.0303 915.943 92.292 915.703 91.3369L917.092 90.6514C917.279 91.4307 917.587 92.0225 918.015 92.4268C918.448 92.8252 918.99 93.0244 919.641 93.0244C920.408 93.0244 921.029 92.8047 921.504 92.3652C921.979 91.9199 922.216 91.3428 922.216 90.6338C922.216 90.0596 922.049 89.5615 921.715 89.1396C921.387 88.7119 920.889 88.3516 920.221 88.0586L918.656 87.3906C917.801 87.0332 917.162 86.5732 916.74 86.0107C916.324 85.4482 916.116 84.7744 916.116 83.9893C916.116 83.0752 916.456 82.3193 917.136 81.7217C917.815 81.124 918.683 80.8252 919.737 80.8252C920.511 80.8252 921.179 80.9893 921.741 81.3174C922.31 81.6455 922.752 82.1289 923.068 82.7676L921.803 83.5762C921.516 83.0781 921.193 82.709 920.836 82.4688C920.479 82.2227 920.074 82.0996 919.623 82.0996C919.049 82.0996 918.577 82.2754 918.208 82.627C917.845 82.9785 917.663 83.4268 917.663 83.9717C917.663 84.4287 917.804 84.8242 918.085 85.1582C918.366 85.4922 918.803 85.7881 919.395 86.0459L921.231 86.8545ZM926.962 85.958V89.9131C926.962 91.0674 927.132 91.876 927.472 92.3389C927.817 92.7959 928.397 93.0244 929.212 93.0244C930.026 93.0244 930.601 92.7988 930.935 92.3477C931.274 91.8906 931.444 91.0791 931.444 89.9131V85.958H932.851V90.6514C932.851 91.8643 932.54 92.7842 931.919 93.4111C931.298 94.0322 930.384 94.3428 929.177 94.3428C927.981 94.3428 927.073 94.0293 926.452 93.4023C925.831 92.7754 925.521 91.8584 925.521 90.6514V85.958H926.962ZM941.684 92.0928V93.6924C941.32 93.9092 940.91 94.0703 940.453 94.1758C940.002 94.2871 939.513 94.3428 938.985 94.3428C937.743 94.3428 936.741 93.9502 935.979 93.165C935.224 92.374 934.846 91.3369 934.846 90.0537C934.846 88.7646 935.238 87.7129 936.023 86.8984C936.809 86.0781 937.813 85.668 939.038 85.668C939.483 85.668 939.917 85.7148 940.339 85.8086C940.767 85.9023 941.168 86.04 941.543 86.2217V87.6982C941.191 87.4697 940.828 87.2969 940.453 87.1797C940.078 87.0566 939.697 86.9951 939.311 86.9951C938.408 86.9951 937.685 87.2793 937.14 87.8477C936.595 88.4102 936.322 89.1602 936.322 90.0977C936.322 90.9238 936.595 91.6152 937.14 92.1719C937.69 92.7285 938.379 93.0068 939.205 93.0068C939.621 93.0068 940.028 92.9336 940.427 92.7871C940.825 92.6406 941.244 92.4092 941.684 92.0928ZM949.77 92.0928V93.6924C949.406 93.9092 948.996 94.0703 948.539 94.1758C948.088 94.2871 947.599 94.3428 947.071 94.3428C945.829 94.3428 944.827 93.9502 944.065 93.165C943.31 92.374 942.932 91.3369 942.932 90.0537C942.932 88.7646 943.324 87.7129 944.109 86.8984C944.895 86.0781 945.899 85.668 947.124 85.668C947.569 85.668 948.003 85.7148 948.425 85.8086C948.853 85.9023 949.254 86.04 949.629 86.2217V87.6982C949.277 87.4697 948.914 87.2969 948.539 87.1797C948.164 87.0566 947.783 86.9951 947.396 86.9951C946.494 86.9951 945.771 87.2793 945.226 87.8477C944.681 88.4102 944.408 89.1602 944.408 90.0977C944.408 90.9238 944.681 91.6152 945.226 92.1719C945.776 92.7285 946.465 93.0068 947.291 93.0068C947.707 93.0068 948.114 92.9336 948.513 92.7871C948.911 92.6406 949.33 92.4092 949.77 92.0928ZM957.39 89.0693C957.343 88.3604 957.105 87.8154 956.678 87.4346C956.256 87.0479 955.676 86.8545 954.938 86.8545C954.27 86.8545 953.713 87.0566 953.268 87.4609C952.822 87.8594 952.564 88.3955 952.494 89.0693H957.39ZM958.866 90.1855H952.494V90.3086C952.494 91.1699 952.74 91.8672 953.232 92.4004C953.725 92.9277 954.366 93.1914 955.157 93.1914C955.696 93.1914 956.183 93.0479 956.616 92.7607C957.05 92.4678 957.434 92.0283 957.768 91.4424L958.813 92.1455C958.409 92.8721 957.894 93.4199 957.267 93.7891C956.64 94.1582 955.913 94.3428 955.087 94.3428C953.862 94.3428 952.872 93.9385 952.116 93.1299C951.36 92.3213 950.982 91.2607 950.982 89.9482C950.982 88.6885 951.357 87.6572 952.107 86.8545C952.857 86.0518 953.821 85.6504 954.999 85.6504C956.188 85.6504 957.129 86.0312 957.82 86.793C958.518 87.5547 958.866 88.5947 958.866 89.9131V90.1855ZM960.097 92.6465L961.274 91.8555C961.497 92.2832 961.778 92.6055 962.118 92.8223C962.458 93.0332 962.859 93.1387 963.322 93.1387C963.773 93.1387 964.137 93.0273 964.412 92.8047C964.693 92.582 964.834 92.2891 964.834 91.9258C964.834 91.6445 964.737 91.4102 964.544 91.2227C964.356 91.0352 964.031 90.8623 963.568 90.7041L963.34 90.625C961.383 89.9512 960.404 89.1074 960.404 88.0938C960.404 87.3789 960.668 86.7959 961.195 86.3447C961.723 85.8936 962.408 85.668 963.252 85.668C963.949 85.668 964.547 85.8086 965.045 86.0898C965.543 86.3652 965.9 86.7578 966.117 87.2676L965.001 87.9531C964.837 87.584 964.594 87.2998 964.271 87.1006C963.955 86.9014 963.586 86.8018 963.164 86.8018C962.76 86.8018 962.429 86.916 962.171 87.1445C961.919 87.3672 961.793 87.6543 961.793 88.0059C961.793 88.498 962.326 88.9111 963.393 89.2451C963.592 89.3096 963.75 89.3594 963.867 89.3945C964.74 89.6758 965.347 89.998 965.687 90.3613C966.032 90.7188 966.205 91.1934 966.205 91.7852C966.205 92.5469 965.933 93.165 965.388 93.6396C964.849 94.1084 964.143 94.3428 963.27 94.3428C962.52 94.3428 961.881 94.2021 961.354 93.9209C960.832 93.6396 960.413 93.2148 960.097 92.6465ZM967.427 92.6465L968.604 91.8555C968.827 92.2832 969.108 92.6055 969.448 92.8223C969.788 93.0332 970.189 93.1387 970.652 93.1387C971.104 93.1387 971.467 93.0273 971.742 92.8047C972.023 92.582 972.164 92.2891 972.164 91.9258C972.164 91.6445 972.067 91.4102 971.874 91.2227C971.687 91.0352 971.361 90.8623 970.898 90.7041L970.67 90.625C968.713 89.9512 967.734 89.1074 967.734 88.0938C967.734 87.3789 967.998 86.7959 968.525 86.3447C969.053 85.8936 969.738 85.668 970.582 85.668C971.279 85.668 971.877 85.8086 972.375 86.0898C972.873 86.3652 973.23 86.7578 973.447 87.2676L972.331 87.9531C972.167 87.584 971.924 87.2998 971.602 87.1006C971.285 86.9014 970.916 86.8018 970.494 86.8018C970.09 86.8018 969.759 86.916 969.501 87.1445C969.249 87.3672 969.123 87.6543 969.123 88.0059C969.123 88.498 969.656 88.9111 970.723 89.2451C970.922 89.3096 971.08 89.3594 971.197 89.3945C972.07 89.6758 972.677 89.998 973.017 90.3613C973.362 90.7188 973.535 91.1934 973.535 91.7852C973.535 92.5469 973.263 93.165 972.718 93.6396C972.179 94.1084 971.473 94.3428 970.6 94.3428C969.85 94.3428 969.211 94.2021 968.684 93.9209C968.162 93.6396 967.743 93.2148 967.427 92.6465Z" fill="#10150C"/>
<defs>
<linearGradient id="paint0_linear" x1="342.959" y1="62.0399" x2="630.959" y2="62.0399" gradientUnits="userSpaceOnUse">
<stop stop-color="#245B09"/>
<stop offset="1" stop-color="#F1FAEA"/>
</linearGradient>
<linearGradient id="paint1_linear" x1="342.959" y1="62.0399" x2="630.959" y2="62.0399" gradientUnits="userSpaceOnUse">
<stop stop-color="#245B09"/>
<stop offset="1" stop-color="#F1FAEA"/>
</linearGradient>
</defs>
</svg>
