<svg width="159" height="36" viewBox="0 0 159 36" fill="none" xmlns="http://www.w3.org/2000/svg">
<path d="M46.5352 19.826C46.5352 15.1552 42.6864 11.3065 38.0156 11.3065C33.3448 11.3065 29.4961 15.1552 29.4961 19.826C29.4961 24.4221 33.3448 28.4203 38.0156 28.4203C41.3412 28.4203 44.2932 26.5146 45.6757 23.6747H42.5743C41.5281 25.0199 39.9213 25.9541 38.0156 25.9541C35.101 25.9541 32.747 23.7121 32.2238 20.9844H46.5352V19.826ZM38.0156 13.7727C40.8928 13.7727 43.2469 15.8652 43.8074 18.5929H32.2238C32.7843 15.8652 35.101 13.7727 38.0156 13.7727Z" fill="#10150C"/>
<path d="M57.6841 28.4203C60.1876 28.4203 62.3922 27.2245 63.8869 25.3936V28.084H66.3904V11.568H63.8869V14.2584C62.3922 12.4648 60.1876 11.3065 57.6841 11.3065C53.0133 11.3065 49.1645 15.1552 49.1645 19.826C49.1645 24.4221 53.0133 28.4203 57.6841 28.4203ZM57.6093 25.9541C54.2837 25.9541 51.7802 23.0769 51.7802 19.826C51.7802 16.5004 54.2837 13.7727 57.6093 13.7727C60.8602 13.7727 63.7374 16.5004 63.7374 19.826C63.7374 23.0769 60.8602 25.9541 57.6093 25.9541Z" fill="#10150C"/>
<path d="M82.5105 15.6036C82.2489 13.1001 80.0817 11.3065 76.8308 11.3065C73.0942 11.3065 71.1511 13.3243 71.1511 15.8278C71.1511 18.4434 72.9073 19.8634 76.8308 20.6481C79.8201 21.2459 80.8664 21.7691 80.8664 23.3384C80.8664 24.8331 79.2596 25.9167 76.8308 25.9167C74.7009 25.9167 73.0194 24.721 72.7952 23.3384H70.5159C70.6654 26.2157 73.1315 28.2708 76.8308 28.2708C80.9411 28.2708 83.1457 26.2157 83.1457 23.3384C83.1457 20.6107 81.4642 19.1534 77.2418 18.294C74.5515 17.7709 73.4678 17.0609 73.4678 15.8278C73.4678 14.5947 74.8504 13.6606 76.8308 13.6606C78.7739 13.6606 80.007 14.4826 80.2312 15.6036H82.5105Z" fill="#10150C"/>
<path d="M95.1018 26.1783L102.388 11.568H99.4363L93.6071 23.189L87.8154 11.568H84.8634L92.1499 26.1409L87.4791 35.4825H90.431L95.1018 26.1783Z" fill="#10150C"/>
<path d="M111.23 15.2953H114.396C116.186 15.2953 117.466 15.0328 118.238 14.5077C119.009 13.9719 119.395 13.0933 119.395 11.8717C119.395 10.6501 119.042 9.77683 118.334 9.25177C117.627 8.716 116.432 8.44811 114.75 8.44811H111.23V15.2953ZM111.23 25.534H114.879C116.765 25.534 118.109 25.2339 118.913 24.6339C119.717 24.0338 120.118 23.0426 120.118 21.6603C120.118 20.278 119.701 19.2975 118.865 18.7189C118.04 18.1296 116.615 17.8349 114.589 17.8349H111.23V25.534ZM103.129 28.0092V25.5018H104.415C105.39 25.5018 105.995 25.3893 106.231 25.1643C106.467 24.9285 106.585 24.3606 106.585 23.4605V10.4573C106.585 9.55716 106.467 8.9946 106.231 8.76957C105.995 8.53383 105.39 8.41596 104.415 8.41596H103.129V5.92461H115.875C118.64 5.92461 120.692 6.37466 122.031 7.27476C123.371 8.17487 124.04 9.55716 124.04 11.4217C124.04 12.7075 123.676 13.7469 122.947 14.5399C122.229 15.3221 121.11 15.9061 119.588 16.2918C121.378 16.6562 122.712 17.3098 123.59 18.2528C124.48 19.1957 124.924 20.4495 124.924 22.0139C124.924 24.1677 124.19 25.7054 122.722 26.6269C121.254 27.5485 118.763 28.0092 115.248 28.0092H103.129Z" fill="#10150C"/>
<path d="M127.239 28.0092V25.8072H128.461C129.211 25.8072 129.709 25.6893 129.955 25.4536C130.212 25.2179 130.341 24.6767 130.341 23.8302V16.6455C130.341 15.7989 130.212 15.2632 129.955 15.0381C129.709 14.8024 129.211 14.6845 128.461 14.6845H127.239V12.4664H134.359V23.8302C134.359 24.666 134.483 25.2071 134.729 25.4536C134.986 25.6893 135.495 25.8072 136.256 25.8072H137.253V28.0092H127.239ZM129.618 8.0945C129.618 7.40871 129.848 6.83007 130.309 6.35859C130.78 5.88711 131.359 5.65137 132.045 5.65137C132.741 5.65137 133.325 5.88711 133.797 6.35859C134.279 6.83007 134.52 7.40871 134.52 8.0945C134.52 8.78029 134.279 9.36428 133.797 9.84648C133.325 10.3287 132.741 10.5698 132.045 10.5698C131.37 10.5698 130.796 10.3287 130.325 9.84648C129.854 9.36428 129.618 8.78029 129.618 8.0945Z" fill="#10150C"/>
<path d="M138.78 28.0092V25.8072H139.873C140.623 25.8072 141.121 25.6893 141.367 25.4536C141.614 25.2179 141.737 24.6767 141.737 23.8302V16.6455C141.737 15.7989 141.614 15.2632 141.367 15.0381C141.121 14.8024 140.623 14.6845 139.873 14.6845H138.78V12.4664H145.723V15.1989C146.58 14.1273 147.459 13.3237 148.359 12.7879C149.27 12.2521 150.192 11.9842 151.124 11.9842C152.913 11.9842 154.199 12.4236 154.981 13.3022C155.764 14.1809 156.155 15.6489 156.155 17.7063V23.8302C156.155 24.6767 156.278 25.2179 156.524 25.4536C156.782 25.6893 157.285 25.8072 158.035 25.8072H159V28.0092H149.645V25.8072H150.304C151.054 25.8072 151.552 25.6893 151.799 25.4536C152.056 25.2179 152.185 24.6767 152.185 23.8302V17.7063C152.185 16.5597 151.992 15.74 151.606 15.2471C151.231 14.7542 150.609 14.5077 149.741 14.5077C148.498 14.5077 147.518 14.9792 146.8 15.9222C146.082 16.8651 145.723 18.1617 145.723 19.8119V23.8302C145.723 24.6767 145.846 25.2179 146.093 25.4536C146.35 25.6893 146.854 25.8072 147.604 25.8072H148.263V28.0092H138.78Z" fill="#10150C"/>
<path d="M128.791 6.05323C128.791 5.76873 129.022 5.53809 129.306 5.53809H134.071C134.356 5.53809 134.586 5.76873 134.586 6.05323V10.6896C134.586 10.9741 134.356 11.2047 134.071 11.2047H129.306C129.022 11.2047 128.791 10.9741 128.791 10.6896V6.05323Z" fill="#10150C"/>
<path fill-rule="evenodd" clip-rule="evenodd" d="M3.36874 15.702C4.05042 15.0199 4.81248 14.4192 5.63287 13.9001H22.4925C22.608 14.4905 22.7087 15.0917 22.7918 15.702H3.36874ZM2.07189 12.4398C1.99128 12.5354 1.93051 12.6481 1.89588 12.7717C1.73945 12.9654 1.51473 13.0867 1.26503 13.0867C0.792457 13.0867 0.409358 12.652 0.409358 12.1156C0.409358 11.5793 0.792457 11.1445 1.26503 11.1445C1.73761 11.1445 2.12071 11.5793 2.12071 12.1156C2.12071 12.2293 2.1035 12.3384 2.07189 12.4398ZM1.90856 17.4796H2.91521L2.82057 33.4693C2.81123 33.5592 2.80228 33.6478 2.79369 33.7348C-0.987566 26.633 -0.571046 21.2024 1.90856 17.4796ZM22.9798 17.4796C23.1942 20.3461 22.9828 23.3695 22.073 26.3891C19.0709 36.348 8.95905 35.8864 4.64753 35.1994C4.83884 31.0391 5.52857 27.8905 6.44668 25.5083C9.08544 18.6578 13.6117 18.147 13.6117 18.147C8.76448 18.6668 6.10972 21.9223 4.62522 25.559L4.7025 17.4796H22.9798ZM22.0945 12.1225C20.3265 5.10308 16.7411 0 16.7411 0C16.7411 0 18.1237 3.83877 14.7427 7.91026H17.1365C17.629 7.91026 18.0282 8.30822 18.0282 8.79909V12.1225H22.0945ZM12.9494 9.68792C12.5619 10.0096 12.1389 10.3295 11.6774 10.6458C10.9422 11.1496 10.1093 11.6442 9.16634 12.1225H11.6774H16.2449V9.68792H12.9494ZM3.95467 11.8382C4.29221 11.8382 4.56584 11.5276 4.56584 11.1446C4.56584 10.7615 4.29221 10.4509 3.95467 10.4509C3.61712 10.4509 3.34349 10.7615 3.34349 11.1446C3.34349 11.5276 3.61712 11.8382 3.95467 11.8382ZM4.93296 4.55534C4.93296 5.51304 4.24888 6.2894 3.40503 6.2894C2.56118 6.2894 1.87711 5.51304 1.87711 4.55534C1.87711 3.59765 2.56118 2.82128 3.40503 2.82128C4.24888 2.82128 4.93296 3.59765 4.93296 4.55534ZM8.1112 9.06388C8.38124 9.06388 8.60015 8.81544 8.60015 8.50897C8.60015 8.2025 8.38124 7.95405 8.1112 7.95405C7.84116 7.95405 7.62225 8.2025 7.62225 8.50897C7.62225 8.81544 7.84116 9.06388 8.1112 9.06388ZM13.6117 5.38749C13.6117 6.26858 12.9823 6.98284 12.206 6.98284C11.4296 6.98284 10.8003 6.26858 10.8003 5.38749C10.8003 4.5064 11.4296 3.79214 12.206 3.79214C12.9823 3.79214 13.6117 4.5064 13.6117 5.38749Z" fill="#245B09"/>
</svg>
