<svg width="136" height="524" viewBox="0 0 136 524" fill="none" xmlns="http://www.w3.org/2000/svg">
<path fill-rule="evenodd" clip-rule="evenodd" d="M172.153 184.684C183.854 182.412 195.817 181.53 207.811 181.888L380.516 298.517C377.615 305.364 374.488 312.219 371.118 319.046L172.153 184.684ZM181.436 142.294C179.949 142.716 178.546 143.451 177.336 144.478C174.395 145.379 171.253 145.068 168.695 143.341C163.854 140.072 162.938 132.967 166.648 127.473C170.358 121.979 177.29 120.175 182.131 123.444C186.972 126.713 187.889 133.817 184.179 139.312C183.392 140.476 182.461 141.475 181.436 142.294ZM144.897 192.794L155.209 199.758L43.6243 362.904C42.9065 363.76 42.2023 364.606 41.512 365.438C51.9077 266.529 93.7431 213.778 144.897 192.794ZM360.746 338.557C343.112 369.405 320.03 398.915 289.822 423.554C190.173 504.807 89.7843 430.128 50.3708 393.265C81.1107 351.97 109.958 324.486 135.843 306.434C210.265 254.51 260.164 280.589 260.164 280.589C206.915 252.382 157.199 267.367 116.833 294.354L173.518 212.121L360.746 338.557ZM388.737 277.553C419.186 193.415 417.761 116.335 417.761 116.335C417.761 116.335 405.367 165.225 342.568 183.546L367.089 200.105C372.133 203.511 373.47 210.35 370.074 215.378L347.083 249.424L388.737 277.553ZM311.899 189.351C305.704 189.965 299.158 190.316 292.243 190.364C281.227 190.439 269.273 189.745 256.305 188.121L282.027 205.491L328.815 237.088L345.657 212.148L311.899 189.351ZM204.884 149.156C208.342 151.491 213.293 150.203 215.944 146.278C218.594 142.354 217.939 137.28 214.481 134.945C211.024 132.61 206.072 133.898 203.422 137.823C200.772 141.747 201.427 146.821 204.884 149.156ZM265.288 81.3168C258.663 91.1276 246.284 94.3486 237.64 88.5112C228.996 82.6737 227.36 69.9883 233.985 60.1775C240.61 50.3667 252.988 47.1457 261.633 52.9831C270.277 58.8206 271.913 71.506 265.288 81.3168ZM266.655 149.489C269.422 151.357 273.383 150.326 275.503 147.187C277.623 144.047 277.099 139.988 274.333 138.12C271.567 136.252 267.606 137.282 265.486 140.422C263.365 143.561 263.889 147.621 266.655 149.489ZM348.434 149.878C342.339 158.904 330.95 161.867 322.998 156.497C315.045 151.126 313.539 139.455 319.635 130.429C325.73 121.403 337.118 118.44 345.071 123.811C353.023 129.181 354.529 140.852 348.434 149.878Z" fill="white"/>
</svg>
