<svg width="355" height="515" viewBox="0 0 355 515" fill="none" xmlns="http://www.w3.org/2000/svg">
<path fill-rule="evenodd" clip-rule="evenodd" d="M44.5692 168.907C56.4866 168.654 68.4251 169.815 80.1846 172.204L230.591 316.451C226.569 322.706 222.324 328.932 217.844 335.087L44.5692 168.907ZM60.9118 128.708C59.3749 128.871 57.8679 129.357 56.5012 130.164C53.4491 130.553 50.4058 129.713 48.1782 127.577C43.9623 123.533 44.2647 116.377 48.8536 111.592C53.4426 106.807 60.5803 106.206 64.7962 110.249C69.0121 114.292 68.7097 121.449 64.1208 126.234C63.1482 127.248 62.0612 128.074 60.9118 128.708ZM16.3328 172.274L25.3132 180.886L-112.341 322.728C-113.194 323.451 -114.032 324.164 -114.853 324.867C-87.8219 229.157 -37.6407 184.271 16.3328 172.274ZM204.312 352.555C181.698 379.963 153.943 405.127 119.991 424.282C7.99832 487.445 -78.2601 396.812 -110.846 353.794C-73.5433 318.315 -40.4497 296.126 -11.8771 282.729C70.2781 244.188 115.027 278.357 115.027 278.357C67.3378 241.523 15.7996 247.853 -28.5604 267.597L41.2578 196.178L204.312 352.555ZM242.25 297.187C286.537 219.437 298.214 143.233 298.214 143.233C298.214 143.233 277.703 189.31 212.705 196.707L234.06 217.188C238.453 221.401 238.61 228.367 234.41 232.746L205.974 262.396L242.25 297.187ZM181.496 197.223C175.287 196.778 168.776 196.012 161.953 194.886C151.084 193.09 139.421 190.377 126.917 186.576L149.318 208.06L190.065 247.138L210.896 225.419L181.496 197.223ZM82.8555 139.45C85.8668 142.338 90.965 141.908 94.2426 138.491C97.5203 135.073 97.7363 129.961 94.725 127.073C91.7138 124.185 86.6156 124.615 83.3379 128.032C80.0603 131.45 79.8443 136.562 82.8555 139.45ZM153.896 82.8458C145.702 91.3899 132.957 92.4634 125.429 85.2436C117.901 78.0238 118.441 65.2447 126.635 56.7006C134.829 48.1565 147.574 47.083 155.102 54.3028C162.631 61.5226 162.091 74.3018 153.896 82.8458ZM143.674 150.261C146.083 152.571 150.162 152.228 152.784 149.494C155.406 146.76 155.579 142.67 153.17 140.36C150.761 138.049 146.682 138.393 144.06 141.127C141.438 143.861 141.265 147.951 143.674 150.261ZM224.2 164.523C216.661 172.384 204.936 173.372 198.01 166.729C191.084 160.087 191.581 148.33 199.119 140.47C206.658 132.609 218.384 131.621 225.31 138.264C232.236 144.906 231.739 156.663 224.2 164.523Z" fill="white"/>
</svg>
