<svg width="183" height="510" viewBox="0 0 183 510" fill="none" xmlns="http://www.w3.org/2000/svg">
<path fill-rule="evenodd" clip-rule="evenodd" d="M170.175 311.122C169.806 299.208 170.85 287.259 173.124 275.477L315.895 123.669C322.19 127.629 328.456 131.813 334.655 136.233L170.175 311.122ZM129.818 295.173C129.996 296.708 130.497 298.211 131.317 299.569C131.736 302.618 130.926 305.669 128.811 307.917C124.809 312.172 117.65 311.94 112.821 307.398C107.991 302.856 107.32 295.724 111.322 291.469C115.324 287.214 122.483 287.447 127.313 291.989C128.336 292.951 129.173 294.03 129.818 295.173ZM173.817 339.325L182.342 330.261L325.521 466.523C326.252 467.369 326.973 468.199 327.685 469.014C231.715 442.919 186.341 393.178 173.817 339.325ZM352.254 149.594C379.881 171.939 405.316 199.447 424.801 233.21C489.055 344.581 399.268 431.72 356.571 464.724C320.73 427.77 298.218 394.895 284.542 366.454C245.202 284.68 278.932 239.599 278.932 239.599C242.565 287.646 249.398 339.12 269.574 383.285L197.477 314.167L352.254 149.594ZM296.518 112.198C218.339 68.6724 142.025 57.7405 142.025 57.7405C142.025 57.7405 188.3 77.8004 196.332 142.723L216.603 121.169C220.773 116.735 227.737 116.51 232.157 120.667L262.083 148.812L296.518 112.198ZM197.152 173.925C196.767 180.139 196.066 186.657 195.006 193.49C193.317 204.377 190.718 216.065 187.039 228.606L208.303 205.996L246.982 164.869L225.059 144.252L197.152 173.925ZM140.345 273.126C143.203 270.086 142.724 264.993 139.275 261.748C135.825 258.504 130.712 258.338 127.853 261.378C124.995 264.417 125.474 269.511 128.924 272.755C132.373 275.999 137.487 276.165 140.345 273.126ZM83.0501 202.641C91.6738 210.751 92.8717 223.486 85.7258 231.084C78.5798 238.682 65.796 238.267 57.1723 230.157C48.5486 222.046 47.3507 209.312 54.4966 201.714C61.6426 194.115 74.4264 194.531 83.0501 202.641ZM150.562 212.205C152.849 209.773 152.465 205.698 149.706 203.103C146.946 200.507 142.855 200.374 140.568 202.806C138.282 205.237 138.665 209.312 141.425 211.908C144.184 214.503 148.275 214.636 150.562 212.205ZM164.037 131.543C171.971 139.005 173.073 150.72 166.499 157.711C159.924 164.701 148.163 164.319 140.229 156.857C132.296 149.396 131.193 137.68 137.768 130.69C144.342 123.699 156.103 124.081 164.037 131.543Z" fill="white"/>
</svg>
