<svg width="372" height="220" viewBox="0 0 372 220" fill="none" xmlns="http://www.w3.org/2000/svg">
<path fill-rule="evenodd" clip-rule="evenodd" d="M61.5692 -126.093C73.4866 -126.346 85.4251 -125.185 97.1846 -122.796L247.591 21.4512C243.569 27.7065 239.324 33.9317 234.844 40.0874L61.5692 -126.093ZM77.9118 -166.292C76.3749 -166.129 74.8679 -165.643 73.5012 -164.836C70.4491 -164.447 67.4058 -165.287 65.1782 -167.423C60.9623 -171.467 61.2647 -178.623 65.8536 -183.408C70.4426 -188.193 77.5803 -188.794 81.7962 -184.751C86.0121 -180.708 85.7097 -173.551 81.1208 -168.766C80.1482 -167.752 79.0612 -166.926 77.9118 -166.292ZM33.3328 -122.726L42.3132 -114.114L-95.3414 27.7282C-96.1942 28.4506 -97.0316 29.164 -97.8533 29.8673C-70.8219 -65.8431 -20.6407 -110.729 33.3328 -122.726ZM221.312 57.5554C198.698 84.9626 170.943 110.127 136.991 129.282C24.9983 192.445 -61.2601 101.812 -93.8456 58.794C-56.5433 23.3155 -23.4497 1.12586 5.12291 -12.2712C87.2781 -50.8116 132.027 -16.6427 132.027 -16.6427C84.3378 -53.4773 32.7996 -47.1469 -11.5604 -27.4029L58.2578 -98.8219L221.312 57.5554ZM259.25 2.18652C303.537 -75.5633 315.214 -151.767 315.214 -151.767C315.214 -151.767 294.703 -105.69 229.705 -98.2927L251.06 -77.812C255.453 -73.5988 255.61 -66.6328 251.41 -62.2535L222.974 -32.6039L259.25 2.18652ZM198.496 -97.777C192.287 -98.2225 185.776 -98.9876 178.953 -100.114C168.084 -101.91 156.421 -104.623 143.917 -108.424L166.318 -86.94L207.065 -47.8615L227.896 -69.5815L198.496 -97.777ZM99.8555 -155.55C102.867 -152.662 107.965 -153.092 111.243 -156.509C114.52 -159.927 114.736 -165.039 111.725 -167.927C108.714 -170.815 103.616 -170.385 100.338 -166.968C97.0603 -163.55 96.8443 -158.438 99.8555 -155.55ZM170.896 -212.154C162.702 -203.61 149.957 -202.537 142.429 -209.756C134.901 -216.976 135.441 -229.755 143.635 -238.299C151.829 -246.843 164.574 -247.917 172.102 -240.697C179.631 -233.477 179.091 -220.698 170.896 -212.154ZM160.674 -144.739C163.083 -142.429 167.162 -142.772 169.784 -145.506C172.406 -148.24 172.579 -152.33 170.17 -154.64C167.761 -156.951 163.682 -156.607 161.06 -153.873C158.438 -151.139 158.265 -147.049 160.674 -144.739ZM241.2 -130.477C233.661 -122.616 221.936 -121.628 215.01 -128.271C208.084 -134.913 208.581 -146.67 216.119 -154.53C223.658 -162.391 235.384 -163.379 242.31 -156.736C249.236 -150.094 248.739 -138.337 241.2 -130.477Z" fill="#E8C547"/>
</svg>
