<svg width="453" height="178" viewBox="0 0 453 178" fill="none" xmlns="http://www.w3.org/2000/svg">
<path fill-rule="evenodd" clip-rule="evenodd" d="M304.799 -14.5674C293.472 -10.8524 281.714 -8.48334 269.769 -7.34129L83.8531 -101.494C85.8769 -108.65 88.1236 -115.842 90.615 -123.036L304.799 -14.5674ZM300.881 28.6498C302.304 28.0457 303.603 27.1416 304.676 25.9717C307.482 24.7101 310.638 24.6265 313.391 26.0209C318.603 28.6601 320.399 35.5941 317.404 41.5087C314.409 47.4232 307.756 50.0785 302.545 47.4394C297.333 44.8003 295.537 37.8661 298.532 31.9516C299.167 30.6981 299.966 29.5911 300.881 28.6498ZM330.828 -26.0166L319.728 -31.6382L410.07 -207.44C410.675 -208.379 411.268 -209.306 411.849 -210.218C413.884 -110.785 378.962 -53.223 330.828 -26.0166ZM98.4695 -143.69C112.115 -176.498 131.331 -208.658 158.227 -236.877C246.95 -329.936 355.878 -268.375 399.585 -236.721C374.242 -191.912 349.052 -161.041 325.624 -139.898C258.267 -79.0883 205.502 -98.7327 205.502 -98.7327C261.856 -77.3952 309.312 -98.4706 345.993 -130.286L300.019 -41.6194L98.4695 -143.69ZM78.3143 -79.6679C58.6082 7.61364 69.6464 83.9121 69.6464 83.9121C69.6464 83.9121 75.8387 33.8579 135.86 7.8394L109.463 -5.52871C104.033 -8.27871 101.853 -14.8967 104.594 -20.31L123.154 -56.9595L78.3143 -79.6679ZM165.563 -1.74909C171.633 -3.13265 178.084 -4.29806 184.939 -5.20855C195.86 -6.659 207.807 -7.46251 220.876 -7.4704L193.186 -21.4934L142.82 -47.0006L129.223 -20.1528L165.563 -1.74909ZM276.759 24.7694C273.037 22.8844 268.285 24.7809 266.146 29.0054C264.007 33.2299 265.29 38.1826 269.012 40.0676C272.734 41.9526 277.486 40.0561 279.625 35.8316C281.765 31.6071 280.481 26.6544 276.759 24.7694ZM225.298 99.6196C230.647 89.0584 242.526 84.3171 251.831 89.0296C261.137 93.7421 264.345 106.124 258.996 116.685C253.648 127.246 241.768 131.988 232.463 127.275C223.157 122.563 219.95 110.181 225.298 99.6196ZM215.43 32.1516C212.452 30.6436 208.651 32.1608 206.939 35.5405C205.228 38.9202 206.254 42.8824 209.232 44.3905C212.21 45.8985 216.011 44.3813 217.723 41.0016C219.434 37.6219 218.408 33.6597 215.43 32.1516ZM134.243 41.9763C139.164 32.2599 150.093 27.8979 158.654 32.2334C167.215 36.5689 170.166 47.9603 165.245 57.6767C160.324 67.3931 149.395 71.7551 140.834 67.4196C132.273 63.0841 129.322 51.6927 134.243 41.9763Z" fill="#E8C547" fill-opacity="0.5"/>
</svg>
