<svg width="153" height="140" viewBox="0 0 153 140" fill="none" xmlns="http://www.w3.org/2000/svg">
<path fill-rule="evenodd" clip-rule="evenodd" d="M101.682 -65.6825C93.657 -56.8684 84.5927 -49.0126 74.7614 -42.1324L-133.41 -32.4432C-135.176 -39.6671 -136.765 -47.0324 -138.142 -54.5201L101.682 -65.6825ZM119.57 -26.1464C120.51 -27.3731 121.195 -28.8003 121.552 -30.3468C123.372 -32.8274 126.077 -34.4554 129.16 -34.5989C134.995 -34.8705 139.975 -29.722 140.284 -23.0994C140.592 -16.4769 136.111 -10.888 130.276 -10.6164C124.441 -10.3448 119.461 -15.4933 119.153 -22.1159C119.088 -23.5194 119.237 -24.8765 119.57 -26.1464ZM118.69 -88.472L106.26 -87.8935L98.2391 -285.387C98.3027 -286.503 98.3623 -287.601 98.4183 -288.681C149.188 -203.162 147.167 -135.865 118.69 -88.472ZM-141.485 -76.3624C-145.779 -111.634 -144.907 -149.089 -135.409 -186.897C-104.064 -311.594 21.0558 -311.705 74.6866 -305.699C74.7154 -254.219 68.0087 -214.944 58.0415 -185.002C29.397 -98.8951 -26.1968 -89.987 -26.1968 -89.987C33.3547 -99.1907 64.2631 -140.915 80.5026 -186.674L84.1918 -86.8664L-141.485 -76.3624ZM-127.474 -10.7216C-101.611 74.9374 -54.4069 135.889 -54.4069 135.889C-54.4069 135.889 -73.6847 89.2829 -34.279 37.0655L-63.8359 38.4412C-69.9161 38.7242 -75.0741 34.0397 -75.3563 27.9785L-77.2663 -13.0585L-127.474 -10.7216ZM-13.1573 14.0845C-8.55734 9.88942 -3.51851 5.69651 1.9979 1.52608C10.7858 -5.11759 20.7857 -11.7042 32.1541 -18.1514L1.14919 -16.7083L-55.2471 -14.0834L-53.8479 15.9784L-13.1573 14.0845ZM96.6679 -17.6361C92.5001 -17.4421 89.3 -13.4503 89.5201 -8.72009C89.7403 -3.98989 93.2974 -0.312549 97.4652 -0.506533C101.633 -0.700518 104.833 -4.69237 104.613 -9.42257C104.393 -14.1528 100.836 -17.8301 96.6679 -17.6361ZM88.7742 72.8541C88.2238 61.0286 96.2241 51.0489 106.643 50.564C117.063 50.079 125.955 59.2724 126.506 71.0979C127.056 82.9234 119.056 92.903 108.637 93.388C98.2173 93.873 89.3246 84.6796 88.7742 72.8541ZM46.9401 19.0096C43.6058 19.1648 41.0457 22.3584 41.2218 26.1426C41.3979 29.9269 44.2437 32.8688 47.578 32.7136C50.9122 32.5584 53.4724 29.3649 53.2963 25.5806C53.1201 21.7964 50.2744 18.8544 46.9401 19.0096ZM-18.8636 67.5664C-19.3699 56.6869 -12.0096 47.5056 -2.42371 47.0594C7.16215 46.6132 15.3435 55.0712 15.8499 65.9507C16.3563 76.8303 8.99591 86.0116 -0.589945 86.4578C-10.1758 86.9039 -18.3572 78.446 -18.8636 67.5664Z" fill="#E8C547"/>
</svg>
