<svg width="514" height="511" viewBox="0 0 514 511" fill="none" xmlns="http://www.w3.org/2000/svg">
<path fill-rule="evenodd" clip-rule="evenodd" d="M345.235 200.552C345.408 212.471 344.168 224.402 341.701 236.145L196.453 385.585C190.224 381.522 184.028 377.235 177.902 372.714L345.235 200.552ZM385.324 217.163C385.171 215.625 384.696 214.115 383.898 212.743C383.529 209.688 384.389 206.65 386.541 204.437C390.612 200.248 397.766 200.598 402.521 205.219C407.275 209.84 407.828 216.982 403.757 221.17C399.686 225.359 392.531 225.009 387.777 220.388C386.769 219.409 385.951 218.316 385.324 217.163ZM342.057 172.294L333.385 181.217L192.465 42.6183C191.748 41.7607 191.041 40.9186 190.343 40.0923C285.871 67.762 330.42 118.242 342.057 172.294ZM160.525 359.065C133.269 336.269 108.29 308.347 89.3622 274.268C26.9488 161.856 118.156 76.2043 161.39 43.9068C196.619 81.445 218.587 114.686 231.793 143.347C269.784 225.758 235.317 270.278 235.317 270.278C272.469 222.836 266.483 171.256 247.036 126.765L317.987 197.059L160.525 359.065ZM215.639 397.372C293.092 442.178 369.215 454.363 369.215 454.363C369.215 454.363 323.276 433.545 316.313 368.499L295.691 389.717C291.448 394.082 284.481 394.192 280.13 389.962L250.671 361.33L215.639 397.372ZM316.006 337.287C316.493 331.081 317.301 324.576 318.474 317.76C320.341 306.903 323.132 295.259 327.017 282.78L305.384 305.038L266.034 345.523L287.615 366.498L316.006 337.287ZM374.436 239.034C371.528 242.026 371.924 247.127 375.319 250.428C378.715 253.728 383.825 253.978 386.733 250.986C389.641 247.994 389.246 242.893 385.85 239.593C382.455 236.293 377.344 236.042 374.436 239.034ZM430.565 310.451C422.076 302.2 421.087 289.448 428.357 281.968C435.627 274.489 448.402 275.114 456.891 283.365C465.381 291.616 466.369 304.368 459.099 311.848C451.829 319.328 439.054 318.702 430.565 310.451ZM363.219 299.779C360.893 302.173 361.209 306.254 363.926 308.894C366.642 311.534 370.731 311.734 373.057 309.341C375.383 306.947 375.067 302.867 372.35 300.226C369.634 297.586 365.546 297.386 363.219 299.779ZM348.42 380.208C340.61 372.617 339.7 360.885 346.389 354.004C353.077 347.122 364.83 347.698 372.641 355.289C380.451 362.88 381.36 374.612 374.672 381.493C367.983 388.375 356.23 387.799 348.42 380.208Z" fill="#F3F7F1"/>
</svg>
