<svg width="263" height="220" viewBox="0 0 263 220" fill="none" xmlns="http://www.w3.org/2000/svg">
<path fill-rule="evenodd" clip-rule="evenodd" d="M41.6401 -24.9035C50.0661 -33.335 59.4859 -40.7609 69.6265 -47.1765H278.024C279.451 -39.8784 280.696 -32.4472 281.724 -24.9035H41.6401ZM25.61 -65.2286C24.6137 -64.0469 23.8625 -62.6531 23.4345 -61.1249C21.5009 -58.7316 18.7232 -57.2311 15.6367 -57.2311C9.79535 -57.2311 5.05997 -62.6056 5.05997 -69.2353C5.05997 -75.865 9.79535 -81.2395 15.6367 -81.2395C21.4781 -81.2395 26.2135 -75.865 26.2135 -69.2353C26.2135 -67.8303 26.0009 -66.4816 25.61 -65.2286ZM23.5912 -2.92938H36.0341L34.8643 194.723C34.7489 195.835 34.6383 196.929 34.5321 198.006C-12.207 110.218 -7.05855 43.0888 23.5912 -2.92938ZM284.048 -2.92938C286.697 32.504 284.084 69.8773 272.839 107.203C235.73 230.308 110.74 224.601 57.4469 216.109C59.8117 164.683 68.3372 125.762 79.6857 96.3155C112.303 11.6339 168.25 5.32027 168.25 5.32027C108.335 11.7452 75.5206 51.9875 57.1711 96.9423L58.1264 -2.92938H284.048ZM273.104 -69.1506C251.251 -155.919 206.932 -219 206.932 -219C206.932 -219 224.022 -171.548 182.231 -121.219H211.82C217.907 -121.219 222.841 -116.3 222.841 -110.232V-69.1506H273.104ZM160.064 -99.2449C155.274 -95.2683 150.045 -91.3142 144.341 -87.4047C135.254 -81.1768 124.958 -75.0623 113.303 -69.1506H144.341H200.798V-99.2449H160.064ZM48.8826 -72.6648C53.0548 -72.6648 56.4371 -76.5036 56.4371 -81.2389C56.4371 -85.9742 53.0548 -89.813 48.8826 -89.813C44.7103 -89.813 41.328 -85.9742 41.328 -81.2389C41.328 -76.5036 44.7103 -72.6648 48.8826 -72.6648ZM60.975 -162.69C60.975 -150.852 52.5193 -141.255 42.0887 -141.255C31.6581 -141.255 23.2024 -150.852 23.2024 -162.69C23.2024 -174.528 31.6581 -184.125 42.0887 -184.125C52.5193 -184.125 60.975 -174.528 60.975 -162.69ZM100.26 -106.959C103.598 -106.959 106.304 -110.03 106.304 -113.818C106.304 -117.607 103.598 -120.678 100.26 -120.678C96.9225 -120.678 94.2166 -117.607 94.2166 -113.818C94.2166 -110.03 96.9225 -106.959 100.26 -106.959ZM168.25 -152.404C168.25 -141.512 160.471 -132.683 150.875 -132.683C141.279 -132.683 133.499 -141.512 133.499 -152.404C133.499 -163.295 141.279 -172.124 150.875 -172.124C160.471 -172.124 168.25 -163.295 168.25 -152.404Z" fill="#F3F7F1"/>
</svg>
