<svg width="208" height="187" viewBox="0 0 208 187" fill="none" xmlns="http://www.w3.org/2000/svg">
<path fill-rule="evenodd" clip-rule="evenodd" d="M156.483 246.575C148.458 255.389 139.394 263.245 129.563 270.125L-78.6091 279.814C-80.3743 272.59 -81.9636 265.225 -83.3408 257.737L156.483 246.575ZM174.371 286.111C175.311 284.884 175.997 283.457 176.353 281.91C178.173 279.43 180.878 277.802 183.961 277.658C189.797 277.387 194.777 282.535 195.085 289.158C195.393 295.78 190.913 301.369 185.078 301.641C179.243 301.912 174.262 296.764 173.954 290.141C173.889 288.738 174.039 287.381 174.371 286.111ZM173.491 223.785L161.061 224.364L153.04 26.8705C153.104 25.7546 153.164 24.6562 153.22 23.5761C203.99 109.096 201.968 176.392 173.491 223.785ZM-86.684 235.895C-90.978 200.623 -90.1052 163.169 -80.6075 125.361C-49.2624 0.663518 75.8571 0.552658 129.488 6.55784C129.517 58.0378 122.81 97.3136 112.843 127.256C84.1982 213.362 28.6045 222.27 28.6045 222.27C88.156 213.067 119.064 171.342 135.304 125.583L138.993 225.391L-86.684 235.895ZM-72.673 301.536C-46.8093 387.195 0.394356 448.146 0.394356 448.146C0.394356 448.146 -18.8834 401.54 20.5223 349.323L-9.03458 350.698C-15.1148 350.981 -20.2729 346.297 -20.555 340.236L-22.465 299.199L-72.673 301.536ZM41.644 326.342C46.2439 322.147 51.2828 317.954 56.7992 313.783C65.5871 307.14 75.587 300.553 86.9553 294.106L55.9505 295.549L-0.445835 298.174L0.953365 328.236L41.644 326.342ZM151.469 294.621C147.301 294.815 144.101 298.807 144.321 303.537C144.542 308.267 148.099 311.945 152.266 311.751C156.434 311.557 159.634 307.565 159.414 302.835C159.194 298.104 155.637 294.427 151.469 294.621ZM143.575 385.111C143.025 373.286 151.025 363.306 161.445 362.821C171.864 362.336 180.757 371.53 181.307 383.355C181.858 395.181 173.857 405.16 163.438 405.645C153.019 406.13 144.126 396.937 143.575 385.111ZM101.741 331.267C98.4071 331.422 95.8469 334.616 96.0231 338.4C96.1992 342.184 99.045 345.126 102.379 344.971C105.713 344.816 108.274 341.622 108.098 337.838C107.921 334.054 105.076 331.112 101.741 331.267ZM35.9377 379.824C35.4313 368.944 42.7917 359.763 52.3776 359.317C61.9634 358.87 70.1448 367.328 70.6512 378.208C71.1576 389.088 63.7972 398.269 54.2113 398.715C44.6255 399.161 36.4441 390.703 35.9377 379.824Z" fill="#E8C547"/>
</svg>
