<svg width="34" height="52" viewBox="0 0 34 52" fill="none" xmlns="http://www.w3.org/2000/svg">
<path fill-rule="evenodd" clip-rule="evenodd" d="M4.85184 22.6148C5.83363 21.6325 6.9312 20.7673 8.11277 20.0197H32.3949C32.5612 20.8701 32.7063 21.7359 32.826 22.6148H4.85184ZM2.98404 17.9164C2.86796 18.0541 2.78043 18.2165 2.73055 18.3946C2.50526 18.6734 2.1816 18.8482 1.82197 18.8482C1.14134 18.8482 0.58958 18.2221 0.58958 17.4496C0.58958 16.6771 1.14134 16.0509 1.82197 16.0509C2.5026 16.0509 3.05436 16.6771 3.05436 17.4496C3.05436 17.6133 3.02958 17.7704 2.98404 17.9164ZM2.74881 25.1751H4.19864L4.06234 48.2043C4.04889 48.3338 4.036 48.4613 4.02363 48.5868C-1.42235 38.3583 -0.822451 30.5369 2.74881 25.1751ZM33.0968 25.1751C33.4055 29.3036 33.101 33.6581 31.7908 38.007C27.4669 52.3504 12.9033 51.6855 6.69363 50.696C6.96916 44.7043 7.96254 40.1694 9.28485 36.7385C13.0853 26.8719 19.6043 26.1363 19.6043 26.1363C12.6231 26.8849 8.79955 31.5737 6.66149 36.8115L6.7728 25.1751H33.0968ZM31.8217 17.4595C29.2754 7.34973 24.1114 0 24.1114 0C24.1114 0 26.1027 5.52881 21.2333 11.3928H24.6809C25.3902 11.3928 25.9652 11.966 25.9652 12.6729V17.4595H31.8217ZM18.6504 13.9531C18.0923 14.4164 17.4831 14.8771 16.8184 15.3326C15.7596 16.0582 14.56 16.7707 13.2019 17.4595H16.8184H23.3967V13.9531H18.6504ZM5.69572 17.05C6.18187 17.05 6.57597 16.6027 6.57597 16.051C6.57597 15.4993 6.18187 15.052 5.69572 15.052C5.20958 15.052 4.81548 15.4993 4.81548 16.051C4.81548 16.6027 5.20958 17.05 5.69572 17.05ZM7.10471 6.56085C7.10471 7.94017 6.11947 9.05834 4.90411 9.05834C3.68875 9.05834 2.70351 7.94017 2.70351 6.56085C2.70351 5.18153 3.68875 4.06336 4.90411 4.06336C6.11947 4.06336 7.10471 5.18153 7.10471 6.56085ZM11.6822 13.0543C12.0711 13.0543 12.3864 12.6965 12.3864 12.2551C12.3864 11.8137 12.0711 11.4559 11.6822 11.4559C11.2933 11.4559 10.978 11.8137 10.978 12.2551C10.978 12.6965 11.2933 13.0543 11.6822 13.0543ZM19.6043 7.75936C19.6043 9.02834 18.6979 10.0571 17.5797 10.0571C16.4616 10.0571 15.5552 9.02834 15.5552 7.75936C15.5552 6.49037 16.4616 5.46165 17.5797 5.46165C18.6979 5.46165 19.6043 6.49037 19.6043 7.75936Z" fill="#F3F7F1"/>
</svg>
