<svg width="952" height="96" viewBox="0 0 952 96" fill="none" xmlns="http://www.w3.org/2000/svg">
<path d="M109.174 39.6905C109.174 39.6905 92.3383 46.5723 81.0297 17.0781C74.8866 1.05156 44.7642 -7.69204 32.7742 10.2932C43.646 11.5104 61.952 13.3559 75.1314 32.318C75.1314 32.318 68.1292 12.1383 32.7742 10.2932C26.7792 20.7841 29.4464 45.4902 51.2908 52.9636C80.1522 62.8324 109.174 39.6905 109.174 39.6905Z" fill="#245B09"/>
<path d="M125.012 40.3611C112.749 40.3611 103.582 43.5418 100.61 45.2103L91.8505 39.1097C91.1727 37.1805 90.2863 33.6662 92.1634 35.0427C94.0404 36.4192 97.3253 36.7634 98.7331 36.7634H310.668C311.45 36.8155 313.014 36.5131 313.014 34.8863L318.489 40.3611H125.012Z" fill="#245B09"/>
<path d="M389.94 39.3207C389.94 39.3207 373.104 46.1891 361.795 16.7524C355.652 0.757227 325.53 -7.9693 313.54 9.98081C324.412 11.1956 342.718 13.0376 355.897 31.9627C355.897 31.9627 348.895 11.8224 313.54 9.98081C307.545 20.4513 310.212 45.1091 332.056 52.568C360.918 62.4175 389.94 39.3207 389.94 39.3207Z" fill="#245B09"/>
<path d="M405.778 40.3612C393.514 40.3612 384.348 43.5418 381.376 45.2103L372.616 39.1098C371.938 37.1806 371.052 33.6663 372.929 35.0428C374.806 36.4193 378.091 36.7635 379.499 36.7635H591.434C592.216 36.8156 593.78 36.5132 593.78 34.8864L599.255 40.3612H591.434H405.778Z" fill="#245B09"/>
<path d="M670.705 39.3206C670.705 39.3206 653.87 46.189 642.561 16.7523C636.418 0.757106 606.295 -7.96942 594.305 9.98069C605.177 11.1955 623.483 13.0375 636.663 31.9626C636.663 31.9626 629.66 11.8222 594.305 9.98069C588.31 20.4512 590.978 45.109 612.822 52.5679C641.683 62.4174 670.705 39.3206 670.705 39.3206Z" fill="url(#paint0_linear)"/>
<path d="M686.544 40.361C674.28 40.361 665.114 43.5416 662.142 45.2101L653.382 39.1096C652.704 37.1804 651.818 33.666 653.695 35.0426C655.572 36.4191 658.857 36.7632 660.264 36.7632H886.187C886.97 36.8154 888.534 36.513 888.534 34.8862L894.009 40.361H886.187H686.544Z" fill="url(#paint1_linear)"/>
<path d="M865.792 39.329C865.792 39.329 882.628 46.1974 893.936 16.7607C900.08 0.765527 930.202 -7.961 942.192 9.98911C931.32 11.2039 913.014 13.0459 899.835 31.971C899.835 31.971 906.837 11.8307 942.192 9.98911C948.187 20.4596 945.52 45.1174 923.675 52.5763C894.814 62.4258 865.792 39.329 865.792 39.329Z" fill="#F1FAEA"/>
<path d="M56.5631 36.2903V21.5012H53.0123L54.0904 19.2981H59.106V36.2903H56.5631Z" fill="#F1FAEA"/>
<path d="M341.99 34.0637V36.2903H330.494L336.904 28.6145C337.701 27.6536 338.283 26.8098 338.65 26.0833C339.017 25.3567 339.201 24.6965 339.201 24.1028C339.201 23.2512 338.947 22.5833 338.439 22.0989C337.939 21.6067 337.252 21.3606 336.377 21.3606C335.595 21.3606 334.951 21.6067 334.443 22.0989C333.935 22.5833 333.65 23.2239 333.587 24.0208H330.904C330.904 22.4817 331.42 21.2551 332.451 20.3411C333.482 19.4192 334.869 18.9583 336.611 18.9583C338.267 18.9583 339.572 19.384 340.525 20.2356C341.486 21.0872 341.966 22.2473 341.966 23.7161C341.966 24.7629 341.689 25.8215 341.134 26.8918C340.587 27.9543 339.423 29.5012 337.642 31.5325L335.462 34.0637H341.99Z" fill="#F1FAEA"/>
<path d="M609.858 31.7083H612.53V31.8489C612.53 32.6379 612.799 33.2668 613.338 33.7356C613.878 34.2043 614.608 34.4387 615.53 34.4387C616.569 34.4387 617.37 34.1809 617.932 33.6653C618.503 33.1418 618.788 32.3918 618.788 31.4153C618.788 30.3918 618.495 29.6223 617.909 29.1067C617.331 28.5833 616.463 28.3215 615.307 28.3215C615.253 28.3215 615.167 28.3254 615.049 28.3333C614.932 28.3411 614.842 28.345 614.78 28.345V26.095C614.835 26.095 614.917 26.0989 615.026 26.1067C615.143 26.1145 615.229 26.1184 615.284 26.1184C616.299 26.1184 617.065 25.9075 617.581 25.4856C618.096 25.0559 618.354 24.427 618.354 23.5989C618.354 22.8645 618.12 22.2825 617.651 21.8528C617.19 21.4153 616.569 21.1965 615.788 21.1965C614.952 21.1965 614.295 21.3997 613.819 21.8059C613.35 22.2043 613.104 22.7668 613.081 23.4934H610.561C610.639 22.0325 611.135 20.9114 612.049 20.1301C612.963 19.3489 614.233 18.9583 615.858 18.9583C617.428 18.9583 618.67 19.3684 619.585 20.1887C620.506 21.009 620.967 22.1184 620.967 23.5168C620.967 24.5715 620.706 25.4387 620.182 26.1184C619.667 26.7903 618.948 27.1965 618.026 27.3372C619.112 27.5325 619.936 28.009 620.499 28.7668C621.069 29.5247 621.354 30.5286 621.354 31.7786C621.354 33.302 620.819 34.5129 619.749 35.4114C618.686 36.302 617.245 36.7473 615.424 36.7473C613.776 36.7473 612.448 36.2942 611.44 35.3879C610.432 34.4739 609.905 33.2473 609.858 31.7083Z" fill="#F1FAEA"/>
<path d="M914.122 24.7004L909.751 30.8645H914.051V26.3997C914.051 26.1653 914.055 25.9036 914.063 25.6145C914.079 25.3254 914.098 25.0208 914.122 24.7004ZM914.051 36.2903V32.8098H905.825L915.809 18.9583H916.594V30.8645H918.68V32.8098H916.594V36.2903H914.051Z" fill="black" fill-opacity="0.25"/>
<path d="M17.2207 81.6387V87.4131H15.7266V74.5459H18.4248C19.3682 74.5459 20.0625 74.5957 20.5078 74.6953C20.9531 74.7949 21.3398 74.959 21.668 75.1875C22.0781 75.4805 22.3975 75.8818 22.626 76.3916C22.8604 76.9014 22.9775 77.4668 22.9775 78.0879C22.9775 78.709 22.8604 79.2744 22.626 79.7842C22.3975 80.2939 22.0781 80.6953 21.668 80.9883C21.3398 81.2227 20.9531 81.3896 20.5078 81.4893C20.0684 81.5889 19.374 81.6387 18.4248 81.6387H17.9941H17.2207ZM17.2207 80.25H17.9941C19.3066 80.25 20.1885 80.0977 20.6396 79.793C21.0967 79.4824 21.3252 78.9434 21.3252 78.1758C21.3252 77.3555 21.0908 76.7783 20.6221 76.4443C20.1592 76.1104 19.2832 75.9434 17.9941 75.9434H17.2207V80.25ZM24.4277 87.4131V79.3711H25.6494V81.041C26.0186 80.3438 26.4111 79.8457 26.8271 79.5469C27.2432 79.248 27.75 79.0986 28.3477 79.0986C28.5117 79.0986 28.6699 79.1133 28.8223 79.1426C28.9746 79.166 29.127 79.2041 29.2793 79.2568L28.8223 80.4961C28.6641 80.4434 28.5146 80.4053 28.374 80.3818C28.2334 80.3525 28.0986 80.3379 27.9697 80.3379C27.2432 80.3379 26.6982 80.6016 26.335 81.1289C25.9717 81.6504 25.79 82.4385 25.79 83.4932V87.4131H24.4277ZM31.5469 83.4141C31.5469 84.2637 31.8311 84.9844 32.3994 85.5762C32.9678 86.1621 33.6562 86.4551 34.4648 86.4551C35.2676 86.4551 35.9502 86.1621 36.5127 85.5762C37.0752 84.9844 37.3564 84.2637 37.3564 83.4141C37.3564 82.5645 37.0752 81.8467 36.5127 81.2607C35.9502 80.6689 35.2676 80.373 34.4648 80.373C33.6504 80.373 32.959 80.6689 32.3906 81.2607C31.8281 81.8467 31.5469 82.5645 31.5469 83.4141ZM30.0879 83.4141C30.0879 82.8223 30.1963 82.2656 30.4131 81.7441C30.6299 81.2168 30.9463 80.748 31.3623 80.3379C31.7783 79.9277 32.25 79.6172 32.7773 79.4062C33.3047 79.1895 33.8672 79.0811 34.4648 79.0811C35.0508 79.0811 35.6045 79.1895 36.126 79.4062C36.6533 79.623 37.1309 79.9395 37.5586 80.3555C37.9746 80.7598 38.291 81.2256 38.5078 81.7529C38.7246 82.2744 38.833 82.8281 38.833 83.4141C38.833 84 38.7246 84.5537 38.5078 85.0752C38.291 85.5908 37.9746 86.0508 37.5586 86.4551C37.1309 86.877 36.6504 87.1992 36.1172 87.4219C35.5898 87.6445 35.0391 87.7559 34.4648 87.7559C33.873 87.7559 33.3105 87.6445 32.7773 87.4219C32.25 87.2051 31.7783 86.8916 31.3623 86.4814C30.9463 86.0596 30.6299 85.5908 30.4131 85.0752C30.1963 84.5596 30.0879 84.0059 30.0879 83.4141ZM47.1387 83.4316C47.1387 82.5352 46.8896 81.8145 46.3916 81.2695C45.8936 80.7188 45.2373 80.4434 44.4229 80.4434C43.6084 80.4434 42.9727 80.6924 42.5156 81.1904C42.0586 81.6885 41.8301 82.377 41.8301 83.2559C41.8301 84.2461 42.0615 85.0225 42.5244 85.585C42.9873 86.1416 43.626 86.4199 44.4404 86.4199C45.2842 86.4199 45.9434 86.1562 46.418 85.6289C46.8984 85.1016 47.1387 84.3691 47.1387 83.4316ZM48.4746 73.79V87.4131H47.1387V85.9541C46.8223 86.5342 46.4121 86.9795 45.9082 87.29C45.4043 87.6006 44.8418 87.7559 44.2207 87.7559C43.0664 87.7559 42.1348 87.3604 41.4258 86.5693C40.7227 85.7725 40.3711 84.7207 40.3711 83.4141C40.3711 82.0957 40.7168 81.0439 41.4082 80.2588C42.0996 79.4736 43.0195 79.0811 44.168 79.0811C44.8359 79.0811 45.416 79.2334 45.9082 79.5381C46.4004 79.8369 46.7988 80.2852 47.1035 80.8828V73.79H48.4746ZM52.5791 79.3711V83.3262C52.5791 84.4805 52.749 85.2891 53.0889 85.752C53.4346 86.209 54.0146 86.4375 54.8291 86.4375C55.6436 86.4375 56.2178 86.2119 56.5518 85.7607C56.8916 85.3037 57.0615 84.4922 57.0615 83.3262V79.3711H58.4678V84.0645C58.4678 85.2773 58.1572 86.1973 57.5361 86.8242C56.915 87.4453 56.001 87.7559 54.7939 87.7559C53.5986 87.7559 52.6904 87.4424 52.0693 86.8154C51.4482 86.1885 51.1377 85.2715 51.1377 84.0645V79.3711H52.5791ZM67.3008 85.5059V87.1055C66.9375 87.3223 66.5273 87.4834 66.0703 87.5889C65.6191 87.7002 65.1299 87.7559 64.6025 87.7559C63.3604 87.7559 62.3584 87.3633 61.5967 86.5781C60.8408 85.7871 60.4629 84.75 60.4629 83.4668C60.4629 82.1777 60.8555 81.126 61.6406 80.3115C62.4258 79.4912 63.4307 79.0811 64.6553 79.0811C65.1006 79.0811 65.5342 79.1279 65.9561 79.2217C66.3838 79.3154 66.7852 79.4531 67.1602 79.6348V81.1113C66.8086 80.8828 66.4453 80.71 66.0703 80.5928C65.6953 80.4697 65.3145 80.4082 64.9277 80.4082C64.0254 80.4082 63.3018 80.6924 62.7568 81.2607C62.2119 81.8232 61.9395 82.5732 61.9395 83.5107C61.9395 84.3369 62.2119 85.0283 62.7568 85.585C63.3076 86.1416 63.9961 86.4199 64.8223 86.4199C65.2383 86.4199 65.6455 86.3467 66.0439 86.2002C66.4424 86.0537 66.8613 85.8223 67.3008 85.5059ZM69.4277 80.5049H67.9512V79.3711H69.4277V76.1279H70.834V79.3711H72.3105V80.5049H70.834V87.4131H69.4277V80.5049ZM89.7656 77.6221C89.1504 76.9541 88.4941 76.4619 87.7969 76.1455C87.0996 75.8232 86.3291 75.6621 85.4854 75.6621C84.8057 75.6621 84.1406 75.7998 83.4902 76.0752C82.8457 76.3506 82.2861 76.7344 81.8115 77.2266C81.3193 77.7363 80.9502 78.3076 80.7041 78.9404C80.458 79.5674 80.335 80.2617 80.335 81.0234C80.335 81.6211 80.4082 82.1719 80.5547 82.6758C80.7012 83.1797 80.9209 83.6426 81.2139 84.0645C81.7295 84.7969 82.3623 85.3623 83.1123 85.7607C83.8682 86.1533 84.6826 86.3496 85.5557 86.3496C86.376 86.3496 87.1377 86.1797 87.8408 85.8398C88.5439 85.5 89.1855 84.9932 89.7656 84.3193V86.3496C89.127 86.8125 88.4385 87.1641 87.7002 87.4043C86.9678 87.6387 86.209 87.7559 85.4238 87.7559C84.7441 87.7559 84.082 87.6533 83.4375 87.4482C82.793 87.249 82.1895 86.9561 81.627 86.5693C80.6895 85.9189 79.9717 85.1191 79.4736 84.1699C78.9814 83.2207 78.7354 82.1777 78.7354 81.041C78.7354 80.0508 78.8994 79.1514 79.2275 78.3428C79.5615 77.5283 80.0684 76.79 80.748 76.1279C81.4043 75.4951 82.1309 75.0234 82.9277 74.7129C83.7246 74.3965 84.5947 74.2383 85.5381 74.2383C86.2822 74.2383 87.0029 74.3525 87.7002 74.5811C88.3975 74.8037 89.0859 75.1523 89.7656 75.627V77.6221ZM98.3965 83.4668C98.3965 82.5586 98.1475 81.8291 97.6494 81.2783C97.1572 80.7217 96.5127 80.4434 95.7158 80.4434C94.8896 80.4434 94.2451 80.6982 93.7822 81.208C93.3193 81.7178 93.0879 82.4297 93.0879 83.3438C93.0879 84.3164 93.3193 85.0664 93.7822 85.5938C94.251 86.1211 94.9131 86.3848 95.7686 86.3848C96.5889 86.3848 97.2305 86.1299 97.6934 85.6201C98.1621 85.1045 98.3965 84.3867 98.3965 83.4668ZM99.7324 79.3711V87.4131H98.3965V85.9541C98.0742 86.54 97.6611 86.9883 97.1572 87.2988C96.6592 87.6035 96.0996 87.7559 95.4785 87.7559C94.3242 87.7559 93.3926 87.3604 92.6836 86.5693C91.9805 85.7725 91.6289 84.7207 91.6289 83.4141C91.6289 82.0898 91.9717 81.0381 92.6572 80.2588C93.3428 79.4736 94.2598 79.0811 95.4082 79.0811C96.082 79.0811 96.665 79.2334 97.1572 79.5381C97.6553 79.8369 98.0566 80.2852 98.3613 80.8828V79.3711H99.7324ZM102.703 80.5049H101.227V79.3711H102.703V76.1279H104.109V79.3711H105.586V80.5049H104.109V87.4131H102.703V80.5049ZM112.854 82.4824C112.808 81.7734 112.57 81.2285 112.143 80.8477C111.721 80.4609 111.141 80.2676 110.402 80.2676C109.734 80.2676 109.178 80.4697 108.732 80.874C108.287 81.2725 108.029 81.8086 107.959 82.4824H112.854ZM114.331 83.5986H107.959V83.7217C107.959 84.583 108.205 85.2803 108.697 85.8135C109.189 86.3408 109.831 86.6045 110.622 86.6045C111.161 86.6045 111.647 86.4609 112.081 86.1738C112.515 85.8809 112.898 85.4414 113.232 84.8555L114.278 85.5586C113.874 86.2852 113.358 86.833 112.731 87.2021C112.104 87.5713 111.378 87.7559 110.552 87.7559C109.327 87.7559 108.337 87.3516 107.581 86.543C106.825 85.7344 106.447 84.6738 106.447 83.3613C106.447 82.1016 106.822 81.0703 107.572 80.2676C108.322 79.4648 109.286 79.0635 110.464 79.0635C111.653 79.0635 112.594 79.4443 113.285 80.2061C113.982 80.9678 114.331 82.0078 114.331 83.3262V83.5986ZM122.566 83.4141C122.566 82.5117 122.32 81.7852 121.828 81.2344C121.336 80.6836 120.688 80.4082 119.886 80.4082C119.06 80.4082 118.415 80.6631 117.952 81.1729C117.489 81.6826 117.258 82.3945 117.258 83.3086C117.258 84.2812 117.489 85.0312 117.952 85.5586C118.421 86.0859 119.083 86.3496 119.938 86.3496C120.759 86.3496 121.4 86.0918 121.863 85.5762C122.332 85.0547 122.566 84.334 122.566 83.4141ZM123.902 79.3711V87.2725C123.902 88.1455 123.844 88.7666 123.727 89.1357C123.609 89.5049 123.416 89.8359 123.146 90.1289C122.771 90.5332 122.312 90.835 121.767 91.0342C121.228 91.2334 120.606 91.333 119.903 91.333C118.685 91.333 117.732 91.0547 117.047 90.498C116.367 89.9414 116.013 89.1533 115.983 88.1338H117.53V88.2393C117.53 88.8428 117.738 89.3086 118.154 89.6367C118.57 89.9648 119.159 90.1289 119.921 90.1289C120.472 90.1289 120.94 90.0381 121.327 89.8564C121.72 89.6807 122.019 89.417 122.224 89.0654C122.347 88.8662 122.435 88.6348 122.487 88.3711C122.54 88.1074 122.566 87.7295 122.566 87.2373V86.6045V85.8838C122.256 86.458 121.849 86.9004 121.345 87.2109C120.841 87.5156 120.275 87.668 119.648 87.668C118.494 87.668 117.562 87.2754 116.854 86.4902C116.15 85.7051 115.799 84.6621 115.799 83.3613C115.799 82.0488 116.142 81.0088 116.827 80.2412C117.513 79.4678 118.43 79.0811 119.578 79.0811C120.246 79.0811 120.832 79.2334 121.336 79.5381C121.84 79.8369 122.238 80.2793 122.531 80.8652V79.3711H123.902ZM127.506 83.4141C127.506 84.2637 127.79 84.9844 128.358 85.5762C128.927 86.1621 129.615 86.4551 130.424 86.4551C131.227 86.4551 131.909 86.1621 132.472 85.5762C133.034 84.9844 133.315 84.2637 133.315 83.4141C133.315 82.5645 133.034 81.8467 132.472 81.2607C131.909 80.6689 131.227 80.373 130.424 80.373C129.609 80.373 128.918 80.6689 128.35 81.2607C127.787 81.8467 127.506 82.5645 127.506 83.4141ZM126.047 83.4141C126.047 82.8223 126.155 82.2656 126.372 81.7441C126.589 81.2168 126.905 80.748 127.321 80.3379C127.737 79.9277 128.209 79.6172 128.736 79.4062C129.264 79.1895 129.826 79.0811 130.424 79.0811C131.01 79.0811 131.563 79.1895 132.085 79.4062C132.612 79.623 133.09 79.9395 133.518 80.3555C133.934 80.7598 134.25 81.2256 134.467 81.7529C134.684 82.2744 134.792 82.8281 134.792 83.4141C134.792 84 134.684 84.5537 134.467 85.0752C134.25 85.5908 133.934 86.0508 133.518 86.4551C133.09 86.877 132.609 87.1992 132.076 87.4219C131.549 87.6445 130.998 87.7559 130.424 87.7559C129.832 87.7559 129.27 87.6445 128.736 87.4219C128.209 87.2051 127.737 86.8916 127.321 86.4814C126.905 86.0596 126.589 85.5908 126.372 85.0752C126.155 84.5596 126.047 84.0059 126.047 83.4141ZM136.963 87.4131V79.3711H138.185V81.041C138.554 80.3438 138.946 79.8457 139.362 79.5469C139.778 79.248 140.285 79.0986 140.883 79.0986C141.047 79.0986 141.205 79.1133 141.357 79.1426C141.51 79.166 141.662 79.2041 141.814 79.2568L141.357 80.4961C141.199 80.4434 141.05 80.4053 140.909 80.3818C140.769 80.3525 140.634 80.3379 140.505 80.3379C139.778 80.3379 139.233 80.6016 138.87 81.1289C138.507 81.6504 138.325 82.4385 138.325 83.4932V87.4131H136.963ZM143.019 75.4951C143.019 75.2197 143.115 74.9854 143.309 74.792C143.508 74.5928 143.748 74.4932 144.029 74.4932C144.305 74.4932 144.539 74.5928 144.732 74.792C144.932 74.9912 145.031 75.2314 145.031 75.5127C145.031 75.7881 144.935 76.0225 144.741 76.2158C144.548 76.4092 144.311 76.5059 144.029 76.5059C143.748 76.5059 143.508 76.4092 143.309 76.2158C143.115 76.0225 143.019 75.7822 143.019 75.4951ZM143.344 87.4131V79.3711H144.732V87.4131H143.344ZM153.337 82.4824C153.29 81.7734 153.053 81.2285 152.625 80.8477C152.203 80.4609 151.623 80.2676 150.885 80.2676C150.217 80.2676 149.66 80.4697 149.215 80.874C148.77 81.2725 148.512 81.8086 148.441 82.4824H153.337ZM154.813 83.5986H148.441V83.7217C148.441 84.583 148.688 85.2803 149.18 85.8135C149.672 86.3408 150.313 86.6045 151.104 86.6045C151.644 86.6045 152.13 86.4609 152.563 86.1738C152.997 85.8809 153.381 85.4414 153.715 84.8555L154.761 85.5586C154.356 86.2852 153.841 86.833 153.214 87.2021C152.587 87.5713 151.86 87.7559 151.034 87.7559C149.81 87.7559 148.819 87.3516 148.063 86.543C147.308 85.7344 146.93 84.6738 146.93 83.3613C146.93 82.1016 147.305 81.0703 148.055 80.2676C148.805 79.4648 149.769 79.0635 150.946 79.0635C152.136 79.0635 153.076 79.4443 153.768 80.2061C154.465 80.9678 154.813 82.0078 154.813 83.3262V83.5986ZM156.044 86.0596L157.222 85.2686C157.444 85.6963 157.726 86.0186 158.065 86.2354C158.405 86.4463 158.807 86.5518 159.27 86.5518C159.721 86.5518 160.084 86.4404 160.359 86.2178C160.641 85.9951 160.781 85.7021 160.781 85.3389C160.781 85.0576 160.685 84.8232 160.491 84.6357C160.304 84.4482 159.979 84.2754 159.516 84.1172L159.287 84.0381C157.33 83.3643 156.352 82.5205 156.352 81.5068C156.352 80.792 156.615 80.209 157.143 79.7578C157.67 79.3066 158.355 79.0811 159.199 79.0811C159.896 79.0811 160.494 79.2217 160.992 79.5029C161.49 79.7783 161.848 80.1709 162.064 80.6807L160.948 81.3662C160.784 80.9971 160.541 80.7129 160.219 80.5137C159.902 80.3145 159.533 80.2148 159.111 80.2148C158.707 80.2148 158.376 80.3291 158.118 80.5576C157.866 80.7803 157.74 81.0674 157.74 81.4189C157.74 81.9111 158.273 82.3242 159.34 82.6582C159.539 82.7227 159.697 82.7725 159.814 82.8076C160.688 83.0889 161.294 83.4111 161.634 83.7744C161.979 84.1318 162.152 84.6064 162.152 85.1982C162.152 85.96 161.88 86.5781 161.335 87.0527C160.796 87.5215 160.09 87.7559 159.217 87.7559C158.467 87.7559 157.828 87.6152 157.301 87.334C156.779 87.0527 156.36 86.6279 156.044 86.0596Z" fill="#10150C"/>
<path d="M344.988 77.6221C344.373 76.9541 343.717 76.4619 343.02 76.1455C342.322 75.8232 341.552 75.6621 340.708 75.6621C340.028 75.6621 339.363 75.7998 338.713 76.0752C338.068 76.3506 337.509 76.7344 337.034 77.2266C336.542 77.7363 336.173 78.3076 335.927 78.9404C335.681 79.5674 335.558 80.2617 335.558 81.0234C335.558 81.6211 335.631 82.1719 335.777 82.6758C335.924 83.1797 336.144 83.6426 336.437 84.0645C336.952 84.7969 337.585 85.3623 338.335 85.7607C339.091 86.1533 339.905 86.3496 340.778 86.3496C341.599 86.3496 342.36 86.1797 343.063 85.8398C343.767 85.5 344.408 84.9932 344.988 84.3193V86.3496C344.35 86.8125 343.661 87.1641 342.923 87.4043C342.19 87.6387 341.432 87.7559 340.646 87.7559C339.967 87.7559 339.305 87.6533 338.66 87.4482C338.016 87.249 337.412 86.9561 336.85 86.5693C335.912 85.9189 335.194 85.1191 334.696 84.1699C334.204 83.2207 333.958 82.1777 333.958 81.041C333.958 80.0508 334.122 79.1514 334.45 78.3428C334.784 77.5283 335.291 76.79 335.971 76.1279C336.627 75.4951 337.354 75.0234 338.15 74.7129C338.947 74.3965 339.817 74.2383 340.761 74.2383C341.505 74.2383 342.226 74.3525 342.923 74.5811C343.62 74.8037 344.309 75.1523 344.988 75.627V77.6221ZM353.619 83.4668C353.619 82.5586 353.37 81.8291 352.872 81.2783C352.38 80.7217 351.735 80.4434 350.938 80.4434C350.112 80.4434 349.468 80.6982 349.005 81.208C348.542 81.7178 348.311 82.4297 348.311 83.3438C348.311 84.3164 348.542 85.0664 349.005 85.5938C349.474 86.1211 350.136 86.3848 350.991 86.3848C351.812 86.3848 352.453 86.1299 352.916 85.6201C353.385 85.1045 353.619 84.3867 353.619 83.4668ZM354.955 79.3711V87.4131H353.619V85.9541C353.297 86.54 352.884 86.9883 352.38 87.2988C351.882 87.6035 351.322 87.7559 350.701 87.7559C349.547 87.7559 348.615 87.3604 347.906 86.5693C347.203 85.7725 346.852 84.7207 346.852 83.4141C346.852 82.0898 347.194 81.0381 347.88 80.2588C348.565 79.4736 349.482 79.0811 350.631 79.0811C351.305 79.0811 351.888 79.2334 352.38 79.5381C352.878 79.8369 353.279 80.2852 353.584 80.8828V79.3711H354.955ZM357.732 87.4131V79.3711H358.954V81.041C359.323 80.3438 359.716 79.8457 360.132 79.5469C360.548 79.248 361.055 79.0986 361.652 79.0986C361.816 79.0986 361.975 79.1133 362.127 79.1426C362.279 79.166 362.432 79.2041 362.584 79.2568L362.127 80.4961C361.969 80.4434 361.819 80.4053 361.679 80.3818C361.538 80.3525 361.403 80.3379 361.274 80.3379C360.548 80.3379 360.003 80.6016 359.64 81.1289C359.276 81.6504 359.095 82.4385 359.095 83.4932V87.4131H357.732ZM364.254 80.5049H362.777V79.3711H364.254V76.1279H365.66V79.3711H367.137V80.5049H365.66V87.4131H364.254V80.5049Z" fill="#10150C"/>
<path d="M602.041 81.6387V87.4131H600.547V74.5459H603.245C604.188 74.5459 604.883 74.5957 605.328 74.6953C605.773 74.7949 606.16 74.959 606.488 75.1875C606.898 75.4805 607.218 75.8818 607.446 76.3916C607.681 76.9014 607.798 77.4668 607.798 78.0879C607.798 78.709 607.681 79.2744 607.446 79.7842C607.218 80.2939 606.898 80.6953 606.488 80.9883C606.16 81.2227 605.773 81.3896 605.328 81.4893C604.889 81.5889 604.194 81.6387 603.245 81.6387H602.814H602.041ZM602.041 80.25H602.814C604.127 80.25 605.009 80.0977 605.46 79.793C605.917 79.4824 606.146 78.9434 606.146 78.1758C606.146 77.3555 605.911 76.7783 605.442 76.4443C604.979 76.1104 604.104 75.9434 602.814 75.9434H602.041V80.25ZM614.715 83.4668C614.715 82.5586 614.466 81.8291 613.968 81.2783C613.476 80.7217 612.831 80.4434 612.034 80.4434C611.208 80.4434 610.563 80.6982 610.101 81.208C609.638 81.7178 609.406 82.4297 609.406 83.3438C609.406 84.3164 609.638 85.0664 610.101 85.5938C610.569 86.1211 611.231 86.3848 612.087 86.3848C612.907 86.3848 613.549 86.1299 614.012 85.6201C614.48 85.1045 614.715 84.3867 614.715 83.4668ZM616.051 79.3711V87.4131H614.715V85.9541C614.393 86.54 613.979 86.9883 613.476 87.2988C612.978 87.6035 612.418 87.7559 611.797 87.7559C610.643 87.7559 609.711 87.3604 609.002 86.5693C608.299 85.7725 607.947 84.7207 607.947 83.4141C607.947 82.0898 608.29 81.0381 608.976 80.2588C609.661 79.4736 610.578 79.0811 611.727 79.0811C612.4 79.0811 612.983 79.2334 613.476 79.5381C613.974 79.8369 614.375 80.2852 614.68 80.8828V79.3711H616.051ZM618.485 91.333L620.665 86.6221L617.51 79.3711H619.101L621.438 85.1455L623.917 79.3711H625.429L620.032 91.333H618.485ZM637.936 87.4131V82.6758C637.936 81.8613 637.771 81.2578 637.443 80.8652C637.115 80.4668 636.611 80.2676 635.932 80.2676C635.562 80.2676 635.22 80.3438 634.903 80.4961C634.593 80.6426 634.329 80.8535 634.112 81.1289C633.954 81.3398 633.84 81.5859 633.77 81.8672C633.699 82.1484 633.664 82.6113 633.664 83.2559V87.4131H632.337V82.6758C632.337 81.8613 632.173 81.2578 631.845 80.8652C631.517 80.4668 631.013 80.2676 630.333 80.2676C629.964 80.2676 629.618 80.3438 629.296 80.4961C628.979 80.6426 628.713 80.8535 628.496 81.1289C628.344 81.334 628.232 81.5713 628.162 81.8408C628.098 82.1104 628.065 82.582 628.065 83.2559V87.4131H626.738V79.3711H628.083V80.6104C628.417 80.0947 628.815 79.7109 629.278 79.459C629.741 79.207 630.274 79.0811 630.878 79.0811C631.528 79.0811 632.082 79.2217 632.539 79.5029C632.996 79.7783 633.342 80.1826 633.576 80.7158C633.922 80.165 634.329 79.7549 634.798 79.4854C635.272 79.2158 635.82 79.0811 636.441 79.0811C637.338 79.0811 638.038 79.333 638.542 79.8369C639.046 80.3408 639.298 81.041 639.298 81.9375V87.4131H637.936ZM647.718 82.4824C647.671 81.7734 647.434 81.2285 647.006 80.8477C646.584 80.4609 646.004 80.2676 645.266 80.2676C644.598 80.2676 644.041 80.4697 643.596 80.874C643.15 81.2725 642.893 81.8086 642.822 82.4824H647.718ZM649.194 83.5986H642.822V83.7217C642.822 84.583 643.068 85.2803 643.561 85.8135C644.053 86.3408 644.694 86.6045 645.485 86.6045C646.024 86.6045 646.511 86.4609 646.944 86.1738C647.378 85.8809 647.762 85.4414 648.096 84.8555L649.142 85.5586C648.737 86.2852 648.222 86.833 647.595 87.2021C646.968 87.5713 646.241 87.7559 645.415 87.7559C644.19 87.7559 643.2 87.3516 642.444 86.543C641.688 85.7344 641.311 84.6738 641.311 83.3613C641.311 82.1016 641.686 81.0703 642.436 80.2676C643.186 79.4648 644.149 79.0635 645.327 79.0635C646.517 79.0635 647.457 79.4443 648.148 80.2061C648.846 80.9678 649.194 82.0078 649.194 83.3262V83.5986ZM651.277 87.4131V79.3711H652.622V80.6104C652.968 80.0947 653.384 79.7109 653.87 79.459C654.356 79.207 654.919 79.0811 655.558 79.0811C656.507 79.0811 657.248 79.333 657.781 79.8369C658.314 80.3408 658.581 81.041 658.581 81.9375V87.4131H657.175V82.6758C657.175 81.8613 657.002 81.2578 656.656 80.8652C656.316 80.4668 655.789 80.2676 655.074 80.2676C654.664 80.2676 654.289 80.3438 653.949 80.4961C653.615 80.6426 653.337 80.8535 653.114 81.1289C652.944 81.3398 652.821 81.5801 652.745 81.8496C652.675 82.1191 652.64 82.5879 652.64 83.2559V87.4131H651.277ZM661.525 80.5049H660.049V79.3711H661.525V76.1279H662.932V79.3711H664.408V80.5049H662.932V87.4131H661.525V80.5049Z" fill="#10150C"/>
<path d="M898.231 80.2676C899.069 80.625 899.699 81.0996 900.121 81.6914C900.549 82.2832 900.763 82.9834 900.763 83.792C900.763 84.9756 900.385 85.9307 899.629 86.6572C898.879 87.3779 897.883 87.7383 896.641 87.7383C895.627 87.7383 894.777 87.4805 894.092 86.9648C893.406 86.4434 892.943 85.7051 892.703 84.75L894.092 84.0645C894.279 84.8438 894.587 85.4355 895.015 85.8398C895.448 86.2383 895.99 86.4375 896.641 86.4375C897.408 86.4375 898.029 86.2178 898.504 85.7783C898.979 85.333 899.216 84.7559 899.216 84.0469C899.216 83.4727 899.049 82.9746 898.715 82.5527C898.387 82.125 897.889 81.7646 897.221 81.4717L895.656 80.8037C894.801 80.4463 894.162 79.9863 893.74 79.4238C893.324 78.8613 893.116 78.1875 893.116 77.4023C893.116 76.4883 893.456 75.7324 894.136 75.1348C894.815 74.5371 895.683 74.2383 896.737 74.2383C897.511 74.2383 898.179 74.4023 898.741 74.7305C899.31 75.0586 899.752 75.542 900.068 76.1807L898.803 76.9893C898.516 76.4912 898.193 76.1221 897.836 75.8818C897.479 75.6357 897.074 75.5127 896.623 75.5127C896.049 75.5127 895.577 75.6885 895.208 76.04C894.845 76.3916 894.663 76.8398 894.663 77.3848C894.663 77.8418 894.804 78.2373 895.085 78.5713C895.366 78.9053 895.803 79.2012 896.395 79.459L898.231 80.2676ZM903.962 79.3711V83.3262C903.962 84.4805 904.132 85.2891 904.472 85.752C904.817 86.209 905.397 86.4375 906.212 86.4375C907.026 86.4375 907.601 86.2119 907.935 85.7607C908.274 85.3037 908.444 84.4922 908.444 83.3262V79.3711H909.851V84.0645C909.851 85.2773 909.54 86.1973 908.919 86.8242C908.298 87.4453 907.384 87.7559 906.177 87.7559C904.981 87.7559 904.073 87.4424 903.452 86.8154C902.831 86.1885 902.521 85.2715 902.521 84.0645V79.3711H903.962ZM918.684 85.5059V87.1055C918.32 87.3223 917.91 87.4834 917.453 87.5889C917.002 87.7002 916.513 87.7559 915.985 87.7559C914.743 87.7559 913.741 87.3633 912.979 86.5781C912.224 85.7871 911.846 84.75 911.846 83.4668C911.846 82.1777 912.238 81.126 913.023 80.3115C913.809 79.4912 914.813 79.0811 916.038 79.0811C916.483 79.0811 916.917 79.1279 917.339 79.2217C917.767 79.3154 918.168 79.4531 918.543 79.6348V81.1113C918.191 80.8828 917.828 80.71 917.453 80.5928C917.078 80.4697 916.697 80.4082 916.311 80.4082C915.408 80.4082 914.685 80.6924 914.14 81.2607C913.595 81.8232 913.322 82.5732 913.322 83.5107C913.322 84.3369 913.595 85.0283 914.14 85.585C914.69 86.1416 915.379 86.4199 916.205 86.4199C916.621 86.4199 917.028 86.3467 917.427 86.2002C917.825 86.0537 918.244 85.8223 918.684 85.5059ZM926.77 85.5059V87.1055C926.406 87.3223 925.996 87.4834 925.539 87.5889C925.088 87.7002 924.599 87.7559 924.071 87.7559C922.829 87.7559 921.827 87.3633 921.065 86.5781C920.31 85.7871 919.932 84.75 919.932 83.4668C919.932 82.1777 920.324 81.126 921.109 80.3115C921.895 79.4912 922.899 79.0811 924.124 79.0811C924.569 79.0811 925.003 79.1279 925.425 79.2217C925.853 79.3154 926.254 79.4531 926.629 79.6348V81.1113C926.277 80.8828 925.914 80.71 925.539 80.5928C925.164 80.4697 924.783 80.4082 924.396 80.4082C923.494 80.4082 922.771 80.6924 922.226 81.2607C921.681 81.8232 921.408 82.5732 921.408 83.5107C921.408 84.3369 921.681 85.0283 922.226 85.585C922.776 86.1416 923.465 86.4199 924.291 86.4199C924.707 86.4199 925.114 86.3467 925.513 86.2002C925.911 86.0537 926.33 85.8223 926.77 85.5059ZM934.39 82.4824C934.343 81.7734 934.105 81.2285 933.678 80.8477C933.256 80.4609 932.676 80.2676 931.938 80.2676C931.27 80.2676 930.713 80.4697 930.268 80.874C929.822 81.2725 929.564 81.8086 929.494 82.4824H934.39ZM935.866 83.5986H929.494V83.7217C929.494 84.583 929.74 85.2803 930.232 85.8135C930.725 86.3408 931.366 86.6045 932.157 86.6045C932.696 86.6045 933.183 86.4609 933.616 86.1738C934.05 85.8809 934.434 85.4414 934.768 84.8555L935.813 85.5586C935.409 86.2852 934.894 86.833 934.267 87.2021C933.64 87.5713 932.913 87.7559 932.087 87.7559C930.862 87.7559 929.872 87.3516 929.116 86.543C928.36 85.7344 927.982 84.6738 927.982 83.3613C927.982 82.1016 928.357 81.0703 929.107 80.2676C929.857 79.4648 930.821 79.0635 931.999 79.0635C933.188 79.0635 934.129 79.4443 934.82 80.2061C935.518 80.9678 935.866 82.0078 935.866 83.3262V83.5986ZM937.097 86.0596L938.274 85.2686C938.497 85.6963 938.778 86.0186 939.118 86.2354C939.458 86.4463 939.859 86.5518 940.322 86.5518C940.773 86.5518 941.137 86.4404 941.412 86.2178C941.693 85.9951 941.834 85.7021 941.834 85.3389C941.834 85.0576 941.737 84.8232 941.544 84.6357C941.356 84.4482 941.031 84.2754 940.568 84.1172L940.34 84.0381C938.383 83.3643 937.404 82.5205 937.404 81.5068C937.404 80.792 937.668 80.209 938.195 79.7578C938.723 79.3066 939.408 79.0811 940.252 79.0811C940.949 79.0811 941.547 79.2217 942.045 79.5029C942.543 79.7783 942.9 80.1709 943.117 80.6807L942.001 81.3662C941.837 80.9971 941.594 80.7129 941.271 80.5137C940.955 80.3145 940.586 80.2148 940.164 80.2148C939.76 80.2148 939.429 80.3291 939.171 80.5576C938.919 80.7803 938.793 81.0674 938.793 81.4189C938.793 81.9111 939.326 82.3242 940.393 82.6582C940.592 82.7227 940.75 82.7725 940.867 82.8076C941.74 83.0889 942.347 83.4111 942.687 83.7744C943.032 84.1318 943.205 84.6064 943.205 85.1982C943.205 85.96 942.933 86.5781 942.388 87.0527C941.849 87.5215 941.143 87.7559 940.27 87.7559C939.52 87.7559 938.881 87.6152 938.354 87.334C937.832 87.0527 937.413 86.6279 937.097 86.0596ZM944.427 86.0596L945.604 85.2686C945.827 85.6963 946.108 86.0186 946.448 86.2354C946.788 86.4463 947.189 86.5518 947.652 86.5518C948.104 86.5518 948.467 86.4404 948.742 86.2178C949.023 85.9951 949.164 85.7021 949.164 85.3389C949.164 85.0576 949.067 84.8232 948.874 84.6357C948.687 84.4482 948.361 84.2754 947.898 84.1172L947.67 84.0381C945.713 83.3643 944.734 82.5205 944.734 81.5068C944.734 80.792 944.998 80.209 945.525 79.7578C946.053 79.3066 946.738 79.0811 947.582 79.0811C948.279 79.0811 948.877 79.2217 949.375 79.5029C949.873 79.7783 950.23 80.1709 950.447 80.6807L949.331 81.3662C949.167 80.9971 948.924 80.7129 948.602 80.5137C948.285 80.3145 947.916 80.2148 947.494 80.2148C947.09 80.2148 946.759 80.3291 946.501 80.5576C946.249 80.7803 946.123 81.0674 946.123 81.4189C946.123 81.9111 946.656 82.3242 947.723 82.6582C947.922 82.7227 948.08 82.7725 948.197 82.8076C949.07 83.0889 949.677 83.4111 950.017 83.7744C950.362 84.1318 950.535 84.6064 950.535 85.1982C950.535 85.96 950.263 86.5781 949.718 87.0527C949.179 87.5215 948.473 87.7559 947.6 87.7559C946.85 87.7559 946.211 87.6152 945.684 87.334C945.162 87.0527 944.743 86.6279 944.427 86.0596Z" fill="#10150C"/>
<defs>
<linearGradient id="paint0_linear" x1="592" y1="34" x2="894.001" y2="34" gradientUnits="userSpaceOnUse">
<stop stop-color="#245B09"/>
<stop offset="1" stop-color="#F1FAEA"/>
</linearGradient>
<linearGradient id="paint1_linear" x1="592" y1="34" x2="894.001" y2="34" gradientUnits="userSpaceOnUse">
<stop stop-color="#245B09"/>
<stop offset="1" stop-color="#F1FAEA"/>
</linearGradient>
</defs>
</svg>
