<svg width="40" height="23" viewBox="0 0 40 23" fill="none" xmlns="http://www.w3.org/2000/svg">
<path d="M34.0571 2.34205C31.8715 1.17152 27.9208 0.669678 22.8667 0.669678H8.19818C7.69812 0.669686 7.21447 0.753517 6.83418 0.906097C6.45389 1.05868 6.20191 1.27 6.12354 1.50207L0.0158496 19.7041C-0.105551 20.063 0.485925 20.388 1.26013 20.388H10.316L12.5903 13.6096L12.5197 13.8218C12.6817 13.3427 13.5538 12.9893 14.5865 12.9893H18.8898C27.3436 12.9893 33.9631 11.3758 35.8967 6.70832C35.9541 6.57027 36.0039 6.43591 36.0468 6.30465C35.8028 6.24392 35.8028 6.24392 36.0468 6.30465C36.6226 4.5795 36.0429 3.40521 34.0571 2.34205Z" fill="#27346A"/>
<path d="M16.0554 5.68319C16.3029 5.62779 16.5737 5.59909 16.8479 5.59917H28.3478C29.7095 5.59917 30.9797 5.64081 32.1404 5.72859C32.4651 5.75292 32.7883 5.78197 33.1092 5.8157C33.5641 5.86287 34.0138 5.9206 34.4565 5.98868C35.0272 6.07823 35.5586 6.18252 36.047 6.30464C36.6226 4.57883 36.0429 3.4052 34.057 2.34205C31.8703 1.17151 27.9208 0.669678 22.8667 0.669678H8.19692C7.16408 0.669678 6.28541 1.02301 6.12354 1.50207L0.0158504 19.7034C-0.105551 20.0629 0.485926 20.3875 1.25888 20.3875H10.316L15.0344 6.32734C15.0808 6.18914 15.198 6.05831 15.3758 5.9461C15.5537 5.83389 15.7869 5.74366 16.0554 5.68319Z" fill="#27346A"/>
<path d="M35.8968 6.70835C33.9632 11.3752 27.3439 12.9893 18.8899 12.9893H14.5853C13.5526 12.9893 12.6804 13.3427 12.5199 13.8219L9.69052 22.2501C9.5848 22.5642 10.1018 22.8488 10.7781 22.8488H18.4119C18.8492 22.8488 19.2721 22.7754 19.6046 22.6419C19.937 22.5084 20.1572 22.3236 20.2256 22.1206L20.2999 21.9379L21.7387 17.6531L21.8314 17.4163C21.8997 17.2134 22.1199 17.0285 22.4523 16.8951C22.7848 16.7616 23.2076 16.6882 23.6449 16.6881H24.7874C32.1823 16.6881 37.9727 15.2764 39.6648 11.1936C40.3711 9.48744 40.0056 8.06292 38.1372 7.06234C37.5706 6.75928 36.8668 6.50899 36.0469 6.30469C36.0025 6.43661 35.9544 6.57031 35.8968 6.70835Z" fill="#2790C3"/>
<path d="M34.0237 5.92531C33.7222 5.88394 33.4178 5.84731 33.1111 5.81549C32.79 5.78231 32.4669 5.75346 32.1423 5.72896C30.9804 5.64059 29.7111 5.59888 28.3481 5.59888H16.8497C16.5753 5.59859 16.3043 5.62754 16.0572 5.68356C15.7884 5.74386 15.5549 5.83403 15.377 5.94627C15.1991 6.05851 15.0821 6.18944 15.0361 6.32772L12.5921 13.6093L12.5215 13.8216C12.6823 13.3425 13.5543 12.9891 14.5872 12.9891H18.8917C27.3456 12.9891 33.9649 11.3756 35.8985 6.70809C35.9561 6.57005 36.0044 6.43628 36.0488 6.30443C35.5591 6.18297 35.0291 6.07802 34.4583 5.98906C34.3143 5.96662 34.1695 5.94537 34.0239 5.92531" fill="#1F264F"/>
</svg>
