<svg width="408" height="215" viewBox="0 0 408 215" fill="none" xmlns="http://www.w3.org/2000/svg">
<path fill-rule="evenodd" clip-rule="evenodd" d="M77.1023 305.808C73.5764 294.422 71.4035 282.625 70.4605 270.663L167.696 86.3407C174.817 88.4834 181.97 90.8495 189.122 93.4603L77.1023 305.808ZM33.9564 301.171C34.5366 302.604 35.4189 303.919 36.5709 305.01C37.7855 307.837 37.8166 310.994 36.3765 313.724C33.651 318.891 26.688 320.571 20.8241 317.478C14.9603 314.385 12.4161 307.689 15.1417 302.522C17.8672 297.356 24.8303 295.675 30.6941 298.768C31.9368 299.424 33.0304 300.241 33.9564 301.171ZM88.1165 332.025L93.9222 321.02L268.195 414.276C269.125 414.897 270.041 415.506 270.944 416.102C171.49 416.481 114.518 380.605 88.1165 332.025ZM209.642 101.658C242.218 115.847 274.055 135.596 301.821 162.958C393.39 253.219 330.024 361.106 297.647 404.281C253.266 378.195 222.819 352.494 202.069 328.717C142.389 260.357 162.909 207.927 162.909 207.927C140.636 263.918 160.919 311.718 192.119 348.923L104.23 301.48L209.642 101.658ZM145.965 80.4393C59.0234 59.2827 -17.4483 69.049 -17.4483 69.049C-17.4483 69.049 32.4959 76.0738 57.5115 136.52L71.3172 110.349C74.1572 104.965 80.8107 102.896 86.1775 105.727L122.513 124.895L145.965 80.4393ZM66.604 166.379C67.8863 172.471 68.9442 178.94 69.7404 185.81C71.0088 196.753 71.6133 208.712 71.4036 221.78L85.8857 194.327L112.228 144.392L85.6103 130.35L66.604 166.379ZM38.2378 277.118C40.1845 273.428 38.3674 268.645 34.1791 266.435C29.9909 264.226 25.0175 265.426 23.0707 269.117C21.124 272.807 22.9412 277.59 27.1294 279.799C31.3177 282.009 36.2911 280.808 38.2378 277.118ZM-35.7452 224.418C-25.2745 229.941 -20.7316 241.898 -25.5984 251.124C-30.4652 260.349 -42.8987 263.35 -53.3694 257.827C-63.8401 252.303 -68.383 240.346 -63.5162 231.121C-58.6494 221.895 -46.2159 218.894 -35.7452 224.418ZM31.8778 215.674C33.4352 212.722 31.9814 208.896 28.6307 207.128C25.28 205.361 21.3012 206.321 19.7438 209.273C18.1864 212.226 19.6401 216.052 22.9908 217.819C26.3415 219.587 30.3203 218.627 31.8778 215.674ZM23.4062 134.335C33.0393 139.416 37.2188 150.417 32.7413 158.904C28.2638 167.392 16.8249 170.153 7.1918 165.071C-2.44132 159.989 -6.62079 148.989 -2.14331 140.502C2.33416 132.014 13.7731 129.253 23.4062 134.335Z" fill="#2B50AA"/>
</svg>
