<svg width="275" height="154" viewBox="0 0 275 154" fill="none" xmlns="http://www.w3.org/2000/svg">
<path fill-rule="evenodd" clip-rule="evenodd" d="M48.3814 -94.5727C57.4104 -102.553 67.3978 -109.478 78.0657 -115.356L290.289 -104.491C291.355 -97.1289 292.228 -89.6428 292.873 -82.0559L48.3814 -94.5727ZM34.2009 -135.679C33.1235 -134.551 32.2844 -133.198 31.7672 -131.694C29.6709 -129.405 26.7625 -128.051 23.6193 -128.212C17.6707 -128.517 13.1341 -134.131 13.4865 -140.751C13.839 -147.372 18.9471 -152.492 24.8957 -152.188C30.8444 -151.883 35.381 -146.269 35.0285 -139.648C34.9538 -138.245 34.6655 -136.91 34.2009 -135.679ZM28.8329 -73.5695L41.5042 -72.9207L29.8047 124.402C29.6281 125.506 29.4573 126.593 29.2919 127.663C-13.6381 37.5579 -4.82618 -29.2118 28.8329 -73.5695ZM294.071 -59.9904C294.886 -24.4671 290.238 12.7191 276.801 49.4076C232.466 170.41 105.486 158.195 51.665 146.936C56.8072 95.7037 67.5585 57.2796 80.6809 28.4649C118.399 -54.4009 175.71 -57.7892 175.71 -57.7892C114.353 -54.4966 78.796 -16.0198 57.7196 27.9172L64.0021 -71.7689L294.071 -59.9904ZM286.447 -126.692C268.806 -214.482 227.027 -279.788 227.027 -279.788C227.027 -279.788 241.908 -231.509 196.674 -183.428L226.806 -181.885C233.005 -181.568 237.769 -176.398 237.446 -170.338L235.262 -129.313L286.447 -126.692ZM172.932 -162.639C167.842 -158.917 162.308 -155.241 156.291 -151.635C146.706 -145.889 135.896 -140.319 123.712 -135.024L155.32 -133.405L212.814 -130.462L214.414 -160.515L172.932 -162.639ZM58.2961 -141.892C62.5449 -141.674 66.1934 -145.331 66.4452 -150.06C66.6969 -154.789 63.4566 -158.799 59.2077 -159.016C54.9589 -159.234 51.3104 -155.577 51.0587 -150.848C50.8069 -146.119 54.0472 -142.109 58.2961 -141.892ZM75.3967 -231.164C74.7673 -219.342 65.6462 -210.199 55.024 -210.743C44.4019 -211.286 36.3012 -221.311 36.9306 -233.133C37.56 -244.955 46.6811 -254.098 57.3032 -253.555C67.9254 -253.011 76.0261 -242.986 75.3967 -231.164ZM112.44 -173.46C115.84 -173.286 118.758 -176.212 118.96 -179.995C119.161 -183.779 116.569 -186.986 113.17 -187.16C109.771 -187.335 106.852 -184.409 106.65 -180.626C106.449 -176.842 109.041 -173.634 112.44 -173.46ZM184.095 -215.299C183.516 -204.422 175.124 -196.011 165.352 -196.511C155.579 -197.011 148.127 -206.234 148.706 -217.11C149.285 -227.987 157.676 -236.399 167.449 -235.898C177.221 -235.398 184.674 -226.175 184.095 -215.299Z" fill="#E8C547"/>
</svg>
