<svg width="285" height="139" viewBox="0 0 285 139" fill="none" xmlns="http://www.w3.org/2000/svg">
<path fill-rule="evenodd" clip-rule="evenodd" d="M41.6401 194.096C50.0661 185.665 59.4859 178.239 69.6265 171.824H278.024C279.451 179.122 280.696 186.553 281.724 194.096H41.6401ZM25.61 153.771C24.6137 154.953 23.8625 156.347 23.4345 157.875C21.5009 160.268 18.7232 161.769 15.6367 161.769C9.79535 161.769 5.05997 156.394 5.05997 149.765C5.05997 143.135 9.79535 137.76 15.6367 137.76C21.4781 137.76 26.2135 143.135 26.2135 149.765C26.2135 151.17 26.0009 152.518 25.61 153.771ZM23.5912 216.071H36.0341L34.8643 413.723C34.7489 414.835 34.6383 415.929 34.5321 417.006C-12.207 329.218 -7.05855 262.089 23.5912 216.071ZM284.048 216.071C286.697 251.504 284.084 288.877 272.839 326.203C235.73 449.308 110.74 443.601 57.4469 435.109C59.8117 383.683 68.3372 344.762 79.6857 315.315C112.303 230.634 168.25 224.32 168.25 224.32C108.335 230.745 75.5206 270.988 57.1711 315.942L58.1264 216.071H284.048ZM273.104 149.849C251.251 63.0805 206.932 0 206.932 0C206.932 0 224.022 47.4521 182.231 97.7809H211.82C217.907 97.7809 222.841 102.7 222.841 108.768V149.849H273.104ZM160.064 119.755C155.274 123.732 150.045 127.686 144.341 131.595C135.254 137.823 124.958 143.938 113.303 149.849H144.341H200.798V119.755H160.064ZM48.8826 146.335C53.0548 146.335 56.4371 142.496 56.4371 137.761C56.4371 133.026 53.0548 129.187 48.8826 129.187C44.7103 129.187 41.328 133.026 41.328 137.761C41.328 142.496 44.7103 146.335 48.8826 146.335ZM60.975 56.3098C60.975 68.1482 52.5193 77.745 42.0887 77.745C31.6581 77.745 23.2024 68.1482 23.2024 56.3098C23.2024 44.4715 31.6581 34.8746 42.0887 34.8746C52.5193 34.8746 60.975 44.4715 60.975 56.3098ZM100.26 112.041C103.598 112.041 106.304 108.97 106.304 105.182C106.304 101.393 103.598 98.3223 100.26 98.3223C96.9225 98.3223 94.2166 101.393 94.2166 105.182C94.2166 108.97 96.9225 112.041 100.26 112.041ZM168.25 66.5962C168.25 77.4876 160.471 86.3168 150.875 86.3168C141.279 86.3168 133.499 77.4876 133.499 66.5962C133.499 55.7049 141.279 46.8757 150.875 46.8757C160.471 46.8757 168.25 55.7049 168.25 66.5962Z" fill="#F3F7F1"/>
</svg>
