<svg width="295" height="204" viewBox="0 0 295 204" fill="none" xmlns="http://www.w3.org/2000/svg">
<path fill-rule="evenodd" clip-rule="evenodd" d="M48.898 186.003C57.927 178.023 67.9144 171.098 78.5823 165.22L290.806 176.085C291.871 183.447 292.744 190.933 293.39 198.52L48.898 186.003ZM34.7175 144.898C33.6401 146.026 32.801 147.378 32.2838 148.882C30.1875 151.171 27.2791 152.525 24.1359 152.364C18.1873 152.06 13.6507 146.446 14.0031 139.825C14.3556 133.204 19.4637 128.084 25.4123 128.388C31.361 128.693 35.8976 134.307 35.5451 140.928C35.4704 142.331 35.1821 143.667 34.7175 144.898ZM29.3495 207.007L42.0208 207.655L30.3213 404.978C30.1447 406.082 29.9739 407.17 29.8085 408.239C-13.1215 318.134 -4.30958 251.364 29.3495 207.007ZM294.588 220.586C295.402 256.109 290.754 293.295 277.318 329.984C232.983 450.986 106.002 438.771 52.1816 427.512C57.3238 376.28 68.0751 337.856 81.1975 309.041C118.915 226.175 176.226 222.787 176.226 222.787C114.869 226.08 79.3126 264.556 58.2362 308.493L64.5187 208.807L294.588 220.586ZM286.964 153.884C269.323 66.0938 227.544 0.788484 227.544 0.788484C227.544 0.788484 242.425 49.0671 197.191 97.1486L227.323 98.6913C233.522 99.0086 238.285 104.178 237.963 110.238L235.779 151.264L286.964 153.884ZM173.448 117.937C168.359 121.659 162.824 125.335 156.807 128.942C147.222 134.687 136.413 140.257 124.229 145.553L155.837 147.171L213.331 150.114L214.931 120.061L173.448 117.937ZM58.8127 138.685C63.0615 138.902 66.71 135.245 66.9618 130.516C67.2135 125.787 63.9732 121.777 59.7244 121.56C55.4755 121.342 51.827 125 51.5753 129.728C51.3235 134.457 54.5638 138.467 58.8127 138.685ZM75.9133 49.4122C75.2839 61.2344 66.1628 70.3774 55.5406 69.8336C44.9185 69.2898 36.8178 59.2652 37.4472 47.4429C38.0766 35.6207 47.1977 26.4777 57.8198 27.0215C68.442 27.5653 76.5427 37.59 75.9133 49.4122ZM112.957 107.116C116.356 107.29 119.275 104.364 119.476 100.581C119.678 96.7977 117.086 93.5897 113.686 93.4157C110.287 93.2417 107.368 96.1675 107.167 99.9507C106.966 103.734 109.558 106.942 112.957 107.116ZM184.611 65.2775C184.032 76.154 175.641 84.5656 165.869 84.0653C156.096 83.565 148.643 74.3423 149.222 63.4657C149.801 52.5892 158.193 44.1776 167.965 44.6779C177.738 45.1782 185.191 54.401 184.611 65.2775Z" fill="#E8C547"/>
</svg>
