<svg width="510" height="515" viewBox="0 0 510 515" fill="none" xmlns="http://www.w3.org/2000/svg">
<path fill-rule="evenodd" clip-rule="evenodd" d="M199.569 168.907C211.487 168.654 223.425 169.815 235.185 172.204L385.591 316.451C381.569 322.706 377.324 328.932 372.844 335.087L199.569 168.907ZM215.912 128.708C214.375 128.871 212.868 129.357 211.501 130.164C208.449 130.553 205.406 129.713 203.178 127.577C198.962 123.533 199.265 116.377 203.854 111.592C208.443 106.807 215.58 106.206 219.796 110.249C224.012 114.292 223.71 121.449 219.121 126.234C218.148 127.248 217.061 128.074 215.912 128.708ZM171.333 172.274L180.313 180.886L42.6586 322.728C41.8058 323.451 40.9684 324.164 40.1467 324.867C67.1781 229.157 117.359 184.271 171.333 172.274ZM359.312 352.555C336.698 379.963 308.943 405.127 274.991 424.282C162.998 487.445 76.7399 396.812 44.1544 353.794C81.4567 318.315 114.55 296.126 143.123 282.729C225.278 244.188 270.027 278.357 270.027 278.357C222.338 241.523 170.8 247.853 126.44 267.597L196.258 196.178L359.312 352.555ZM397.25 297.187C441.537 219.437 453.214 143.233 453.214 143.233C453.214 143.233 432.703 189.31 367.705 196.707L389.06 217.188C393.453 221.401 393.61 228.367 389.41 232.746L360.974 262.396L397.25 297.187ZM336.496 197.223C330.287 196.778 323.776 196.012 316.953 194.886C306.084 193.09 294.421 190.377 281.917 186.576L304.318 208.06L345.065 247.138L365.896 225.419L336.496 197.223ZM237.856 139.45C240.867 142.338 245.965 141.908 249.243 138.491C252.52 135.073 252.736 129.961 249.725 127.073C246.714 124.185 241.616 124.615 238.338 128.032C235.06 131.45 234.844 136.562 237.856 139.45ZM308.896 82.8458C300.702 91.3899 287.957 92.4634 280.429 85.2436C272.901 78.0238 273.441 65.2447 281.635 56.7006C289.829 48.1565 302.574 47.083 310.102 54.3028C317.631 61.5226 317.091 74.3018 308.896 82.8458ZM298.674 150.261C301.083 152.571 305.162 152.228 307.784 149.494C310.406 146.76 310.579 142.67 308.17 140.36C305.761 138.049 301.682 138.393 299.06 141.127C296.438 143.861 296.265 147.951 298.674 150.261ZM379.2 164.523C371.661 172.384 359.936 173.372 353.01 166.729C346.084 160.087 346.581 148.33 354.119 140.47C361.658 132.609 373.384 131.621 380.31 138.264C387.236 144.906 386.739 156.663 379.2 164.523Z" fill="#F3F7F1"/>
</svg>
