<svg width="1068" height="897" viewBox="0 0 1068 897" fill="none" xmlns="http://www.w3.org/2000/svg">
<path opacity="0.2" fill-rule="evenodd" clip-rule="evenodd" d="M645.637 220.91C616.082 229.533 587.572 241.654 560.458 256.662L301.938 728.68C316.702 740.969 331.994 753.01 347.81 764.698L645.637 220.91ZM574.162 134.565C578.075 133.774 582.165 133.802 586.158 134.729C593.979 133.319 600.824 128.89 604.653 121.899C611.899 108.668 605.597 91.2736 590.577 83.0472C575.556 74.8207 557.506 78.8774 550.259 92.1082C543.013 105.339 549.315 122.733 564.336 130.96C567.519 132.703 570.838 133.895 574.162 134.565ZM717.811 207.296L702.376 235.479L1151.63 478.085C1154.29 479.203 1156.91 480.31 1159.48 481.405C1018.57 266.611 860.091 194.975 717.811 207.296ZM394.712 797.229C471.703 847.197 559.617 887.652 658.132 908.497C983.072 977.199 1125.19 687.018 1172.07 555.771C1052.62 497.316 953.866 468.33 873.074 457.497C640.758 426.298 557.05 545.185 557.05 545.185C645.932 417.45 777.812 393.059 902.424 407.279L674.97 285.518L394.712 797.229ZM258.257 690.271C88.7825 533.107 0.845248 354.452 0.845248 354.452C0.845248 354.452 87.1524 452.042 253.019 419.836L216.314 486.854C208.763 500.641 213.787 517.922 227.534 525.451L320.608 576.427L258.257 690.271ZM330.303 396.893C345.254 390.978 360.699 384.042 376.632 375.973C402.015 363.118 428.639 347.386 456.492 328.322L417.989 398.623L347.953 526.499L279.771 489.157L330.303 396.893ZM528.444 178.05C523.269 187.5 510.376 190.398 499.647 184.522C488.919 178.646 484.418 166.222 489.594 156.772C494.769 147.321 507.662 144.424 518.39 150.3C529.119 156.175 533.62 168.6 528.444 178.05ZM309.482 93.7317C336.303 108.421 368.535 101.177 381.474 77.552C394.414 53.9268 383.16 22.8665 356.339 8.17701C329.519 -6.51249 297.287 0.73137 284.347 24.3566C271.408 47.9819 282.661 79.0422 309.482 93.7317ZM387.013 251.867C382.872 259.427 372.558 261.745 363.975 257.044C355.392 252.344 351.791 242.404 355.932 234.844C360.072 227.283 370.387 224.965 378.97 229.666C387.552 234.367 391.154 244.306 387.013 251.867ZM199.711 349.474C224.386 362.989 254.04 356.324 265.944 334.589C277.848 312.853 267.495 284.278 242.82 270.763C218.144 257.249 188.491 263.913 176.586 285.649C164.682 307.384 175.035 335.96 199.711 349.474Z" fill="#245B09" fill-opacity="0.2"/>
</svg>
