<svg width="910" height="885" viewBox="0 0 910 885" fill="none" xmlns="http://www.w3.org/2000/svg">
<path opacity="0.2" fill-rule="evenodd" clip-rule="evenodd" d="M695.875 642.292C686.664 612.915 673.976 584.654 658.43 557.844L181.345 308.799C169.353 323.805 157.619 339.334 146.249 355.381L695.875 642.292ZM780.776 569.108C781.645 573.004 781.698 577.094 780.851 581.105C782.417 588.896 786.982 595.651 794.048 599.34C807.421 606.321 824.686 599.673 832.611 584.491C840.536 569.309 836.12 551.343 822.747 544.363C809.374 537.382 792.109 544.03 784.184 559.212C782.505 562.429 781.379 565.771 780.776 569.108ZM710.928 714.18L682.442 699.311L448.853 1153.32C447.788 1156 446.733 1158.64 445.69 1161.23C657.628 1016.06 726.086 856.186 710.928 714.18ZM114.662 402.922C66.2408 480.896 27.5483 569.6 8.67466 668.512C-53.5269 994.759 239.434 1131.06 371.59 1175.3C427.649 1054.71 454.657 955.399 463.876 874.408C490.431 641.515 369.896 560.197 369.896 560.197C499.38 646.511 526.399 777.878 514.67 902.749L631.866 672.909L114.662 402.922ZM218.874 264.36C372.624 91.7815 549.487 0.295212 549.487 0.295212C549.487 0.295212 453.64 88.5333 489.151 253.724L421.413 218.364C407.479 211.09 390.301 216.458 383.048 230.353L333.941 324.426L218.874 264.36ZM513.632 330.534C519.844 345.365 527.087 360.668 535.473 376.437C548.832 401.558 565.092 427.863 584.709 455.33L513.652 418.237L384.404 350.768L420.378 281.854L513.632 330.534ZM736.387 524.268C726.836 519.281 723.681 506.449 729.342 495.606C735.002 484.762 747.334 480.014 756.886 485C766.437 489.986 769.592 502.818 763.931 513.662C758.271 524.505 745.939 529.254 736.387 524.268ZM816.317 303.666C802.166 330.775 810.052 362.856 833.931 375.321C857.81 387.786 888.639 375.915 902.79 348.806C916.941 321.697 909.056 289.616 885.177 277.151C861.298 264.686 830.468 276.557 816.317 303.666ZM659.762 384.338C652.12 380.349 649.597 370.083 654.125 361.408C658.653 352.733 668.519 348.934 676.161 352.923C683.802 356.912 686.326 367.178 681.797 375.853C677.269 384.528 667.403 388.327 659.762 384.338ZM558.434 199.021C545.415 223.962 552.67 253.477 574.639 264.944C596.608 276.412 624.971 265.491 637.99 240.551C651.009 215.61 643.754 186.096 621.786 174.628C599.817 163.16 571.454 174.081 558.434 199.021Z" fill="#245B09" fill-opacity="0.2"/>
</svg>
