<svg width="968" height="105" viewBox="0 0 968 105" fill="none" xmlns="http://www.w3.org/2000/svg">
<path d="M17.2207 83.4541V89.2285H15.7266V76.3613H18.4248C19.3682 76.3613 20.0625 76.4111 20.5078 76.5107C20.9531 76.6104 21.3398 76.7744 21.668 77.0029C22.0781 77.2959 22.3975 77.6973 22.626 78.207C22.8604 78.7168 22.9775 79.2822 22.9775 79.9033C22.9775 80.5244 22.8604 81.0898 22.626 81.5996C22.3975 82.1094 22.0781 82.5107 21.668 82.8037C21.3398 83.0381 20.9531 83.2051 20.5078 83.3047C20.0684 83.4043 19.374 83.4541 18.4248 83.4541H17.9941H17.2207ZM17.2207 82.0654H17.9941C19.3066 82.0654 20.1885 81.9131 20.6396 81.6084C21.0967 81.2979 21.3252 80.7588 21.3252 79.9912C21.3252 79.1709 21.0908 78.5938 20.6221 78.2598C20.1592 77.9258 19.2832 77.7588 17.9941 77.7588H17.2207V82.0654ZM24.4277 89.2285V81.1865H25.6494V82.8564C26.0186 82.1592 26.4111 81.6611 26.8271 81.3623C27.2432 81.0635 27.75 80.9141 28.3477 80.9141C28.5117 80.9141 28.6699 80.9287 28.8223 80.958C28.9746 80.9814 29.127 81.0195 29.2793 81.0723L28.8223 82.3115C28.6641 82.2588 28.5146 82.2207 28.374 82.1973C28.2334 82.168 28.0986 82.1533 27.9697 82.1533C27.2432 82.1533 26.6982 82.417 26.335 82.9443C25.9717 83.4658 25.79 84.2539 25.79 85.3086V89.2285H24.4277ZM31.5469 85.2295C31.5469 86.0791 31.8311 86.7998 32.3994 87.3916C32.9678 87.9775 33.6562 88.2705 34.4648 88.2705C35.2676 88.2705 35.9502 87.9775 36.5127 87.3916C37.0752 86.7998 37.3564 86.0791 37.3564 85.2295C37.3564 84.3799 37.0752 83.6621 36.5127 83.0762C35.9502 82.4844 35.2676 82.1885 34.4648 82.1885C33.6504 82.1885 32.959 82.4844 32.3906 83.0762C31.8281 83.6621 31.5469 84.3799 31.5469 85.2295ZM30.0879 85.2295C30.0879 84.6377 30.1963 84.0811 30.4131 83.5596C30.6299 83.0322 30.9463 82.5635 31.3623 82.1533C31.7783 81.7432 32.25 81.4326 32.7773 81.2217C33.3047 81.0049 33.8672 80.8965 34.4648 80.8965C35.0508 80.8965 35.6045 81.0049 36.126 81.2217C36.6533 81.4385 37.1309 81.7549 37.5586 82.1709C37.9746 82.5752 38.291 83.041 38.5078 83.5684C38.7246 84.0898 38.833 84.6436 38.833 85.2295C38.833 85.8154 38.7246 86.3691 38.5078 86.8906C38.291 87.4062 37.9746 87.8662 37.5586 88.2705C37.1309 88.6924 36.6504 89.0146 36.1172 89.2373C35.5898 89.46 35.0391 89.5713 34.4648 89.5713C33.873 89.5713 33.3105 89.46 32.7773 89.2373C32.25 89.0205 31.7783 88.707 31.3623 88.2969C30.9463 87.875 30.6299 87.4062 30.4131 86.8906C30.1963 86.375 30.0879 85.8213 30.0879 85.2295ZM47.1387 85.2471C47.1387 84.3506 46.8896 83.6299 46.3916 83.085C45.8936 82.5342 45.2373 82.2588 44.4229 82.2588C43.6084 82.2588 42.9727 82.5078 42.5156 83.0059C42.0586 83.5039 41.8301 84.1924 41.8301 85.0713C41.8301 86.0615 42.0615 86.8379 42.5244 87.4004C42.9873 87.957 43.626 88.2354 44.4404 88.2354C45.2842 88.2354 45.9434 87.9717 46.418 87.4443C46.8984 86.917 47.1387 86.1846 47.1387 85.2471ZM48.4746 75.6055V89.2285H47.1387V87.7695C46.8223 88.3496 46.4121 88.7949 45.9082 89.1055C45.4043 89.416 44.8418 89.5713 44.2207 89.5713C43.0664 89.5713 42.1348 89.1758 41.4258 88.3848C40.7227 87.5879 40.3711 86.5361 40.3711 85.2295C40.3711 83.9111 40.7168 82.8594 41.4082 82.0742C42.0996 81.2891 43.0195 80.8965 44.168 80.8965C44.8359 80.8965 45.416 81.0488 45.9082 81.3535C46.4004 81.6523 46.7988 82.1006 47.1035 82.6982V75.6055H48.4746ZM52.5791 81.1865V85.1416C52.5791 86.2959 52.749 87.1045 53.0889 87.5674C53.4346 88.0244 54.0146 88.2529 54.8291 88.2529C55.6436 88.2529 56.2178 88.0273 56.5518 87.5762C56.8916 87.1191 57.0615 86.3076 57.0615 85.1416V81.1865H58.4678V85.8799C58.4678 87.0928 58.1572 88.0127 57.5361 88.6396C56.915 89.2607 56.001 89.5713 54.7939 89.5713C53.5986 89.5713 52.6904 89.2578 52.0693 88.6309C51.4482 88.0039 51.1377 87.0869 51.1377 85.8799V81.1865H52.5791ZM67.3008 87.3213V88.9209C66.9375 89.1377 66.5273 89.2988 66.0703 89.4043C65.6191 89.5156 65.1299 89.5713 64.6025 89.5713C63.3604 89.5713 62.3584 89.1787 61.5967 88.3936C60.8408 87.6025 60.4629 86.5654 60.4629 85.2822C60.4629 83.9932 60.8555 82.9414 61.6406 82.127C62.4258 81.3066 63.4307 80.8965 64.6553 80.8965C65.1006 80.8965 65.5342 80.9434 65.9561 81.0371C66.3838 81.1309 66.7852 81.2686 67.1602 81.4502V82.9268C66.8086 82.6982 66.4453 82.5254 66.0703 82.4082C65.6953 82.2852 65.3145 82.2236 64.9277 82.2236C64.0254 82.2236 63.3018 82.5078 62.7568 83.0762C62.2119 83.6387 61.9395 84.3887 61.9395 85.3262C61.9395 86.1523 62.2119 86.8438 62.7568 87.4004C63.3076 87.957 63.9961 88.2354 64.8223 88.2354C65.2383 88.2354 65.6455 88.1621 66.0439 88.0156C66.4424 87.8691 66.8613 87.6377 67.3008 87.3213ZM69.4277 82.3203H67.9512V81.1865H69.4277V77.9434H70.834V81.1865H72.3105V82.3203H70.834V89.2285H69.4277V82.3203ZM89.7656 79.4375C89.1504 78.7695 88.4941 78.2773 87.7969 77.9609C87.0996 77.6387 86.3291 77.4775 85.4854 77.4775C84.8057 77.4775 84.1406 77.6152 83.4902 77.8906C82.8457 78.166 82.2861 78.5498 81.8115 79.042C81.3193 79.5518 80.9502 80.123 80.7041 80.7559C80.458 81.3828 80.335 82.0771 80.335 82.8389C80.335 83.4365 80.4082 83.9873 80.5547 84.4912C80.7012 84.9951 80.9209 85.458 81.2139 85.8799C81.7295 86.6123 82.3623 87.1777 83.1123 87.5762C83.8682 87.9688 84.6826 88.165 85.5557 88.165C86.376 88.165 87.1377 87.9951 87.8408 87.6553C88.5439 87.3154 89.1855 86.8086 89.7656 86.1348V88.165C89.127 88.6279 88.4385 88.9795 87.7002 89.2197C86.9678 89.4541 86.209 89.5713 85.4238 89.5713C84.7441 89.5713 84.082 89.4688 83.4375 89.2637C82.793 89.0645 82.1895 88.7715 81.627 88.3848C80.6895 87.7344 79.9717 86.9346 79.4736 85.9854C78.9814 85.0361 78.7354 83.9932 78.7354 82.8564C78.7354 81.8662 78.8994 80.9668 79.2275 80.1582C79.5615 79.3438 80.0684 78.6055 80.748 77.9434C81.4043 77.3105 82.1309 76.8389 82.9277 76.5283C83.7246 76.2119 84.5947 76.0537 85.5381 76.0537C86.2822 76.0537 87.0029 76.168 87.7002 76.3965C88.3975 76.6191 89.0859 76.9678 89.7656 77.4424V79.4375ZM98.3965 85.2822C98.3965 84.374 98.1475 83.6445 97.6494 83.0938C97.1572 82.5371 96.5127 82.2588 95.7158 82.2588C94.8896 82.2588 94.2451 82.5137 93.7822 83.0234C93.3193 83.5332 93.0879 84.2451 93.0879 85.1592C93.0879 86.1318 93.3193 86.8818 93.7822 87.4092C94.251 87.9365 94.9131 88.2002 95.7686 88.2002C96.5889 88.2002 97.2305 87.9453 97.6934 87.4355C98.1621 86.9199 98.3965 86.2021 98.3965 85.2822ZM99.7324 81.1865V89.2285H98.3965V87.7695C98.0742 88.3555 97.6611 88.8037 97.1572 89.1143C96.6592 89.4189 96.0996 89.5713 95.4785 89.5713C94.3242 89.5713 93.3926 89.1758 92.6836 88.3848C91.9805 87.5879 91.6289 86.5361 91.6289 85.2295C91.6289 83.9053 91.9717 82.8535 92.6572 82.0742C93.3428 81.2891 94.2598 80.8965 95.4082 80.8965C96.082 80.8965 96.665 81.0488 97.1572 81.3535C97.6553 81.6523 98.0566 82.1006 98.3613 82.6982V81.1865H99.7324ZM102.703 82.3203H101.227V81.1865H102.703V77.9434H104.109V81.1865H105.586V82.3203H104.109V89.2285H102.703V82.3203ZM112.854 84.2979C112.808 83.5889 112.57 83.0439 112.143 82.6631C111.721 82.2764 111.141 82.083 110.402 82.083C109.734 82.083 109.178 82.2852 108.732 82.6895C108.287 83.0879 108.029 83.624 107.959 84.2979H112.854ZM114.331 85.4141H107.959V85.5371C107.959 86.3984 108.205 87.0957 108.697 87.6289C109.189 88.1562 109.831 88.4199 110.622 88.4199C111.161 88.4199 111.647 88.2764 112.081 87.9893C112.515 87.6963 112.898 87.2568 113.232 86.6709L114.278 87.374C113.874 88.1006 113.358 88.6484 112.731 89.0176C112.104 89.3867 111.378 89.5713 110.552 89.5713C109.327 89.5713 108.337 89.167 107.581 88.3584C106.825 87.5498 106.447 86.4893 106.447 85.1768C106.447 83.917 106.822 82.8857 107.572 82.083C108.322 81.2803 109.286 80.8789 110.464 80.8789C111.653 80.8789 112.594 81.2598 113.285 82.0215C113.982 82.7832 114.331 83.8232 114.331 85.1416V85.4141ZM122.566 85.2295C122.566 84.3271 122.32 83.6006 121.828 83.0498C121.336 82.499 120.688 82.2236 119.886 82.2236C119.06 82.2236 118.415 82.4785 117.952 82.9883C117.489 83.498 117.258 84.21 117.258 85.124C117.258 86.0967 117.489 86.8467 117.952 87.374C118.421 87.9014 119.083 88.165 119.938 88.165C120.759 88.165 121.4 87.9072 121.863 87.3916C122.332 86.8701 122.566 86.1494 122.566 85.2295ZM123.902 81.1865V89.0879C123.902 89.9609 123.844 90.582 123.727 90.9512C123.609 91.3203 123.416 91.6514 123.146 91.9443C122.771 92.3486 122.312 92.6504 121.767 92.8496C121.228 93.0488 120.606 93.1484 119.903 93.1484C118.685 93.1484 117.732 92.8701 117.047 92.3135C116.367 91.7568 116.013 90.9688 115.983 89.9492H117.53V90.0547C117.53 90.6582 117.738 91.124 118.154 91.4521C118.57 91.7803 119.159 91.9443 119.921 91.9443C120.472 91.9443 120.94 91.8535 121.327 91.6719C121.72 91.4961 122.019 91.2324 122.224 90.8809C122.347 90.6816 122.435 90.4502 122.487 90.1865C122.54 89.9229 122.566 89.5449 122.566 89.0527V88.4199V87.6992C122.256 88.2734 121.849 88.7158 121.345 89.0264C120.841 89.3311 120.275 89.4834 119.648 89.4834C118.494 89.4834 117.562 89.0908 116.854 88.3057C116.15 87.5205 115.799 86.4775 115.799 85.1768C115.799 83.8643 116.142 82.8242 116.827 82.0566C117.513 81.2832 118.43 80.8965 119.578 80.8965C120.246 80.8965 120.832 81.0488 121.336 81.3535C121.84 81.6523 122.238 82.0947 122.531 82.6807V81.1865H123.902ZM127.506 85.2295C127.506 86.0791 127.79 86.7998 128.358 87.3916C128.927 87.9775 129.615 88.2705 130.424 88.2705C131.227 88.2705 131.909 87.9775 132.472 87.3916C133.034 86.7998 133.315 86.0791 133.315 85.2295C133.315 84.3799 133.034 83.6621 132.472 83.0762C131.909 82.4844 131.227 82.1885 130.424 82.1885C129.609 82.1885 128.918 82.4844 128.35 83.0762C127.787 83.6621 127.506 84.3799 127.506 85.2295ZM126.047 85.2295C126.047 84.6377 126.155 84.0811 126.372 83.5596C126.589 83.0322 126.905 82.5635 127.321 82.1533C127.737 81.7432 128.209 81.4326 128.736 81.2217C129.264 81.0049 129.826 80.8965 130.424 80.8965C131.01 80.8965 131.563 81.0049 132.085 81.2217C132.612 81.4385 133.09 81.7549 133.518 82.1709C133.934 82.5752 134.25 83.041 134.467 83.5684C134.684 84.0898 134.792 84.6436 134.792 85.2295C134.792 85.8154 134.684 86.3691 134.467 86.8906C134.25 87.4062 133.934 87.8662 133.518 88.2705C133.09 88.6924 132.609 89.0146 132.076 89.2373C131.549 89.46 130.998 89.5713 130.424 89.5713C129.832 89.5713 129.27 89.46 128.736 89.2373C128.209 89.0205 127.737 88.707 127.321 88.2969C126.905 87.875 126.589 87.4062 126.372 86.8906C126.155 86.375 126.047 85.8213 126.047 85.2295ZM136.963 89.2285V81.1865H138.185V82.8564C138.554 82.1592 138.946 81.6611 139.362 81.3623C139.778 81.0635 140.285 80.9141 140.883 80.9141C141.047 80.9141 141.205 80.9287 141.357 80.958C141.51 80.9814 141.662 81.0195 141.814 81.0723L141.357 82.3115C141.199 82.2588 141.05 82.2207 140.909 82.1973C140.769 82.168 140.634 82.1533 140.505 82.1533C139.778 82.1533 139.233 82.417 138.87 82.9443C138.507 83.4658 138.325 84.2539 138.325 85.3086V89.2285H136.963ZM143.019 77.3105C143.019 77.0352 143.115 76.8008 143.309 76.6074C143.508 76.4082 143.748 76.3086 144.029 76.3086C144.305 76.3086 144.539 76.4082 144.732 76.6074C144.932 76.8066 145.031 77.0469 145.031 77.3281C145.031 77.6035 144.935 77.8379 144.741 78.0312C144.548 78.2246 144.311 78.3213 144.029 78.3213C143.748 78.3213 143.508 78.2246 143.309 78.0312C143.115 77.8379 143.019 77.5977 143.019 77.3105ZM143.344 89.2285V81.1865H144.732V89.2285H143.344ZM153.337 84.2979C153.29 83.5889 153.053 83.0439 152.625 82.6631C152.203 82.2764 151.623 82.083 150.885 82.083C150.217 82.083 149.66 82.2852 149.215 82.6895C148.77 83.0879 148.512 83.624 148.441 84.2979H153.337ZM154.813 85.4141H148.441V85.5371C148.441 86.3984 148.688 87.0957 149.18 87.6289C149.672 88.1562 150.313 88.4199 151.104 88.4199C151.644 88.4199 152.13 88.2764 152.563 87.9893C152.997 87.6963 153.381 87.2568 153.715 86.6709L154.761 87.374C154.356 88.1006 153.841 88.6484 153.214 89.0176C152.587 89.3867 151.86 89.5713 151.034 89.5713C149.81 89.5713 148.819 89.167 148.063 88.3584C147.308 87.5498 146.93 86.4893 146.93 85.1768C146.93 83.917 147.305 82.8857 148.055 82.083C148.805 81.2803 149.769 80.8789 150.946 80.8789C152.136 80.8789 153.076 81.2598 153.768 82.0215C154.465 82.7832 154.813 83.8232 154.813 85.1416V85.4141ZM156.044 87.875L157.222 87.084C157.444 87.5117 157.726 87.834 158.065 88.0508C158.405 88.2617 158.807 88.3672 159.27 88.3672C159.721 88.3672 160.084 88.2559 160.359 88.0332C160.641 87.8105 160.781 87.5176 160.781 87.1543C160.781 86.873 160.685 86.6387 160.491 86.4512C160.304 86.2637 159.979 86.0908 159.516 85.9326L159.287 85.8535C157.33 85.1797 156.352 84.3359 156.352 83.3223C156.352 82.6074 156.615 82.0244 157.143 81.5732C157.67 81.1221 158.355 80.8965 159.199 80.8965C159.896 80.8965 160.494 81.0371 160.992 81.3184C161.49 81.5938 161.848 81.9863 162.064 82.4961L160.948 83.1816C160.784 82.8125 160.541 82.5283 160.219 82.3291C159.902 82.1299 159.533 82.0303 159.111 82.0303C158.707 82.0303 158.376 82.1445 158.118 82.373C157.866 82.5957 157.74 82.8828 157.74 83.2344C157.74 83.7266 158.273 84.1396 159.34 84.4736C159.539 84.5381 159.697 84.5879 159.814 84.623C160.688 84.9043 161.294 85.2266 161.634 85.5898C161.979 85.9473 162.152 86.4219 162.152 87.0137C162.152 87.7754 161.88 88.3936 161.335 88.8682C160.796 89.3369 160.09 89.5713 159.217 89.5713C158.467 89.5713 157.828 89.4307 157.301 89.1494C156.779 88.8682 156.36 88.4434 156.044 87.875Z" fill="#10150C"/>
<path d="M354.988 79.4375C354.373 78.7695 353.717 78.2773 353.02 77.9609C352.322 77.6387 351.552 77.4775 350.708 77.4775C350.028 77.4775 349.363 77.6152 348.713 77.8906C348.068 78.166 347.509 78.5498 347.034 79.042C346.542 79.5518 346.173 80.123 345.927 80.7559C345.681 81.3828 345.558 82.0771 345.558 82.8389C345.558 83.4365 345.631 83.9873 345.777 84.4912C345.924 84.9951 346.144 85.458 346.437 85.8799C346.952 86.6123 347.585 87.1777 348.335 87.5762C349.091 87.9688 349.905 88.165 350.778 88.165C351.599 88.165 352.36 87.9951 353.063 87.6553C353.767 87.3154 354.408 86.8086 354.988 86.1348V88.165C354.35 88.6279 353.661 88.9795 352.923 89.2197C352.19 89.4541 351.432 89.5713 350.646 89.5713C349.967 89.5713 349.305 89.4688 348.66 89.2637C348.016 89.0645 347.412 88.7715 346.85 88.3848C345.912 87.7344 345.194 86.9346 344.696 85.9854C344.204 85.0361 343.958 83.9932 343.958 82.8564C343.958 81.8662 344.122 80.9668 344.45 80.1582C344.784 79.3438 345.291 78.6055 345.971 77.9434C346.627 77.3105 347.354 76.8389 348.15 76.5283C348.947 76.2119 349.817 76.0537 350.761 76.0537C351.505 76.0537 352.226 76.168 352.923 76.3965C353.62 76.6191 354.309 76.9678 354.988 77.4424V79.4375ZM363.619 85.2822C363.619 84.374 363.37 83.6445 362.872 83.0938C362.38 82.5371 361.735 82.2588 360.938 82.2588C360.112 82.2588 359.468 82.5137 359.005 83.0234C358.542 83.5332 358.311 84.2451 358.311 85.1592C358.311 86.1318 358.542 86.8818 359.005 87.4092C359.474 87.9365 360.136 88.2002 360.991 88.2002C361.812 88.2002 362.453 87.9453 362.916 87.4355C363.385 86.9199 363.619 86.2021 363.619 85.2822ZM364.955 81.1865V89.2285H363.619V87.7695C363.297 88.3555 362.884 88.8037 362.38 89.1143C361.882 89.4189 361.322 89.5713 360.701 89.5713C359.547 89.5713 358.615 89.1758 357.906 88.3848C357.203 87.5879 356.852 86.5361 356.852 85.2295C356.852 83.9053 357.194 82.8535 357.88 82.0742C358.565 81.2891 359.482 80.8965 360.631 80.8965C361.305 80.8965 361.888 81.0488 362.38 81.3535C362.878 81.6523 363.279 82.1006 363.584 82.6982V81.1865H364.955ZM367.732 89.2285V81.1865H368.954V82.8564C369.323 82.1592 369.716 81.6611 370.132 81.3623C370.548 81.0635 371.055 80.9141 371.652 80.9141C371.816 80.9141 371.975 80.9287 372.127 80.958C372.279 80.9814 372.432 81.0195 372.584 81.0723L372.127 82.3115C371.969 82.2588 371.819 82.2207 371.679 82.1973C371.538 82.168 371.403 82.1533 371.274 82.1533C370.548 82.1533 370.003 82.417 369.64 82.9443C369.276 83.4658 369.095 84.2539 369.095 85.3086V89.2285H367.732ZM374.254 82.3203H372.777V81.1865H374.254V77.9434H375.66V81.1865H377.137V82.3203H375.66V89.2285H374.254V82.3203Z" fill="#10150C"/>
<path d="M619.041 90.4541V96.2285H617.547V83.3613H620.245C621.188 83.3613 621.883 83.4111 622.328 83.5107C622.773 83.6104 623.16 83.7744 623.488 84.0029C623.898 84.2959 624.218 84.6973 624.446 85.207C624.681 85.7168 624.798 86.2822 624.798 86.9033C624.798 87.5244 624.681 88.0898 624.446 88.5996C624.218 89.1094 623.898 89.5107 623.488 89.8037C623.16 90.0381 622.773 90.2051 622.328 90.3047C621.889 90.4043 621.194 90.4541 620.245 90.4541H619.814H619.041ZM619.041 89.0654H619.814C621.127 89.0654 622.009 88.9131 622.46 88.6084C622.917 88.2979 623.146 87.7588 623.146 86.9912C623.146 86.1709 622.911 85.5938 622.442 85.2598C621.979 84.9258 621.104 84.7588 619.814 84.7588H619.041V89.0654ZM631.715 92.2822C631.715 91.374 631.466 90.6445 630.968 90.0938C630.476 89.5371 629.831 89.2588 629.034 89.2588C628.208 89.2588 627.563 89.5137 627.101 90.0234C626.638 90.5332 626.406 91.2451 626.406 92.1592C626.406 93.1318 626.638 93.8818 627.101 94.4092C627.569 94.9365 628.231 95.2002 629.087 95.2002C629.907 95.2002 630.549 94.9453 631.012 94.4355C631.48 93.9199 631.715 93.2021 631.715 92.2822ZM633.051 88.1865V96.2285H631.715V94.7695C631.393 95.3555 630.979 95.8037 630.476 96.1143C629.978 96.4189 629.418 96.5713 628.797 96.5713C627.643 96.5713 626.711 96.1758 626.002 95.3848C625.299 94.5879 624.947 93.5361 624.947 92.2295C624.947 90.9053 625.29 89.8535 625.976 89.0742C626.661 88.2891 627.578 87.8965 628.727 87.8965C629.4 87.8965 629.983 88.0488 630.476 88.3535C630.974 88.6523 631.375 89.1006 631.68 89.6982V88.1865H633.051ZM635.485 100.148L637.665 95.4375L634.51 88.1865H636.101L638.438 93.9609L640.917 88.1865H642.429L637.032 100.148H635.485ZM654.936 96.2285V91.4912C654.936 90.6768 654.771 90.0732 654.443 89.6807C654.115 89.2822 653.611 89.083 652.932 89.083C652.562 89.083 652.22 89.1592 651.903 89.3115C651.593 89.458 651.329 89.6689 651.112 89.9443C650.954 90.1553 650.84 90.4014 650.77 90.6826C650.699 90.9639 650.664 91.4268 650.664 92.0713V96.2285H649.337V91.4912C649.337 90.6768 649.173 90.0732 648.845 89.6807C648.517 89.2822 648.013 89.083 647.333 89.083C646.964 89.083 646.618 89.1592 646.296 89.3115C645.979 89.458 645.713 89.6689 645.496 89.9443C645.344 90.1494 645.232 90.3867 645.162 90.6562C645.098 90.9258 645.065 91.3975 645.065 92.0713V96.2285H643.738V88.1865H645.083V89.4258C645.417 88.9102 645.815 88.5264 646.278 88.2744C646.741 88.0225 647.274 87.8965 647.878 87.8965C648.528 87.8965 649.082 88.0371 649.539 88.3184C649.996 88.5938 650.342 88.998 650.576 89.5312C650.922 88.9805 651.329 88.5703 651.798 88.3008C652.272 88.0312 652.82 87.8965 653.441 87.8965C654.338 87.8965 655.038 88.1484 655.542 88.6523C656.046 89.1562 656.298 89.8564 656.298 90.7529V96.2285H654.936ZM664.718 91.2979C664.671 90.5889 664.434 90.0439 664.006 89.6631C663.584 89.2764 663.004 89.083 662.266 89.083C661.598 89.083 661.041 89.2852 660.596 89.6895C660.15 90.0879 659.893 90.624 659.822 91.2979H664.718ZM666.194 92.4141H659.822V92.5371C659.822 93.3984 660.068 94.0957 660.561 94.6289C661.053 95.1562 661.694 95.4199 662.485 95.4199C663.024 95.4199 663.511 95.2764 663.944 94.9893C664.378 94.6963 664.762 94.2568 665.096 93.6709L666.142 94.374C665.737 95.1006 665.222 95.6484 664.595 96.0176C663.968 96.3867 663.241 96.5713 662.415 96.5713C661.19 96.5713 660.2 96.167 659.444 95.3584C658.688 94.5498 658.311 93.4893 658.311 92.1768C658.311 90.917 658.686 89.8857 659.436 89.083C660.186 88.2803 661.149 87.8789 662.327 87.8789C663.517 87.8789 664.457 88.2598 665.148 89.0215C665.846 89.7832 666.194 90.8232 666.194 92.1416V92.4141ZM668.277 96.2285V88.1865H669.622V89.4258C669.968 88.9102 670.384 88.5264 670.87 88.2744C671.356 88.0225 671.919 87.8965 672.558 87.8965C673.507 87.8965 674.248 88.1484 674.781 88.6523C675.314 89.1562 675.581 89.8564 675.581 90.7529V96.2285H674.175V91.4912C674.175 90.6768 674.002 90.0732 673.656 89.6807C673.316 89.2822 672.789 89.083 672.074 89.083C671.664 89.083 671.289 89.1592 670.949 89.3115C670.615 89.458 670.337 89.6689 670.114 89.9443C669.944 90.1553 669.821 90.3955 669.745 90.665C669.675 90.9346 669.64 91.4033 669.64 92.0713V96.2285H668.277ZM678.525 89.3203H677.049V88.1865H678.525V84.9434H679.932V88.1865H681.408V89.3203H679.932V96.2285H678.525V89.3203Z" fill="#10150C"/>
<path d="M914.231 82.083C915.069 82.4404 915.699 82.915 916.121 83.5068C916.549 84.0986 916.763 84.7988 916.763 85.6074C916.763 86.791 916.385 87.7461 915.629 88.4727C914.879 89.1934 913.883 89.5537 912.641 89.5537C911.627 89.5537 910.777 89.2959 910.092 88.7803C909.406 88.2588 908.943 87.5205 908.703 86.5654L910.092 85.8799C910.279 86.6592 910.587 87.251 911.015 87.6553C911.448 88.0537 911.99 88.2529 912.641 88.2529C913.408 88.2529 914.029 88.0332 914.504 87.5938C914.979 87.1484 915.216 86.5713 915.216 85.8623C915.216 85.2881 915.049 84.79 914.715 84.3682C914.387 83.9404 913.889 83.5801 913.221 83.2871L911.656 82.6191C910.801 82.2617 910.162 81.8018 909.74 81.2393C909.324 80.6768 909.116 80.0029 909.116 79.2178C909.116 78.3037 909.456 77.5479 910.136 76.9502C910.815 76.3525 911.683 76.0537 912.737 76.0537C913.511 76.0537 914.179 76.2178 914.741 76.5459C915.31 76.874 915.752 77.3574 916.068 77.9961L914.803 78.8047C914.516 78.3066 914.193 77.9375 913.836 77.6973C913.479 77.4512 913.074 77.3281 912.623 77.3281C912.049 77.3281 911.577 77.5039 911.208 77.8555C910.845 78.207 910.663 78.6553 910.663 79.2002C910.663 79.6572 910.804 80.0527 911.085 80.3867C911.366 80.7207 911.803 81.0166 912.395 81.2744L914.231 82.083ZM919.962 81.1865V85.1416C919.962 86.2959 920.132 87.1045 920.472 87.5674C920.817 88.0244 921.397 88.2529 922.212 88.2529C923.026 88.2529 923.601 88.0273 923.935 87.5762C924.274 87.1191 924.444 86.3076 924.444 85.1416V81.1865H925.851V85.8799C925.851 87.0928 925.54 88.0127 924.919 88.6396C924.298 89.2607 923.384 89.5713 922.177 89.5713C920.981 89.5713 920.073 89.2578 919.452 88.6309C918.831 88.0039 918.521 87.0869 918.521 85.8799V81.1865H919.962ZM934.684 87.3213V88.9209C934.32 89.1377 933.91 89.2988 933.453 89.4043C933.002 89.5156 932.513 89.5713 931.985 89.5713C930.743 89.5713 929.741 89.1787 928.979 88.3936C928.224 87.6025 927.846 86.5654 927.846 85.2822C927.846 83.9932 928.238 82.9414 929.023 82.127C929.809 81.3066 930.813 80.8965 932.038 80.8965C932.483 80.8965 932.917 80.9434 933.339 81.0371C933.767 81.1309 934.168 81.2686 934.543 81.4502V82.9268C934.191 82.6982 933.828 82.5254 933.453 82.4082C933.078 82.2852 932.697 82.2236 932.311 82.2236C931.408 82.2236 930.685 82.5078 930.14 83.0762C929.595 83.6387 929.322 84.3887 929.322 85.3262C929.322 86.1523 929.595 86.8438 930.14 87.4004C930.69 87.957 931.379 88.2354 932.205 88.2354C932.621 88.2354 933.028 88.1621 933.427 88.0156C933.825 87.8691 934.244 87.6377 934.684 87.3213ZM942.77 87.3213V88.9209C942.406 89.1377 941.996 89.2988 941.539 89.4043C941.088 89.5156 940.599 89.5713 940.071 89.5713C938.829 89.5713 937.827 89.1787 937.065 88.3936C936.31 87.6025 935.932 86.5654 935.932 85.2822C935.932 83.9932 936.324 82.9414 937.109 82.127C937.895 81.3066 938.899 80.8965 940.124 80.8965C940.569 80.8965 941.003 80.9434 941.425 81.0371C941.853 81.1309 942.254 81.2686 942.629 81.4502V82.9268C942.277 82.6982 941.914 82.5254 941.539 82.4082C941.164 82.2852 940.783 82.2236 940.396 82.2236C939.494 82.2236 938.771 82.5078 938.226 83.0762C937.681 83.6387 937.408 84.3887 937.408 85.3262C937.408 86.1523 937.681 86.8438 938.226 87.4004C938.776 87.957 939.465 88.2354 940.291 88.2354C940.707 88.2354 941.114 88.1621 941.513 88.0156C941.911 87.8691 942.33 87.6377 942.77 87.3213ZM950.39 84.2979C950.343 83.5889 950.105 83.0439 949.678 82.6631C949.256 82.2764 948.676 82.083 947.938 82.083C947.27 82.083 946.713 82.2852 946.268 82.6895C945.822 83.0879 945.564 83.624 945.494 84.2979H950.39ZM951.866 85.4141H945.494V85.5371C945.494 86.3984 945.74 87.0957 946.232 87.6289C946.725 88.1562 947.366 88.4199 948.157 88.4199C948.696 88.4199 949.183 88.2764 949.616 87.9893C950.05 87.6963 950.434 87.2568 950.768 86.6709L951.813 87.374C951.409 88.1006 950.894 88.6484 950.267 89.0176C949.64 89.3867 948.913 89.5713 948.087 89.5713C946.862 89.5713 945.872 89.167 945.116 88.3584C944.36 87.5498 943.982 86.4893 943.982 85.1768C943.982 83.917 944.357 82.8857 945.107 82.083C945.857 81.2803 946.821 80.8789 947.999 80.8789C949.188 80.8789 950.129 81.2598 950.82 82.0215C951.518 82.7832 951.866 83.8232 951.866 85.1416V85.4141ZM953.097 87.875L954.274 87.084C954.497 87.5117 954.778 87.834 955.118 88.0508C955.458 88.2617 955.859 88.3672 956.322 88.3672C956.773 88.3672 957.137 88.2559 957.412 88.0332C957.693 87.8105 957.834 87.5176 957.834 87.1543C957.834 86.873 957.737 86.6387 957.544 86.4512C957.356 86.2637 957.031 86.0908 956.568 85.9326L956.34 85.8535C954.383 85.1797 953.404 84.3359 953.404 83.3223C953.404 82.6074 953.668 82.0244 954.195 81.5732C954.723 81.1221 955.408 80.8965 956.252 80.8965C956.949 80.8965 957.547 81.0371 958.045 81.3184C958.543 81.5938 958.9 81.9863 959.117 82.4961L958.001 83.1816C957.837 82.8125 957.594 82.5283 957.271 82.3291C956.955 82.1299 956.586 82.0303 956.164 82.0303C955.76 82.0303 955.429 82.1445 955.171 82.373C954.919 82.5957 954.793 82.8828 954.793 83.2344C954.793 83.7266 955.326 84.1396 956.393 84.4736C956.592 84.5381 956.75 84.5879 956.867 84.623C957.74 84.9043 958.347 85.2266 958.687 85.5898C959.032 85.9473 959.205 86.4219 959.205 87.0137C959.205 87.7754 958.933 88.3936 958.388 88.8682C957.849 89.3369 957.143 89.5713 956.27 89.5713C955.52 89.5713 954.881 89.4307 954.354 89.1494C953.832 88.8682 953.413 88.4434 953.097 87.875ZM960.427 87.875L961.604 87.084C961.827 87.5117 962.108 87.834 962.448 88.0508C962.788 88.2617 963.189 88.3672 963.652 88.3672C964.104 88.3672 964.467 88.2559 964.742 88.0332C965.023 87.8105 965.164 87.5176 965.164 87.1543C965.164 86.873 965.067 86.6387 964.874 86.4512C964.687 86.2637 964.361 86.0908 963.898 85.9326L963.67 85.8535C961.713 85.1797 960.734 84.3359 960.734 83.3223C960.734 82.6074 960.998 82.0244 961.525 81.5732C962.053 81.1221 962.738 80.8965 963.582 80.8965C964.279 80.8965 964.877 81.0371 965.375 81.3184C965.873 81.5938 966.23 81.9863 966.447 82.4961L965.331 83.1816C965.167 82.8125 964.924 82.5283 964.602 82.3291C964.285 82.1299 963.916 82.0303 963.494 82.0303C963.09 82.0303 962.759 82.1445 962.501 82.373C962.249 82.5957 962.123 82.8828 962.123 83.2344C962.123 83.7266 962.656 84.1396 963.723 84.4736C963.922 84.5381 964.08 84.5879 964.197 84.623C965.07 84.9043 965.677 85.2266 966.017 85.5898C966.362 85.9473 966.535 86.4219 966.535 87.0137C966.535 87.7754 966.263 88.3936 965.718 88.8682C965.179 89.3369 964.473 89.5713 963.6 89.5713C962.85 89.5713 962.211 89.4307 961.684 89.1494C961.162 88.8682 960.743 88.4434 960.427 87.875Z" fill="#10150C"/>
<path d="M131.174 39.6905C131.174 39.6905 114.338 46.5723 103.03 17.0781C96.8866 1.05156 66.7642 -7.69204 54.7742 10.2932C65.646 11.5104 83.952 13.3559 97.1314 32.318C97.1314 32.318 90.1292 12.1383 54.7742 10.2932C48.7792 20.7841 51.4464 45.4902 73.2908 52.9636C102.152 62.8324 131.174 39.6905 131.174 39.6905Z" fill="#245B09"/>
<path d="M147.012 40.3611C134.749 40.3611 125.582 43.5418 122.61 45.2103L113.851 39.1097C113.173 37.1805 112.286 33.6662 114.163 35.0427C116.04 36.4192 119.325 36.7634 120.733 36.7634H332.668C333.45 36.8155 335.014 36.5131 335.014 34.8863L340.489 40.3611H147.012Z" fill="#245B09"/>
<path d="M411.94 39.3207C411.94 39.3207 395.104 46.1891 383.795 16.7524C377.652 0.757227 347.53 -7.9693 335.54 9.98081C346.412 11.1956 364.718 13.0376 377.897 31.9627C377.897 31.9627 370.895 11.8224 335.54 9.98081C329.545 20.4513 332.212 45.1091 354.056 52.568C382.918 62.4175 411.94 39.3207 411.94 39.3207Z" fill="#245B09"/>
<path d="M427.778 40.3612C415.514 40.3612 406.348 43.5418 403.376 45.2103L394.616 39.1098C393.938 37.1806 393.052 33.6663 394.929 35.0428C396.806 36.4193 400.091 36.7635 401.499 36.7635H613.434C614.216 36.8156 615.78 36.5132 615.78 34.8864L621.255 40.3612H613.434H427.778Z" fill="#245B09"/>
<path d="M692.705 39.3206C692.705 39.3206 675.87 46.189 664.561 16.7523C658.418 0.757106 628.295 -7.96942 616.305 9.98069C627.177 11.1955 645.483 13.0375 658.663 31.9626C658.663 31.9626 651.66 11.8222 616.305 9.98069C610.31 20.4512 612.978 45.109 634.822 52.5679C663.683 62.4174 692.705 39.3206 692.705 39.3206Z" fill="#245B09"/>
<path d="M708.544 40.361C696.28 40.361 687.114 43.5416 684.142 45.2101L675.382 39.1096C674.704 37.1804 673.818 33.666 675.695 35.0426C677.572 36.4191 680.857 36.7632 682.264 36.7632H908.187C908.97 36.8154 910.534 36.513 910.534 34.8862L916.009 40.361H908.187H708.544Z" fill="#245B09"/>
<path d="M888.303 39.3206C888.303 39.3206 905.139 46.189 916.448 16.7523C922.591 0.757106 952.713 -7.96942 964.703 9.98069C953.832 11.1955 935.526 13.0375 922.346 31.9626C922.346 31.9626 929.348 11.8222 964.703 9.98069C970.698 20.4512 968.031 45.109 946.187 52.5679C917.325 62.4174 888.303 39.3206 888.303 39.3206Z" fill="#245B09"/>
<path d="M872.465 40.361C884.729 40.361 893.895 43.5416 896.867 45.2101L905.627 39.1096C906.305 37.1804 907.191 33.666 905.314 35.0426C903.437 36.4191 900.152 36.7632 898.744 36.7632H672.821C672.039 36.8154 670.475 36.513 670.475 34.8862L665 40.361H672.821H872.465Z" fill="#245B09"/>
<path d="M887.792 41.2114C887.792 41.2114 904.628 48.2222 915.936 18.1754C922.08 1.84872 952.202 -7.05866 964.192 11.2635C953.32 12.5034 935.014 14.3836 921.835 33.7009C921.835 33.7009 928.837 13.1432 964.192 11.2635C970.187 21.951 967.52 47.1198 945.675 54.7333C916.814 64.7869 887.792 41.2114 887.792 41.2114Z" fill="#245B09"/>
<path d="M78.5631 36.2903V21.5012H75.0123L76.0904 19.2981H81.106V36.2903H78.5631Z" fill="#F1FAEA"/>
<path d="M363.99 34.0637V36.2903H352.494L358.904 28.6145C359.701 27.6536 360.283 26.8098 360.65 26.0833C361.017 25.3567 361.201 24.6965 361.201 24.1028C361.201 23.2512 360.947 22.5833 360.439 22.0989C359.939 21.6067 359.252 21.3606 358.377 21.3606C357.595 21.3606 356.951 21.6067 356.443 22.0989C355.935 22.5833 355.65 23.2239 355.587 24.0208H352.904C352.904 22.4817 353.42 21.2551 354.451 20.3411C355.482 19.4192 356.869 18.9583 358.611 18.9583C360.267 18.9583 361.572 19.384 362.525 20.2356C363.486 21.0872 363.966 22.2473 363.966 23.7161C363.966 24.7629 363.689 25.8215 363.134 26.8918C362.587 27.9543 361.423 29.5012 359.642 31.5325L357.462 34.0637H363.99Z" fill="#F1FAEA"/>
<path d="M631.858 31.7083H634.53V31.8489C634.53 32.6379 634.799 33.2668 635.338 33.7356C635.878 34.2043 636.608 34.4387 637.53 34.4387C638.569 34.4387 639.37 34.1809 639.932 33.6653C640.503 33.1418 640.788 32.3918 640.788 31.4153C640.788 30.3918 640.495 29.6223 639.909 29.1067C639.331 28.5833 638.463 28.3215 637.307 28.3215C637.253 28.3215 637.167 28.3254 637.049 28.3333C636.932 28.3411 636.842 28.345 636.78 28.345V26.095C636.835 26.095 636.917 26.0989 637.026 26.1067C637.143 26.1145 637.229 26.1184 637.284 26.1184C638.299 26.1184 639.065 25.9075 639.581 25.4856C640.096 25.0559 640.354 24.427 640.354 23.5989C640.354 22.8645 640.12 22.2825 639.651 21.8528C639.19 21.4153 638.569 21.1965 637.788 21.1965C636.952 21.1965 636.295 21.3997 635.819 21.8059C635.35 22.2043 635.104 22.7668 635.081 23.4934H632.561C632.639 22.0325 633.135 20.9114 634.049 20.1301C634.963 19.3489 636.233 18.9583 637.858 18.9583C639.428 18.9583 640.67 19.3684 641.585 20.1887C642.506 21.009 642.967 22.1184 642.967 23.5168C642.967 24.5715 642.706 25.4387 642.182 26.1184C641.667 26.7903 640.948 27.1965 640.026 27.3372C641.112 27.5325 641.936 28.009 642.499 28.7668C643.069 29.5247 643.354 30.5286 643.354 31.7786C643.354 33.302 642.819 34.5129 641.749 35.4114C640.686 36.302 639.245 36.7473 637.424 36.7473C635.776 36.7473 634.448 36.2942 633.44 35.3879C632.432 34.4739 631.905 33.2473 631.858 31.7083Z" fill="#F1FAEA"/>
<path d="M935.853 24.4102L931.482 30.5742H935.783V26.1094C935.783 25.875 935.787 25.6133 935.795 25.3242C935.81 25.0352 935.83 24.7305 935.853 24.4102ZM935.783 36V32.5195H927.556L937.541 18.668H938.326V30.5742H940.412V32.5195H938.326V36H935.783Z" fill="#F1FAEA"/>
</svg>
