<svg width="155" height="450" viewBox="0 0 155 450" fill="none" xmlns="http://www.w3.org/2000/svg">
<path fill-rule="evenodd" clip-rule="evenodd" d="M-155.431 168.907C-143.513 168.654 -131.575 169.815 -119.815 172.204L30.5908 316.451C26.5694 322.706 22.3243 328.932 17.8445 335.087L-155.431 168.907ZM-139.088 128.708C-140.625 128.871 -142.132 129.357 -143.499 130.164C-146.551 130.553 -149.594 129.713 -151.822 127.577C-156.038 123.533 -155.735 116.377 -151.146 111.592C-146.557 106.807 -139.42 106.206 -135.204 110.249C-130.988 114.292 -131.29 121.449 -135.879 126.234C-136.852 127.248 -137.939 128.074 -139.088 128.708ZM-183.667 172.274L-174.687 180.886L-312.341 322.728C-313.194 323.451 -314.032 324.164 -314.853 324.867C-287.822 229.157 -237.641 184.271 -183.667 172.274ZM4.31184 352.555C-18.3022 379.963 -46.057 405.127 -80.009 424.282C-192.002 487.445 -278.26 396.812 -310.846 353.794C-273.543 318.315 -240.45 296.126 -211.877 282.729C-129.722 244.188 -84.9726 278.357 -84.9726 278.357C-132.662 241.523 -184.2 247.853 -228.56 267.597L-158.742 196.178L4.31184 352.555ZM42.25 297.187C86.5373 219.437 98.214 143.233 98.214 143.233C98.214 143.233 77.7031 189.31 12.7051 196.707L34.0602 217.188C38.4533 221.401 38.6098 228.367 34.4098 232.746L5.97423 262.396L42.25 297.187ZM-18.5037 197.223C-24.7133 196.778 -31.2237 196.012 -38.0467 194.886C-48.9161 193.09 -60.5788 190.377 -73.0831 186.576L-50.6818 208.06L-9.93485 247.138L10.8957 225.419L-18.5037 197.223ZM-117.144 139.45C-114.133 142.338 -109.035 141.908 -105.757 138.491C-102.48 135.073 -102.264 129.961 -105.275 127.073C-108.286 124.185 -113.384 124.615 -116.662 128.032C-119.94 131.45 -120.156 136.562 -117.144 139.45ZM-46.1037 82.8458C-54.2979 91.3899 -67.0433 92.4634 -74.5714 85.2436C-82.0994 78.0238 -81.5594 65.2447 -73.3652 56.7006C-65.171 48.1565 -52.4256 47.083 -44.8975 54.3028C-37.3695 61.5226 -37.9095 74.3018 -46.1037 82.8458ZM-56.3261 150.261C-53.9171 152.571 -49.8384 152.228 -47.2162 149.494C-44.594 146.76 -44.4212 142.67 -46.8303 140.36C-49.2393 138.049 -53.318 138.393 -55.9402 141.127C-58.5624 143.861 -58.7352 147.951 -56.3261 150.261ZM24.2001 164.523C16.6614 172.384 4.93552 173.372 -1.99036 166.729C-8.91624 160.087 -8.41942 148.33 -0.880698 140.47C6.65802 132.609 18.3839 131.621 25.3098 138.264C32.2357 144.906 31.7389 156.663 24.2001 164.523Z" fill="#F3F7F1"/>
</svg>
