<svg width="370" height="236" viewBox="0 0 370 236" fill="none" xmlns="http://www.w3.org/2000/svg">
<path fill-rule="evenodd" clip-rule="evenodd" d="M59.5692 -110.093C71.4866 -110.346 83.4251 -109.185 95.1846 -106.796L245.591 37.4512C241.569 43.7065 237.324 49.9317 232.844 56.0874L59.5692 -110.093ZM75.9118 -150.292C74.3749 -150.129 72.8679 -149.643 71.5012 -148.836C68.4491 -148.447 65.4058 -149.287 63.1782 -151.423C58.9623 -155.467 59.2647 -162.623 63.8536 -167.408C68.4426 -172.193 75.5803 -172.794 79.7962 -168.751C84.0121 -164.708 83.7097 -157.551 79.1208 -152.766C78.1482 -151.752 77.0612 -150.926 75.9118 -150.292ZM31.3328 -106.726L40.3132 -98.1136L-97.3414 43.7282C-98.1942 44.4506 -99.0316 45.164 -99.8533 45.8673C-72.8219 -49.8431 -22.6407 -94.7287 31.3328 -106.726ZM219.312 73.5554C196.698 100.963 168.943 126.127 134.991 145.282C22.9983 208.445 -63.2601 117.812 -95.8456 74.794C-58.5433 39.3155 -25.4497 17.1259 3.12291 3.72877C85.2781 -34.8116 130.027 -0.642673 130.027 -0.642673C82.3378 -37.4773 30.7996 -31.1469 -13.5604 -11.4029L56.2578 -82.8219L219.312 73.5554ZM257.25 18.1865C301.537 -59.5633 313.214 -135.767 313.214 -135.767C313.214 -135.767 292.703 -89.6898 227.705 -82.2927L249.06 -61.812C253.453 -57.5988 253.61 -50.6328 249.41 -46.2535L220.974 -16.6039L257.25 18.1865ZM196.496 -81.777C190.287 -82.2225 183.776 -82.9876 176.953 -84.1145C166.084 -85.9096 154.421 -88.6228 141.917 -92.424L164.318 -70.94L205.065 -31.8615L225.896 -53.5815L196.496 -81.777ZM97.8555 -139.55C100.867 -136.662 105.965 -137.092 109.243 -140.509C112.52 -143.927 112.736 -149.039 109.725 -151.927C106.714 -154.815 101.616 -154.385 98.3379 -150.968C95.0603 -147.55 94.8443 -142.438 97.8555 -139.55ZM168.896 -196.154C160.702 -187.61 147.957 -186.537 140.429 -193.756C132.901 -200.976 133.441 -213.755 141.635 -222.299C149.829 -230.843 162.574 -231.917 170.102 -224.697C177.631 -217.477 177.091 -204.698 168.896 -196.154ZM158.674 -128.739C161.083 -126.429 165.162 -126.772 167.784 -129.506C170.406 -132.24 170.579 -136.33 168.17 -138.64C165.761 -140.951 161.682 -140.607 159.06 -137.873C156.438 -135.139 156.265 -131.049 158.674 -128.739ZM239.2 -114.477C231.661 -106.616 219.936 -105.628 213.01 -112.271C206.084 -118.913 206.581 -130.67 214.119 -138.53C221.658 -146.391 233.384 -147.379 240.31 -140.736C247.236 -134.094 246.739 -122.337 239.2 -114.477Z" fill="#F3F7F1"/>
</svg>
