<svg width="42" height="13" viewBox="0 0 42 13" fill="none" xmlns="http://www.w3.org/2000/svg">
<path d="M15.9464 0.533155L10.4475 12.671H6.86011L4.15406 2.98386C3.99 2.38864 3.84743 2.16959 3.34819 1.9179C2.53214 1.50773 1.18453 1.12412 0 0.88549L0.0798984 0.533155H5.85556C6.59056 0.533155 7.25238 0.985983 7.42071 1.77004L8.85052 8.79441L12.3805 0.533155H15.9464ZM20.7961 0.533155L17.9901 12.671H14.596L17.4023 0.533155H20.7961ZM30.0026 8.70804C30.0167 5.50515 25.2162 5.32739 25.2476 3.89635C25.2591 3.46128 25.707 2.99813 26.6874 2.87972C27.173 2.82158 28.5147 2.77528 30.0344 3.42318L30.629 0.847691C29.8125 0.574446 28.7616 0.311523 27.4545 0.311523C24.0995 0.311523 21.7394 1.9604 21.7206 4.32337C21.6986 6.07122 23.4063 7.04534 24.6906 7.6275C26.0134 8.22196 26.457 8.60405 26.451 9.13536C26.4415 9.94978 25.3944 10.3103 24.421 10.3237C22.7141 10.3487 21.7247 9.8968 20.9354 9.55661L20.3193 12.2174C21.1134 12.5541 22.5768 12.8466 24.0926 12.8615C27.6593 12.8615 29.9921 11.2315 30.0026 8.70804ZM38.862 12.671H42L39.2585 0.533155H36.3633C35.7103 0.533155 35.1615 0.88382 34.9181 1.42287L29.8256 12.671H33.3895L34.0965 10.8579H38.4507L38.862 12.671ZM35.0738 8.37058L36.8607 3.8124L37.8873 8.37058H35.0738Z" fill="#1A1F71"/>
</svg>
