<svg width="453" height="178" viewBox="0 0 453 178" fill="none" xmlns="http://www.w3.org/2000/svg">
<path fill-rule="evenodd" clip-rule="evenodd" d="M304.799 -14.5676C293.472 -10.8526 281.714 -8.48358 269.769 -7.34154L83.8531 -101.494C85.8769 -108.65 88.1236 -115.842 90.615 -123.036L304.799 -14.5676ZM300.881 28.6495C302.304 28.0455 303.603 27.1414 304.676 25.9714C307.482 24.7099 310.638 24.6262 313.391 26.0207C318.603 28.6598 320.399 35.5939 317.404 41.5084C314.409 47.423 307.756 50.0782 302.545 47.4391C297.333 44.8 295.537 37.8659 298.532 31.9514C299.167 30.6979 299.966 29.5908 300.881 28.6495ZM330.828 -26.0168L319.728 -31.6385L410.07 -207.44C410.675 -208.38 411.268 -209.306 411.849 -210.218C413.884 -110.785 378.962 -53.2232 330.828 -26.0168ZM98.4695 -143.69C112.115 -176.498 131.331 -208.659 158.227 -236.877C246.95 -329.936 355.878 -268.375 399.585 -236.721C374.242 -191.912 349.052 -161.041 325.624 -139.899C258.267 -79.0885 205.502 -98.7329 205.502 -98.7329C261.856 -77.3954 309.312 -98.4709 345.993 -130.286L300.019 -41.6197L98.4695 -143.69ZM78.3143 -79.6681C58.6082 7.6134 69.6464 83.9119 69.6464 83.9119C69.6464 83.9119 75.8387 33.8576 135.86 7.83915L109.463 -5.52895C104.033 -8.27895 101.853 -14.897 104.594 -20.3102L123.154 -56.9598L78.3143 -79.6681ZM165.563 -1.74934C171.633 -3.13289 178.084 -4.29831 184.939 -5.2088C195.86 -6.65925 207.807 -7.46276 220.876 -7.47065L193.186 -21.4937L142.82 -47.0009L129.223 -20.1531L165.563 -1.74934ZM276.759 24.7692C273.037 22.8841 268.285 24.7806 266.146 29.0051C264.007 33.2296 265.29 38.1823 269.012 40.0674C272.734 41.9524 277.486 40.0558 279.625 35.8314C281.765 31.6069 280.481 26.6542 276.759 24.7692ZM225.298 99.6194C230.647 89.0582 242.526 84.3168 251.831 89.0293C261.137 93.7418 264.345 106.124 258.996 116.685C253.648 127.246 241.768 131.987 232.463 127.275C223.157 122.562 219.95 110.181 225.298 99.6194ZM215.43 32.1514C212.452 30.6433 208.651 32.1606 206.939 35.5403C205.228 38.9199 206.254 42.8822 209.232 44.3902C212.21 45.8983 216.011 44.381 217.723 41.0014C219.434 37.6217 218.408 33.6594 215.43 32.1514ZM134.243 41.9761C139.164 32.2597 150.093 27.8976 158.654 32.2332C167.215 36.5687 170.166 47.96 165.245 57.6764C160.324 67.3928 149.395 71.7549 140.834 67.4194C132.273 63.0838 129.322 51.6925 134.243 41.9761Z" fill="#E8C547" fill-opacity="0.5"/>
</svg>
